{
.formatVersion = 3;
date = "2011-04-09 19:25:26 +0000";
familyName = CarterOne;
fontMaster = (
{
customParameters = (
{
name = typoAscender;
value = 2264;
},
{
name = typoDescender;
value = -890;
},
{
name = typoLineGap;
value = 0;
},
{
name = winAscent;
value = 2264;
},
{
name = winDescent;
value = 890;
},
{
name = hheaAscender;
value = 2264;
},
{
name = hheaDescender;
value = -890;
},
{
name = hheaLineGap;
value = 0;
}
);
id = "343d4ea0-2832-40ed-9abc-f55d5da1b22f";
metricValues = (
{
},
{
pos = -103;
},
{
pos = 102;
},
{
pos = 1638;
},
{
pos = -410;
},
{
pos = 1434;
},
{
pos = 1331;
},
{
},
{
pos = 287;
},
{
pos = 1434;
},
{
pos = 1331;
},
{
},
{
pos = 977;
},
{
pos = 102;
},
{
pos = 512;
}
);
name = Regular;
visible = 1;
}
);
glyphs = (
{
category = Letter;
glyphname = exclam;
layers = (
{
layerId = "343d4ea0-2832-40ed-9abc-f55d5da1b22f";
name = Fore;
shapes = (
{
closed = 1;
nodes = (
(502,1014,o),
(471.5,858.5,q),
(441,703,o),
(415,544,q),
(413,511,o),
(408.5,498,q),
(404,485,o),
(386,482,q),
(347,475,o),
(309,467,q),
(271,459,o),
(229,448,q),
(221,448,o),
(219.5,450.5,q),
(218,453,o),
(218,458,q),
(208,1446,l),
(210,1478,o),
(215,1491,q),
(220,1504,o),
(237,1508,q),
(322,1527,o),
(409,1551.5,q),
(496,1576,o),
(593,1601,q),
(596,1602,o),
(602,1602,q),
(613,1602,o),
(613,1592,q),
(613,1591,o),
(609,1567.5,q),
(605,1544,o),
(598.5,1507,q),
(592,1470,o),
(584,1423.5,q),
(576,1377,o),
(567,1330.5,q),
(558,1284,o),
(549.5,1241.5,q),
(541,1199,o),
(534,1170,q)
);
},
{
closed = 1;
nodes = (
(496,299,o),
(494.5,276,q),
(493,253,o),
(492,241.5,q),
(491,230,o),
(491,227,q),
(491,224,o),
(490.5,222.5,q),
(490,221,o),
(489.5,216.5,q),
(489,212,o),
(488,197.5,q),
(487,183,o),
(485,155,q),
(483,127,o),
(479,78,q),
(477,45,o),
(472.5,32.5,q),
(468,20,o),
(450,16,q),
(365,-1,o),
(272,-19.5,q),
(179,-38,o),
(92,-67,q),
(89,-68,o),
(83,-68,q),
(74,-60,l),
(72,-58,o),
(72,-58,q),
(94,216,l),
(96,248,o),
(100.5,261,q),
(105,274,o),
(123,278,q),
(208,293,o),
(295,312,q),
(382,331,o),
(479,351,q),
(482,352,o),
(488,352,q),
(499,352,o),
(499,342,q)
);
}
);
width = 550;
}
);
unicode = 33;
},
{
category = Letter;
glyphname = quotedbl;
kernLeft = quotedbl.2;
kernRight = quotedbl;
layers = (
{
layerId = "343d4ea0-2832-40ed-9abc-f55d5da1b22f";
name = Fore;
shapes = (
{
closed = 1;
nodes = (
(193,926,o),
(187,1081,q),
(181,1236,o),
(174,1387,q),
(174,1400,l),
(174,1426,o),
(180,1435.5,q),
(186,1445,o),
(203,1448,q),
(251,1448,o),
(303,1448.5,q),
(355,1449,o),
(407.5,1449,q),
(460,1449,o),
(511,1449.5,q),
(562,1450,o),
(608,1450,q),
(617,1450,o),
(623,1445,q),
(629,1440,o),
(629,1426,q),
(629,1420,l),
(473,783,l),
(469,767,o),
(466.5,755.5,q),
(464,744,o),
(460.5,737,q),
(457,730,o),
(451.5,726.5,q),
(446,723,o),
(437,723,q),
(383,723,o),
(332,722,q),
(281,721,o),
(221,721,q),
(213,721,o),
(209,729,q),
(205,737,o),
(203,747.5,q),
(201,758,o),
(200.5,769,q),
(200,780,o),
(200,785,q)
);
},
{
closed = 1;
nodes = (
(746,926,o),
(740,1081,q),
(734,1236,o),
(727,1387,q),
(727,1400,l),
(727,1426,o),
(733,1435.5,q),
(739,1445,o),
(756,1448,q),
(804,1448,o),
(856,1448.5,q),
(908,1449,o),
(960.5,1449,q),
(1013,1449,o),
(1064,1449.5,q),
(1115,1450,o),
(1161,1450,q),
(1170,1450,o),
(1176,1445,q),
(1182,1440,o),
(1182,1426,q),
(1182,1420,l),
(1026,783,l),
(1022,767,o),
(1019.5,755.5,q),
(1017,744,o),
(1013.5,737,q),
(1010,730,o),
(1004.5,726.5,q),
(999,723,o),
(990,723,q),
(936,723,o),
(885,722,q),
(834,721,o),
(774,721,q),
(766,721,o),
(762,729,q),
(758,737,o),
(756,747.5,q),
(754,758,o),
(753.5,769,q),
(753,780,o),
(753,785,q)
);
}
);
width = 1101;
}
);
unicode = 34;
},
{
category = Letter;
glyphname = numbersign;
layers = (
{
layerId = "343d4ea0-2832-40ed-9abc-f55d5da1b22f";
name = Fore;
shapes = (
{
closed = 1;
nodes = (
(437,827,l),
(298,827,l),
(238,827,o),
(208.5,832,q),
(179,837,o),
(179,852,q),
(179,860,o),
(188.5,885.5,q),
(198,911,o),
(212,943,q),
(226,975,o),
(243,1009,q),
(260,1043,o),
(275,1068,q),
(286,1078,o),
(295,1087,q),
(304,1096,o),
(326,1097,q),
(503,1094,l),
(526,1190,o),
(546.5,1284.5,q),
(567,1379,o),
(589,1476,q),
(596,1505,o),
(601,1516.5,q),
(606,1528,o),
(620,1528,q),
(627,1528,l),
(665,1516,o),
(704.5,1502,q),
(744,1488,o),
(783.5,1475.5,q),
(823,1463,o),
(861.5,1452,q),
(900,1441,o),
(936,1435,q),
(943,1433,o),
(948.5,1429.5,q),
(954,1426,o),
(954,1419,q),
(872,1089,l),
(1046,1086,l),
(1068,1183,o),
(1090,1279.5,q),
(1112,1376,o),
(1134,1476,q),
(1141,1505,o),
(1146,1516.5,q),
(1151,1528,o),
(1165,1528,q),
(1172,1528,l),
(1210,1516,o),
(1249.5,1502,q),
(1289,1488,o),
(1328.5,1475.5,q),
(1368,1463,o),
(1406.5,1452,q),
(1445,1441,o),
(1481,1435,q),
(1488,1433,o),
(1493.5,1429.5,q),
(1499,1426,o),
(1499,1419,q),
(1417,1089,l),
(1460,1095,o),
(1500,1100.5,q),
(1540,1106,o),
(1573,1109.5,q),
(1606,1113,o),
(1629.5,1115.5,q),
(1653,1118,o),
(1664,1118,q),
(1672,1118,o),
(1682,1113,q),
(1692,1108,o),
(1692,1092,q),
(1691,1084,o),
(1675,1048.5,q),
(1659,1013,o),
(1632,959,q),
(1585,866,l),
(1578,851,o),
(1564,844,q),
(1550,837,o),
(1524,835,q),
(1498,833,o),
(1456.5,833.5,q),
(1415,834,o),
(1354,834,q),
(1321,698,l),
(1390,709,o),
(1444.5,715.5,q),
(1499,722,o),
(1517,722,q),
(1525,722,o),
(1535,717,q),
(1545,712,o),
(1545,696,q),
(1545,690,o),
(1537,667,q),
(1529,644,o),
(1516.5,610,q),
(1504,576,o),
(1488.5,534.5,q),
(1473,493,o),
(1458,450,q),
(1451,435,o),
(1441.5,427.5,q),
(1432,420,o),
(1403,420,q),
(1362,420,l),
(1342,420,o),
(1314.5,420,q),
(1287,420,o),
(1253,421,q),
(1150,5,l),
(1146,-11,o),
(1145.5,-25,q),
(1145,-39,o),
(1130,-39,q),
(1118,-39,o),
(1103,-32,q),
(913,20,l),
(905,23,o),
(886.5,28.5,q),
(868,34,o),
(849,42,q),
(830,50,o),
(815.5,62,q),
(801,74,o),
(801,89,q),
(801,91,o),
(803,101,q),
(815,146,o),
(825.5,186.5,q),
(836,227,o),
(846,266.5,q),
(856,306,o),
(866,345,q),
(876,384,o),
(886,425,q),
(841,425,o),
(797.5,425.5,q),
(754,426,o),
(709,427,q),
(605,5,l),
(601,-11,o),
(600.5,-25,q),
(600,-39,o),
(585,-39,q),
(573,-39,o),
(558,-32,q),
(368,20,l),
(360,23,o),
(341.5,28.5,q),
(323,34,o),
(304,42,q),
(285,50,o),
(270.5,62,q),
(256,74,o),
(256,89,q),
(256,91,o),
(258,101,q),
(282,191,o),
(302,269,q),
(322,347,o),
(342,430,q),
(276,431,o),
(230.5,431,q),
(185,431,o),
(156.5,433,q),
(128,435,o),
(115,440,q),
(102,445,o),
(102,456,q),
(102,464,o),
(113,489.5,q),
(124,515,o),
(141.5,547,q),
(159,579,o),
(179.5,612.5,q),
(200,646,o),
(218,672,q),
(229,682,o),
(238,691,q),
(247,700,o),
(269,701,q),
(405,699,l)
);
},
{
closed = 1;
nodes = (
(957,725,o),
(965.5,760.5,q),
(974,796,o),
(983,831,q),
(938,831,o),
(895,830.5,q),
(852,830,o),
(809,830,q),
(775,693,l),
(949,690,l)
);
}
);
width = 1643;
}
);
unicode = 35;
},
{
category = Letter;
glyphname = dollar;
layers = (
{
layerId = "343d4ea0-2832-40ed-9abc-f55d5da1b22f";
name = Fore;
shapes = (
{
closed = 1;
nodes = (
(834,1362,o),
(887.5,1357,q),
(941,1352,o),
(970,1348,q),
(997,1054,l),
(995,1054,o),
(976.5,1056.5,q),
(958,1059,o),
(933,1061.5,q),
(908,1064,o),
(882,1066.5,q),
(856,1069,o),
(839,1069,q),
(818,1069,o),
(784.5,1065.5,q),
(751,1062,o),
(718.5,1051.5,q),
(686,1041,o),
(663,1021.5,q),
(640,1002,o),
(640,970,q),
(640,931,o),
(664.5,899.5,q),
(689,868,o),
(726,837.5,q),
(763,807,o),
(806,774.5,q),
(849,742,o),
(886,702,q),
(923,662,o),
(947.5,611.5,q),
(972,561,o),
(972,495,q),
(972,439,o),
(949,390.5,q),
(926,342,o),
(886,300.5,q),
(846,259,o),
(793.5,225.5,q),
(741,192,o),
(683,167,q),
(682,150,o),
(679.5,117,q),
(677,84,o),
(674,43.5,q),
(671,3,o),
(668,-40,q),
(665,-83,o),
(663,-120,q),
(584,-118,l),
(571,-118,o),
(542.5,-119.5,q),
(514,-121,o),
(479.5,-123.5,q),
(445,-126,o),
(409.5,-127.5,q),
(374,-129,o),
(346,-129,q),
(357,62,l),
(278,59,l),
(243,57,o),
(202,55.5,q),
(161,54,o),
(123,55,q),
(138,133,o),
(156,206.5,q),
(174,280,o),
(191,358,q),
(258,364,o),
(319.5,378.5,q),
(381,393,o),
(428.5,414.5,q),
(476,436,o),
(504,463,q),
(532,490,o),
(532,520,q),
(532,538,o),
(524.5,558.5,q),
(517,579,o),
(494,605,q),
(471,631,o),
(428.5,664.5,q),
(386,698,o),
(315,742,q),
(227,796,o),
(189,859,q),
(151,922,o),
(151,997,q),
(151,1047,o),
(178,1098.5,q),
(205,1150,o),
(247.5,1193.5,q),
(290,1237,o),
(343.5,1268,q),
(397,1299,o),
(451,1309,q),
(482,1500,l),
(484,1513,o),
(484.5,1522,q),
(485,1531,o),
(486,1536.5,q),
(487,1542,o),
(490,1545,q),
(493,1548,o),
(501,1549,q),
(571,1554,o),
(646.5,1560.5,q),
(722,1567,o),
(794,1578,q),
(800,1578,o),
(801.5,1576,q),
(803,1574,o),
(803,1571,q),
(803,1569,o),
(799,1548.5,q),
(795,1528,o),
(788.5,1498,q),
(782,1468,o),
(775,1433,q),
(768,1398,o),
(762,1367,q)
);
}
);
width = 993;
}
);
unicode = 36;
},
{
category = Letter;
glyphname = percent;
layers = (
{
layerId = "343d4ea0-2832-40ed-9abc-f55d5da1b22f";
name = Fore;
shapes = (
{
closed = 1;
nodes = (
(1136,961,o),
(1219,1062,q),
(1302,1163,o),
(1383,1263,q),
(1395,1278,o),
(1401,1285,q),
(1407,1292,o),
(1417,1292,q),
(1424,1292,o),
(1426,1291,q),
(1475,1252,o),
(1521.5,1217,q),
(1568,1182,o),
(1616,1153,q),
(1624,1150,o),
(1636.5,1143.5,q),
(1649,1137,o),
(1649,1129,q),
(1649,1125,o),
(1646,1122,q),
(858,167,l),
(850,157,o),
(848.5,152.5,q),
(847,148,o),
(838,148,q),
(833,148,o),
(826.5,149.5,q),
(820,151,o),
(809,153,q),
(752,200,o),
(717.5,226,q),
(683,252,o),
(663.5,266,q),
(644,280,o),
(636,285,q),
(628,290,o),
(623,295,q),
(615,300,o),
(614,308,q),
(613,316,o),
(613,328,q),
(672,395,o),
(726.5,460,q),
(781,525,o),
(834.5,590.5,q),
(888,656,o),
(942.5,723.5,q),
(997,791,o),
(1057,864,q)
);
},
{
closed = 1;
nodes = (
(152,1226,o),
(178.5,1311,q),
(205,1396,o),
(258,1458.5,q),
(311,1521,o),
(390.5,1557,q),
(470,1593,o),
(576,1593,q),
(676,1593,o),
(749.5,1557,q),
(823,1521,o),
(871,1461.5,q),
(919,1402,o),
(942,1325,q),
(965,1248,o),
(965,1166,q),
(965,1059,o),
(935,974.5,q),
(905,890,o),
(850,831.5,q),
(795,773,o),
(718,742,q),
(641,711,o),
(548,711,q),
(461,711,o),
(388,740.5,q),
(315,770,o),
(262.5,824,q),
(210,878,o),
(181,955,q),
(152,1032,o),
(152,1127,q)
);
},
{
closed = 1;
nodes = (
(408,1108,o),
(414,1068,q),
(420,1028,o),
(436.5,995.5,q),
(453,963,o),
(481,942.5,q),
(509,922,o),
(553,922,q),
(600,922,o),
(631,945.5,q),
(662,969,o),
(680.5,1005,q),
(699,1041,o),
(706.5,1084.5,q),
(714,1128,o),
(714,1169,q),
(714,1203,o),
(706.5,1241.5,q),
(699,1280,o),
(682.5,1313,q),
(666,1346,o),
(638.5,1367.5,q),
(611,1389,o),
(571,1389,q),
(523,1389,o),
(492,1367,q),
(461,1345,o),
(442,1310,q),
(423,1275,o),
(415.5,1232,q),
(408,1189,o),
(408,1147,q)
);
},
{
closed = 1;
nodes = (
(1363,463,o),
(1389.5,548,q),
(1416,633,o),
(1469,695.5,q),
(1522,758,o),
(1601.5,794,q),
(1681,830,o),
(1787,830,q),
(1887,830,o),
(1960.5,794,q),
(2034,758,o),
(2082,698.5,q),
(2130,639,o),
(2153,562,q),
(2176,485,o),
(2176,403,q),
(2176,296,o),
(2146,211.5,q),
(2116,127,o),
(2061,68.5,q),
(2006,10,o),
(1929,-21,q),
(1852,-52,o),
(1759,-52,q),
(1672,-52,o),
(1599,-22.5,q),
(1526,7,o),
(1473.5,61,q),
(1421,115,o),
(1392,192,q),
(1363,269,o),
(1363,364,q)
);
},
{
closed = 1;
nodes = (
(1619,345,o),
(1625,305,q),
(1631,265,o),
(1647.5,232.5,q),
(1664,200,o),
(1692,179.5,q),
(1720,159,o),
(1764,159,q),
(1811,159,o),
(1842,182.5,q),
(1873,206,o),
(1891.5,242,q),
(1910,278,o),
(1917.5,321.5,q),
(1925,365,o),
(1925,406,q),
(1925,440,o),
(1917.5,478.5,q),
(1910,517,o),
(1893.5,550,q),
(1877,583,o),
(1849.5,604.5,q),
(1822,626,o),
(1782,626,q),
(1734,626,o),
(1703,604,q),
(1672,582,o),
(1653,547,q),
(1634,512,o),
(1626.5,469,q),
(1619,426,o),
(1619,384,q)
);
}
);
width = 2193;
}
);
unicode = 37;
},
{
category = Letter;
glyphname = ampersand;
layers = (
{
layerId = "343d4ea0-2832-40ed-9abc-f55d5da1b22f";
name = Fore;
shapes = (
{
closed = 1;
nodes = (
(80,328,o),
(82.5,356.5,q),
(85,385,o),
(96,415,q),
(107,445,o),
(130.5,477.5,q),
(154,510,o),
(195,550,q),
(236,590,o),
(298.5,639,q),
(361,688,o),
(451,750,q),
(388,834,o),
(358,919,q),
(328,1004,o),
(328,1085,q),
(328,1160,o),
(363.5,1226,q),
(399,1292,o),
(468,1341.5,q),
(537,1391,o),
(637.5,1419.5,q),
(738,1448,o),
(869,1448,q),
(896,1448,o),
(930.5,1441.5,q),
(965,1435,o),
(1000.5,1421,q),
(1036,1407,o),
(1070,1384,q),
(1104,1361,o),
(1130.5,1327.5,q),
(1157,1294,o),
(1173.5,1250,q),
(1190,1206,o),
(1190,1149,q),
(1190,1096,o),
(1172.5,1053.5,q),
(1155,1011,o),
(1119.5,967.5,q),
(1084,924,o),
(1029.5,874.5,q),
(975,825,o),
(901,759,q),
(1139,568,l),
(1150,558,o),
(1160.5,549,q),
(1171,540,o),
(1183,541,q),
(1188,549,o),
(1193.5,550,q),
(1199,551,o),
(1205,551,q),
(1432,762,l),
(1450,755,o),
(1477.5,734,q),
(1505,713,o),
(1530.5,687,q),
(1556,661,o),
(1574,633.5,q),
(1592,606,o),
(1592,587,q),
(1592,575,o),
(1588,568,q),
(1407,377,l),
(1418,368,l),
(1427,362,o),
(1439.5,352.5,q),
(1452,343,o),
(1467.5,331.5,q),
(1483,320,o),
(1500.5,307.5,q),
(1518,295,o),
(1536,283,q),
(1546,276,o),
(1548,268,q),
(1550,260,o),
(1550,258,q),
(1550,244,o),
(1538,223,q),
(1526,202,o),
(1507.5,178,q),
(1489,154,o),
(1466.5,128.5,q),
(1444,103,o),
(1422,80.5,q),
(1400,58,o),
(1381,39.5,q),
(1362,21,o),
(1352,12,q),
(1342,2,o),
(1331,2,q),
(1323,2,o),
(1317,8,q),
(1116,131,l),
(1015,77,o),
(938.5,42,q),
(862,7,o),
(795.5,-14,q),
(729,-35,o),
(665.5,-43,q),
(602,-51,o),
(526,-51,q),
(442,-51,o),
(362,-30,q),
(282,-9,o),
(219.5,34.5,q),
(157,78,o),
(118.5,143,q),
(80,208,o),
(80,297,q)
);
},
{
closed = 1;
nodes = (
(514,339,o),
(520,316.5,q),
(526,294,o),
(541,275.5,q),
(556,257,o),
(582,245,q),
(608,233,o),
(649,233,q),
(662,233,o),
(685,235,q),
(708,237,o),
(737,246,q),
(766,255,o),
(801.5,273.5,q),
(837,292,o),
(876,325,q),
(638,556,l),
(616,544,o),
(594,529,q),
(572,514,o),
(554,491.5,q),
(536,469,o),
(525,437.5,q),
(514,406,o),
(514,361,q)
);
},
{
closed = 1;
nodes = (
(759,1214,o),
(735.5,1204,q),
(712,1194,o),
(697,1177.5,q),
(682,1161,o),
(674.5,1139.5,q),
(667,1118,o),
(667,1094,q),
(667,1057,o),
(683.5,1018.5,q),
(700,980,o),
(732,951,q),
(810,1003,o),
(843.5,1052.5,q),
(877,1102,o),
(877,1140,q),
(877,1174,o),
(854,1194,q),
(831,1214,o),
(791,1214,q)
);
}
);
width = 1560;
}
);
unicode = 38;
},
{
category = Letter;
glyphname = quotesingle;
kernLeft = quotedbl.2;
kernRight = quotedbl;
layers = (
{
layerId = "343d4ea0-2832-40ed-9abc-f55d5da1b22f";
name = Fore;
shapes = (
{
closed = 1;
nodes = (
(193,925,o),
(187,1080,q),
(181,1235,o),
(174,1386,q),
(174,1399,l),
(174,1425,o),
(180,1434.5,q),
(186,1444,o),
(203,1447,q),
(251,1447,o),
(303,1447.5,q),
(355,1448,o),
(407.5,1448,q),
(460,1448,o),
(511,1448.5,q),
(562,1449,o),
(608,1449,q),
(617,1449,o),
(623,1444,q),
(629,1439,o),
(629,1425,q),
(629,1419,l),
(473,782,l),
(469,766,o),
(466.5,754.5,q),
(464,743,o),
(460.5,736,q),
(457,729,o),
(451.5,725.5,q),
(446,722,o),
(437,722,q),
(383,722,o),
(332,721,q),
(281,720,o),
(221,720,q),
(213,720,o),
(209,728,q),
(205,736,o),
(203,746.5,q),
(201,757,o),
(200.5,768,q),
(200,779,o),
(200,784,q)
);
}
);
width = 548;
}
);
unicode = 39;
},
{
category = Letter;
glyphname = parenleft;
layers = (
{
layerId = "343d4ea0-2832-40ed-9abc-f55d5da1b22f";
name = Fore;
shapes = (
{
closed = 1;
nodes = (
(767,51,o),
(760.5,18.5,q),
(754,-14,o),
(747,-44.5,q),
(740,-75,o),
(733,-107,q),
(726,-139,o),
(718,-181,q),
(714,-200,o),
(697,-200,q),
(695,-200,o),
(694,-199.5,q),
(693,-199,o),
(691,-199,q),
(535,-175,o),
(423,-108.5,q),
(311,-42,o),
(239,54.5,q),
(167,151,o),
(133.5,271,q),
(100,391,o),
(100,522,q),
(100,581,o),
(109,660.5,q),
(118,740,o),
(141.5,827,q),
(165,914,o),
(205.5,1003,q),
(246,1092,o),
(310,1170,q),
(349,1218,o),
(407,1272,q),
(465,1326,o),
(537,1373,q),
(609,1420,o),
(693.5,1454,q),
(778,1488,o),
(870,1497,q),
(875,1497,o),
(881.5,1491.5,q),
(888,1486,o),
(890,1467,q),
(890,1467,o),
(893,1435.5,q),
(896,1404,o),
(899.5,1360.5,q),
(903,1317,o),
(906,1270,q),
(909,1223,o),
(909,1191,q),
(909,1174,o),
(902,1168,q),
(895,1162,o),
(879,1157,q),
(801,1135,o),
(735,1075.5,q),
(669,1016,o),
(621,933.5,q),
(573,851,o),
(545.5,751.5,q),
(518,652,o),
(518,550,q),
(518,482,o),
(531,417,q),
(544,352,o),
(572.5,297,q),
(601,242,o),
(646,201.5,q),
(691,161,o),
(754,142,q),
(762,140,o),
(768,133,q),
(774,126,o),
(774,109,q),
(774,105,o),
(774,101.5,q),
(774,98,o),
(773,93,q)
);
}
);
width = 837;
}
);
unicode = 40;
},
{
category = Letter;
glyphname = parenright;
layers = (
{
layerId = "343d4ea0-2832-40ed-9abc-f55d5da1b22f";
name = Fore;
shapes = (
{
closed = 1;
nodes = (
(86,120,o),
(94,129.5,q),
(102,139,o),
(112,142,q),
(193,166,o),
(252.5,221,q),
(312,276,o),
(350.5,349.5,q),
(389,423,o),
(408,508,q),
(427,593,o),
(427,677,q),
(427,762,o),
(408.5,840.5,q),
(390,919,o),
(355,983,q),
(320,1047,o),
(270,1092.5,q),
(220,1138,o),
(158,1157,q),
(145,1161,o),
(139,1165,q),
(133,1169,o),
(133,1180,q),
(133,1188,o),
(134,1191,q),
(140,1223,o),
(150.5,1270,q),
(161,1317,o),
(171.5,1360.5,q),
(182,1404,o),
(190.5,1435,q),
(199,1466,o),
(199,1467,q),
(204,1486,o),
(212,1491.5,q),
(220,1497,o),
(225,1497,q),
(316,1488,o),
(394.5,1454,q),
(473,1420,o),
(537,1373,q),
(601,1326,o),
(649.5,1272,q),
(698,1218,o),
(729,1170,q),
(762,1118,o),
(784.5,1061,q),
(807,1004,o),
(820.5,945.5,q),
(834,887,o),
(840,828.5,q),
(846,770,o),
(846,716,q),
(846,611,o),
(827.5,508,q),
(809,405,o),
(770.5,309.5,q),
(732,214,o),
(673,130,q),
(614,46,o),
(533,-21,q),
(452,-88,o),
(348.5,-134,q),
(245,-180,o),
(118,-199,q),
(116,-199,o),
(115,-199.5,q),
(114,-200,o),
(112,-200,q),
(94,-200,o),
(94,-181,q),
(94,-147,o),
(92.5,-119,q),
(91,-91,o),
(89.5,-65.5,q),
(88,-40,o),
(86.5,-15,q),
(85,10,o),
(85,39,q),
(85,93,l),
(85,93,l)
);
}
);
width = 839;
}
);
unicode = 41;
},
{
category = Letter;
glyphname = asterisk;
layers = (
{
layerId = "343d4ea0-2832-40ed-9abc-f55d5da1b22f";
name = Fore;
shapes = (
{
closed = 1;
nodes = (
(330,585,l),
(224,654,o),
(170,690.5,q),
(116,727,o),
(116,748,q),
(116,753,o),
(120.5,762.5,q),
(125,772,o),
(135,787.5,q),
(145,803,o),
(161,826.5,q),
(177,850,o),
(200,883,q),
(256,965,l),
(262,970,o),
(267.5,973.5,q),
(273,977,o),
(280,977,q),
(293,977,o),
(314,959,q),
(384,900,l),
(416,873,o),
(456,840,q),
(496,807,o),
(538,772,q),
(542,816,l),
(552,927,o),
(558.5,989,q),
(565,1051,o),
(571,1082,q),
(577,1113,o),
(584,1121.5,q),
(591,1130,o),
(603,1132,q),
(621,1132,l),
(633,1132,o),
(664,1131,q),
(695,1130,o),
(729.5,1129.5,q),
(764,1129,o),
(795.5,1128.5,q),
(827,1128,o),
(839,1128,q),
(845,1128,l),
(859,1124,o),
(866,1117.5,q),
(873,1111,o),
(873,1093,q),
(873,1089,o),
(873,1085,q),
(873,1081,o),
(872,1076,q),
(857,987,l),
(850,945,o),
(843.5,893,q),
(837,841,o),
(831,784,q),
(867,818,o),
(904,854,q),
(941,890,o),
(973,919.5,q),
(1005,949,o),
(1030,968,q),
(1055,987,o),
(1067,987,q),
(1074,987,o),
(1079.5,983.5,q),
(1085,980,o),
(1091,975,q),
(1147,893,l),
(1169,861,o),
(1184.5,838,q),
(1200,815,o),
(1210.5,799,q),
(1221,783,o),
(1226,773.5,q),
(1231,764,o),
(1231,758,q),
(1231,750,o),
(1227.5,743,q),
(1224,736,o),
(1212.5,726.5,q),
(1201,717,o),
(1180,702,q),
(1159,687,o),
(1123.5,662.5,q),
(1088,638,o),
(1036,601.5,q),
(984,565,o),
(912,512,q),
(1176,307,l),
(1199,288,o),
(1208,277.5,q),
(1217,267,o),
(1218,259,q),
(1218,251,o),
(1210,241,q),
(1202,231,o),
(1191,212,q),
(1180,194,o),
(1152,157,q),
(1124,120,o),
(1071,47,q),
(1063,36,o),
(1050,36,q),
(1034,36,o),
(1016,51,q),
(795,226,l),
(776,-19,l),
(774,-41,o),
(771.5,-54,q),
(769,-67,o),
(765.5,-73.5,q),
(762,-80,o),
(756.5,-82,q),
(751,-84,o),
(742,-84,q),
(722,-84,l),
(716,-84,o),
(709,-84.5,q),
(702,-85,o),
(692,-85,q),
(669,-85,o),
(624,-81.5,q),
(579,-78,o),
(501,-74,q),
(489,-73,o),
(481.5,-62.5,q),
(474,-52,o),
(474,-32,q),
(502,219,l),
(321,91,l),
(311,84,o),
(303,80,q),
(295,76,o),
(287,76,q),
(274,76,o),
(266,87,q),
(217,142,o),
(190.5,170,q),
(164,198,o),
(156,212,q),
(145,231,o),
(137,241,q),
(129,251,o),
(129,259,q),
(129,267,o),
(138,277.5,q),
(147,288,o),
(171,307,q),
(434,512,l)
);
}
);
width = 1275;
}
);
unicode = 42;
},
{
category = Letter;
glyphname = plus;
layers = (
{
layerId = "343d4ea0-2832-40ed-9abc-f55d5da1b22f";
name = Fore;
shapes = (
{
closed = 1;
nodes = (
(327,526,o),
(288.5,526,q),
(250,526,o),
(227,526,q),
(167,526,o),
(137.5,531.5,q),
(108,537,o),
(108,554,q),
(108,563,o),
(113.5,591.5,q),
(119,620,o),
(126.5,655.5,q),
(134,691,o),
(141.5,727.5,q),
(149,764,o),
(154,789,q),
(156,801,o),
(169.5,811,q),
(183,821,o),
(205,822,q),
(406,825,l),
(408,846,l),
(413,914,o),
(415,963,q),
(417,1012,o),
(421.5,1043,q),
(426,1074,o),
(436,1088.5,q),
(446,1103,o),
(467,1103,q),
(469,1103,o),
(471.5,1102.5,q),
(474,1102,o),
(477,1102,q),
(483,1102,o),
(495.5,1102.5,q),
(508,1103,o),
(524,1103.5,q),
(540,1104,o),
(559,1104.5,q),
(578,1105,o),
(596,1105,q),
(691,1108,l),
(705,1104,o),
(712,1097.5,q),
(719,1091,o),
(719,1073,q),
(719,1071,o),
(719,1070,q),
(719,1069,o),
(718.5,1063,q),
(718,1057,o),
(717,1044,q),
(716,1031,o),
(714,1005,q),
(712,979,o),
(708.5,936.5,q),
(705,894,o),
(700,830,q),
(717,831,l),
(754,832,o),
(789.5,833,q),
(825,834,o),
(854.5,834.5,q),
(884,835,o),
(905.5,835.5,q),
(927,836,o),
(936,836,q),
(944,836,o),
(954,830,q),
(964,824,o),
(964,807,q),
(963,805,o),
(959,768,q),
(955,731,o),
(948,667,q),
(937,570,l),
(931,556,o),
(925.5,549.5,q),
(920,543,o),
(909,540,q),
(898,537,o),
(877.5,536.5,q),
(857,536,o),
(822,535,q),
(676,532,l),
(663,386,l),
(660,348,o),
(655.5,323.5,q),
(651,299,o),
(645,285,q),
(639,271,o),
(630.5,265.5,q),
(622,260,o),
(611,260,q),
(594,260,o),
(565,260.5,q),
(536,261,o),
(503.5,262,q),
(471,263,o),
(439,263.5,q),
(407,264,o),
(385,264,q),
(373,266,o),
(365.5,276,q),
(358,286,o),
(358,306,q),
(358,312,l),
(378,527,l)
);
}
);
width = 961;
}
);
unicode = 43;
},
{
category = Letter;
glyphname = comma;
layers = (
{
layerId = "343d4ea0-2832-40ed-9abc-f55d5da1b22f";
name = Fore;
shapes = (
{
closed = 1;
nodes = (
(249,-326,o),
(242.5,-323.5,q),
(236,-321,o),
(224.5,-315,q),
(213,-309,o),
(190.5,-297.5,q),
(168,-286,o),
(125,-262,q),
(93,-245,o),
(93,-234,q),
(93,-231,o),
(96,-226,q),
(125,-181,o),
(156.5,-131.5,q),
(188,-82,o),
(217,-31,q),
(132,-30,l),
(114,-30,l),
(100,-30,o),
(91,-28.5,q),
(82,-27,o),
(82,-20,q),
(82,-18,l),
(86,25,o),
(88.5,49.5,q),
(91,74,o),
(92,87.5,q),
(93,101,o),
(93.5,107,q),
(94,113,o),
(94.5,118,q),
(95,123,o),
(95.5,130,q),
(96,137,o),
(97,154,q),
(98,171,o),
(100.5,200.5,q),
(103,230,o),
(107,279,q),
(109,312,o),
(113.5,325,q),
(118,338,o),
(136,340,q),
(181,340,o),
(230,340.5,q),
(279,341,o),
(327.5,341.5,q),
(376,342,o),
(423.5,342,q),
(471,342,o),
(515,342,q),
(532,342,o),
(532,318,q),
(514,74,l),
(511,51,o),
(508.5,36,q),
(506,21,o),
(503.5,8.5,q),
(501,-4,o),
(497.5,-16,q),
(494,-28,o),
(489,-44,q),
(483,-58,o),
(469,-80.5,q),
(455,-103,o),
(437,-129,q),
(419,-155,o),
(399.5,-181.5,q),
(380,-208,o),
(363,-231.5,q),
(346,-255,o),
(333,-272,q),
(320,-289,o),
(316,-295,q),
(313,-299,o),
(308.5,-305.5,q),
(304,-312,o),
(298,-318.5,q),
(292,-325,o),
(285,-330,q),
(278,-335,o),
(271,-335,q),
(266,-335,o),
(260,-332,q)
);
}
);
width = 587;
}
);
unicode = 44;
},
{
category = Letter;
glyphname = hyphen;
kernLeft = hyphen.2;
kernRight = hyphen;
layers = (
{
layerId = "343d4ea0-2832-40ed-9abc-f55d5da1b22f";
name = Fore;
shapes = (
{
closed = 1;
nodes = (
(696,847,o),
(744.5,848.5,q),
(793,850,o),
(833,851.5,q),
(873,853,o),
(902.5,854.5,q),
(932,856,o),
(944,856,q),
(952,856,o),
(962,850,q),
(972,844,o),
(972,827,q),
(972,818,o),
(962.5,794,q),
(953,770,o),
(938,735.5,q),
(923,701,o),
(904,658.5,q),
(885,616,o),
(865,570,q),
(861,561,o),
(857.5,555,q),
(854,549,o),
(848.5,544.5,q),
(843,540,o),
(834,538,q),
(825,536,o),
(810,536,q),
(720,534,o),
(630,532.5,q),
(540,531,o),
(460.5,529.5,q),
(381,528,o),
(317,527,q),
(253,526,o),
(215,526,q),
(155,526,o),
(125.5,531.5,q),
(96,537,o),
(96,554,q),
(96,559,o),
(108.5,581.5,q),
(121,604,o),
(141,634.5,q),
(161,665,o),
(186.5,699.5,q),
(212,734,o),
(237,763,q),
(262,792,o),
(285,811.5,q),
(308,831,o),
(323,832,q),
(645,845,l)
);
}
);
width = 958;
}
);
unicode = 45;
},
{
category = Letter;
glyphname = period;
kernLeft = period;
layers = (
{
layerId = "343d4ea0-2832-40ed-9abc-f55d5da1b22f";
name = Fore;
shapes = (
{
closed = 1;
nodes = (
(92,9,o),
(93,36.5,q),
(94,64,o),
(94.5,79,q),
(95,94,o),
(95,100,q),
(95,106,o),
(95,111.5,q),
(95,117,o),
(95.5,125,q),
(96,133,o),
(97,151.5,q),
(98,170,o),
(100,202.5,q),
(102,235,o),
(105,289,q),
(107,322,o),
(111.5,334.5,q),
(116,347,o),
(134,350,q),
(222,350,o),
(318,350.5,q),
(414,351,o),
(499,352,q),
(508,352,o),
(514,347,q),
(520,342,o),
(520,328,q),
(492,14,l),
(488,-19,o),
(484.5,-31.5,q),
(481,-44,o),
(462,-46,q),
(377,-47,o),
(287.5,-48,q),
(198,-49,o),
(101,-49,q),
(95,-49,o),
(92.5,-48,q),
(90,-47,o),
(90,-42,q),
(90,-38,l)
);
}
);
width = 573;
}
);
unicode = 46;
},
{
category = Letter;
glyphname = slash;
layers = (
{
layerId = "343d4ea0-2832-40ed-9abc-f55d5da1b22f";
name = Fore;
shapes = (
{
closed = 1;
nodes = (
(505,1075,o),
(561,1207,q),
(617,1339,o),
(677,1476,q),
(690,1505,o),
(697,1516.5,q),
(704,1528,o),
(718,1528,q),
(725,1528,l),
(779,1506,o),
(831.5,1480.5,q),
(884,1455,o),
(937,1445,q),
(943,1443,o),
(947.5,1440,q),
(952,1437,o),
(952,1432,q),
(952,1429,l),
(311,15,l),
(307,6,o),
(305,-2,q),
(303,-10,o),
(300.5,-16,q),
(298,-22,o),
(294,-25.5,q),
(290,-29,o),
(282,-29,q),
(270,-29,o),
(256,-22,q),
(155,20,l),
(147,23,o),
(131,28.5,q),
(115,34,o),
(98.5,41.5,q),
(82,49,o),
(69.5,59,q),
(57,69,o),
(57,82,q),
(57,91,o),
(62,101,q),
(108,198,o),
(150.5,291.5,q),
(193,385,o),
(237.5,485.5,q),
(282,586,o),
(332,697.5,q),
(382,809,o),
(444,943,q)
);
}
);
width = 872;
}
);
unicode = 47;
},
{
category = Letter;
glyphname = zero;
layers = (
{
layerId = "343d4ea0-2832-40ed-9abc-f55d5da1b22f";
name = Fore;
shapes = (
{
closed = 1;
nodes = (
(138,849,o),
(186.5,998,q),
(235,1147,o),
(331.5,1257.5,q),
(428,1368,o),
(572.5,1431,q),
(717,1494,o),
(910,1494,q),
(1031,1494,o),
(1131,1465.5,q),
(1231,1437,o),
(1309,1386.5,q),
(1387,1336,o),
(1445,1266,q),
(1503,1196,o),
(1541,1113.5,q),
(1579,1031,o),
(1597.5,939,q),
(1616,847,o),
(1616,752,q),
(1616,563,o),
(1561,413.5,q),
(1506,264,o),
(1406,160.5,q),
(1306,57,o),
(1166,2.5,q),
(1026,-52,o),
(856,-52,q),
(698,-52,o),
(566,-0.5,q),
(434,51,o),
(339,146.5,q),
(244,242,o),
(191,376.5,q),
(138,511,o),
(138,678,q)
);
},
{
closed = 1;
nodes = (
(570,637,o),
(582.5,555,q),
(595,473,o),
(628,406,q),
(661,339,o),
(718.5,297,q),
(776,255,o),
(865,255,q),
(929,255,o),
(978,277,q),
(1027,299,o),
(1063,336.5,q),
(1099,374,o),
(1124,423.5,q),
(1149,473,o),
(1164,529,q),
(1179,585,o),
(1185.5,644,q),
(1192,703,o),
(1192,758,q),
(1192,803,o),
(1185.5,853,q),
(1179,903,o),
(1165,952.5,q),
(1151,1002,o),
(1128,1046.5,q),
(1105,1091,o),
(1073,1125.5,q),
(1041,1160,o),
(998,1180,q),
(955,1200,o),
(900,1200,q),
(835,1200,o),
(785.5,1179.5,q),
(736,1159,o),
(699,1124,q),
(662,1089,o),
(637.5,1042,q),
(613,995,o),
(598,941.5,q),
(583,888,o),
(576.5,830.5,q),
(570,773,o),
(570,717,q)
);
}
);
width = 1629;
}
);
unicode = 48;
},
{
category = Letter;
glyphname = one;
layers = (
{
layerId = "343d4ea0-2832-40ed-9abc-f55d5da1b22f";
name = Fore;
shapes = (
{
closed = 1;
nodes = (
(227,1327,o),
(230.5,1341.5,q),
(234,1356,o),
(254,1360,q),
(600,1443,l),
(615,1447,o),
(626,1447,q),
(640,1447,o),
(645.5,1438,q),
(651,1429,o),
(651,1404,q),
(592,167,l),
(591,144,o),
(588,129,q),
(585,114,o),
(579.5,104.5,q),
(574,95,o),
(565,89.5,q),
(556,84,o),
(544,80,q),
(231,-12,l),
(219,-15,o),
(208,-15,q),
(191,-15,o),
(178,-5.5,q),
(165,4,o),
(165,30,q),
(165,30,o),
(165,33,q),
(165,36,o),
(166,51.5,q),
(167,67,o),
(168.5,99.5,q),
(170,132,o),
(172.5,191.5,q),
(175,251,o),
(179.5,342,q),
(184,433,o),
(190.5,566,q),
(197,699,o),
(205.5,878,q),
(214,1057,o),
(225,1292,q)
);
}
);
width = 690;
}
);
unicode = 49;
},
{
category = Letter;
glyphname = two;
layers = (
{
layerId = "343d4ea0-2832-40ed-9abc-f55d5da1b22f";
name = Fore;
shapes = (
{
closed = 1;
nodes = (
(997,887,o),
(978,854,q),
(959,821,o),
(933,778.5,q),
(907,736,o),
(877,687,q),
(847,638,o),
(816.5,589.5,q),
(786,541,o),
(757.5,496,q),
(729,451,o),
(707.5,416.5,q),
(686,382,o),
(673,361.5,q),
(660,341,o),
(660,341,q),
(660,340,o),
(668,340,q),
(680,340,o),
(707.5,342.5,q),
(735,345,o),
(771,348,q),
(807,351,o),
(848.5,355.5,q),
(890,360,o),
(930.5,363,q),
(971,366,o),
(1006.5,368.5,q),
(1042,371,o),
(1066,371,q),
(1117,371,o),
(1117,349,q),
(1117,335,o),
(1109.5,321,q),
(1102,307,o),
(1102,305,q),
(958,36,l),
(956,36,o),
(955.5,31.5,q),
(955,27,o),
(953,27,q),
(933,7,o),
(916,5,q),
(899,3,o),
(887,1,q),
(802,0,o),
(737,-1,q),
(672,-2,o),
(619.5,-2.5,q),
(567,-3,o),
(524.5,-3.5,q),
(482,-4,o),
(441.5,-4.5,q),
(401,-5,o),
(360,-5,q),
(319,-5,o),
(270,-5,q),
(174,-5,o),
(136.5,10,q),
(99,25,o),
(99,54,q),
(99,74,o),
(112.5,99,q),
(126,124,o),
(147,156,q),
(211,247,o),
(277,340.5,q),
(343,434,o),
(403,520,q),
(463,606,o),
(513,679.5,q),
(563,753,o),
(596,804,q),
(622,846,o),
(634,882.5,q),
(646,919,o),
(646,951,q),
(646,991,o),
(629.5,1022,q),
(613,1053,o),
(583.5,1074.5,q),
(554,1096,o),
(515,1107,q),
(476,1118,o),
(431,1118,q),
(374,1118,o),
(315,1100.5,q),
(256,1083,o),
(199,1046,q),
(179,1033,o),
(167,1033,q),
(156,1033,o),
(152.5,1042,q),
(149,1051,o),
(149,1059,q),
(149,1098,o),
(159,1150,q),
(169,1202,o),
(181.5,1250,q),
(194,1298,o),
(204,1333,q),
(214,1368,o),
(214,1373,q),
(216,1373,o),
(241,1391.5,q),
(266,1410,o),
(319,1432.5,q),
(372,1455,o),
(456.5,1474,q),
(541,1493,o),
(663,1493,q),
(735,1493,o),
(807.5,1463.5,q),
(880,1434,o),
(937.5,1382,q),
(995,1330,o),
(1031,1259.5,q),
(1067,1189,o),
(1067,1108,q),
(1067,1059,o),
(1052,1008.5,q),
(1037,958,o),
(1005,904,q)
);
}
);
width = 1132;
}
);
unicode = 50;
},
{
category = Letter;
glyphname = three;
layers = (
{
layerId = "343d4ea0-2832-40ed-9abc-f55d5da1b22f";
name = Fore;
shapes = (
{
closed = 1;
nodes = (
(629,-50,o),
(609,-51,q),
(589,-52,o),
(570,-52,q),
(514,-52,o),
(464.5,-45,q),
(415,-38,o),
(367,-24.5,q),
(319,-11,o),
(269.5,8.5,q),
(220,28,o),
(163,52,q),
(150,55,o),
(143.5,64.5,q),
(137,74,o),
(134.5,86,q),
(132,98,o),
(131.5,110.5,q),
(131,123,o),
(130,132,q),
(128,145,o),
(124,177.5,q),
(120,210,o),
(115,246,q),
(110,282,o),
(105,314.5,q),
(100,347,o),
(97,359,q),
(96,361,o),
(96,367,q),
(96,381,o),
(106.5,389.5,q),
(117,398,o),
(128,398,q),
(133,398,o),
(137,396,q),
(172,374,o),
(209,350,q),
(246,326,o),
(288,306.5,q),
(330,287,o),
(378,274,q),
(426,261,o),
(485,261,q),
(560,261,o),
(598,292.5,q),
(636,324,o),
(636,400,q),
(636,424,o),
(631,453.5,q),
(626,483,o),
(610.5,508.5,q),
(595,534,o),
(565,551.5,q),
(535,569,o),
(486,569,q),
(306,569,l),
(306,574,o),
(309,597,q),
(312,620,o),
(316.5,652.5,q),
(321,685,o),
(326,721.5,q),
(331,758,o),
(335.5,789.5,q),
(340,821,o),
(343.5,843,q),
(347,865,o),
(348,867,q),
(354,899,o),
(360.5,910.5,q),
(367,922,o),
(373,922,q),
(391,915,o),
(410,913.5,q),
(429,912,o),
(448,912,q),
(517,912,o),
(556,949,q),
(595,986,o),
(595,1057,q),
(595,1081,o),
(588,1104,q),
(581,1127,o),
(565.5,1144.5,q),
(550,1162,o),
(526.5,1173,q),
(503,1184,o),
(470,1184,q),
(434,1184,o),
(396.5,1179.5,q),
(359,1175,o),
(322.5,1167.5,q),
(286,1160,o),
(252,1151,q),
(218,1142,o),
(190,1133,q),
(193,1151,o),
(193,1183,q),
(193,1197,o),
(192.5,1213,q),
(192,1229,o),
(192,1246,q),
(192,1277,o),
(194,1309,q),
(196,1341,o),
(203,1368,q),
(210,1395,o),
(223,1415,q),
(236,1435,o),
(259,1442,q),
(315,1460,o),
(355.5,1470,q),
(396,1480,o),
(431,1485,q),
(466,1490,o),
(501,1491.5,q),
(536,1493,o),
(581,1493,q),
(663,1493,o),
(747.5,1471,q),
(832,1449,o),
(900.5,1403,q),
(969,1357,o),
(1012.5,1286.5,q),
(1056,1216,o),
(1056,1119,q),
(1056,1056,o),
(1038.5,1004,q),
(1021,952,o),
(994,911,q),
(967,870,o),
(936,839.5,q),
(905,809,o),
(878,788,q),
(908,771,o),
(943,743.5,q),
(978,716,o),
(1007.5,672.5,q),
(1037,629,o),
(1056.5,569,q),
(1076,509,o),
(1076,428,q),
(1076,343,o),
(1043.5,261,q),
(1011,179,o),
(954,113,q),
(897,47,o),
(819,3.5,q),
(741,-40,o),
(650,-48,q)
);
}
);
width = 1109;
}
);
unicode = 51;
},
{
category = Letter;
glyphname = four;
layers = (
{
layerId = "343d4ea0-2832-40ed-9abc-f55d5da1b22f";
name = Fore;
shapes = (
{
closed = 1;
nodes = (
(1345,563,o),
(1341.5,548,q),
(1338,533,o),
(1334.5,513.5,q),
(1331,494,o),
(1326.5,471,q),
(1322,448,o),
(1318,426,q),
(1295,312,l),
(1292,297,o),
(1287,289.5,q),
(1282,282,o),
(1264.5,279,q),
(1247,276,o),
(1213,276,q),
(1179,276,o),
(1118,276,q),
(1100,93,l),
(1099,84,o),
(1096,75,q),
(1093,66,o),
(1083,62,q),
(1076,59,o),
(1050.5,49,q),
(1025,39,o),
(990,26,q),
(955,13,o),
(915,-1.5,q),
(875,-16,o),
(839,-28,q),
(803,-40,o),
(775,-48,q),
(747,-56,o),
(737,-56,q),
(723,-56,o),
(712.5,-48.5,q),
(702,-41,o),
(702,-20,q),
(702,28,o),
(706.5,101.5,q),
(711,175,o),
(719,272,q),
(634,271,o),
(551,270,q),
(468,269,o),
(396.5,268.5,q),
(325,268,o),
(271,268,q),
(217,268,o),
(190,268,q),
(102,268,o),
(63,274,q),
(24,280,o),
(24,302,q),
(24,314,o),
(34,330,q),
(43,345,o),
(67,385,q),
(91,425,o),
(124.5,480.5,q),
(158,536,o),
(197.5,601.5,q),
(237,667,o),
(277,733,q),
(485,1076,l),
(523,1139,o),
(552.5,1199.5,q),
(582,1260,o),
(617.5,1310,q),
(653,1360,o),
(702.5,1397,q),
(752,1434,o),
(832,1450,q),
(1148,1533,l),
(1163,1537,o),
(1175,1537,q),
(1186,1537,o),
(1192.5,1530.5,q),
(1199,1524,o),
(1199,1505,q),
(1199,1494,l),
(1195,1401,o),
(1191,1326,q),
(1187,1251,o),
(1183,1184,q),
(1179,1117,o),
(1174.5,1054.5,q),
(1170,992,o),
(1166,925,q),
(1162,858,o),
(1158,782.5,q),
(1154,707,o),
(1150,614,q),
(1217,616,o),
(1260.5,617,q),
(1304,618,o),
(1312,618,q),
(1324,616,o),
(1336,609.5,q),
(1348,603,o),
(1348,582,q),
(1348,574,o),
(1347,571,q)
);
},
{
closed = 1;
nodes = (
(759,670,o),
(768,746.5,q),
(777,823,o),
(783,902,q),
(789,981,o),
(793.5,1059,q),
(798,1137,o),
(801,1210,q),
(437,601,l),
(747,601,l)
);
}
);
width = 1352;
}
);
unicode = 52;
},
{
category = Letter;
glyphname = five;
layers = (
{
layerId = "343d4ea0-2832-40ed-9abc-f55d5da1b22f";
name = Fore;
shapes = (
{
closed = 1;
nodes = (
(144,282,o),
(151.5,288,q),
(159,294,o),
(171,294,q),
(177,294,l),
(216,288,o),
(249.5,286.5,q),
(283,285,o),
(329,285,q),
(380,285,o),
(428.5,292,q),
(477,299,o),
(515,319,q),
(553,339,o),
(576,376,q),
(599,413,o),
(599,472,q),
(599,541,o),
(572,580.5,q),
(545,620,o),
(502,639,q),
(459,658,o),
(407,662.5,q),
(355,667,o),
(304,667,q),
(284,667,o),
(268.5,666.5,q),
(253,666,o),
(240,666,q),
(209,666,o),
(197.5,671,q),
(186,676,o),
(186,695,q),
(186,702,o),
(187,711,q),
(188,720,o),
(190,732,q),
(193,822,o),
(204.5,912.5,q),
(216,1003,o),
(231,1093.5,q),
(246,1184,o),
(262.5,1274,q),
(279,1364,o),
(292,1454,q),
(482,1476,o),
(666,1496.5,q),
(850,1517,o),
(1042,1542,q),
(1055,1542,o),
(1055,1521,q),
(1055,1510,o),
(1052,1503,q),
(1051,1500,o),
(1046,1482.5,q),
(1041,1465,o),
(1034,1439,q),
(1027,1413,o),
(1018,1381,q),
(1009,1349,o),
(1000.5,1317.5,q),
(992,1286,o),
(984,1257.5,q),
(976,1229,o),
(970,1210,q),
(960,1177,o),
(936,1158,q),
(912,1139,o),
(879.5,1129,q),
(847,1119,o),
(809,1116,q),
(771,1113,o),
(732,1113,q),
(700,1113,o),
(666.5,1113.5,q),
(633,1114,o),
(603,1114,q),
(580,1114,o),
(563.5,1111,q),
(547,1108,o),
(536,1097,q),
(525,1086,o),
(520,1065,q),
(515,1044,o),
(515,1009,q),
(629,1003,o),
(727,973.5,q),
(825,944,o),
(898,886.5,q),
(971,829,o),
(1012.5,741.5,q),
(1054,654,o),
(1054,531,q),
(1054,417,o),
(1022,329.5,q),
(990,242,o),
(935.5,177,q),
(881,112,o),
(807.5,68,q),
(734,24,o),
(650.5,-2.5,q),
(567,-29,o),
(478,-40.5,q),
(389,-52,o),
(304,-52,q),
(241,-52,o),
(181.5,-45.5,q),
(122,-39,o),
(77,-15,q),
(72,-13,o),
(66.5,-7,q),
(61,-1,o),
(61,1,q),
(142,277,l)
);
}
);
width = 1079;
}
);
unicode = 53;
},
{
category = Letter;
glyphname = six;
layers = (
{
layerId = "343d4ea0-2832-40ed-9abc-f55d5da1b22f";
name = Fore;
shapes = (
{
closed = 1;
nodes = (
(525,-51,o),
(422.5,-5,q),
(320,41,o),
(251.5,120.5,q),
(183,200,o),
(149.5,306.5,q),
(116,413,o),
(116,533,q),
(116,627,o),
(140,713,q),
(164,799,o),
(204.5,879,q),
(245,959,o),
(298.5,1034.5,q),
(352,1110,o),
(409.5,1182.5,q),
(467,1255,o),
(526,1325,q),
(585,1395,o),
(637,1465,q),
(645,1475,o),
(653.5,1486.5,q),
(662,1498,o),
(672,1507.5,q),
(682,1517,o),
(693,1523.5,q),
(704,1530,o),
(718,1530,q),
(969,1530,l),
(994,1530,o),
(1012,1523,q),
(1030,1516,o),
(1030,1501,q),
(1030,1487,o),
(1014,1468,q),
(926,1365,o),
(853.5,1250.5,q),
(781,1136,o),
(718,1010,q),
(754,1020,o),
(787,1024,q),
(820,1028,o),
(857,1028,q),
(967,1028,o),
(1048.5,985,q),
(1130,942,o),
(1183.5,873.5,q),
(1237,805,o),
(1263.5,719.5,q),
(1290,634,o),
(1290,549,q),
(1290,414,o),
(1250,303.5,q),
(1210,193,o),
(1131,114.5,q),
(1052,36,o),
(934.5,-7.5,q),
(817,-51,o),
(663,-51,q)
);
},
{
closed = 1;
nodes = (
(571,450,o),
(576,412.5,q),
(581,375,o),
(595.5,341,q),
(610,307,o),
(634.5,283.5,q),
(659,260,o),
(698,260,q),
(736,260,o),
(763.5,276,q),
(791,292,o),
(810,318,q),
(829,344,o),
(840,377.5,q),
(851,411,o),
(857,446.5,q),
(863,482,o),
(864.5,517,q),
(866,552,o),
(866,580,q),
(866,614,o),
(863,650.5,q),
(860,687,o),
(847.5,716,q),
(835,745,o),
(810.5,764,q),
(786,783,o),
(743,783,q),
(686,783,o),
(652,752,q),
(618,721,o),
(600,675,q),
(582,629,o),
(576.5,576,q),
(571,523,o),
(571,479,q)
);
}
);
width = 1288;
}
);
unicode = 54;
},
{
category = Letter;
glyphname = seven;
layers = (
{
layerId = "343d4ea0-2832-40ed-9abc-f55d5da1b22f";
name = Fore;
shapes = (
{
closed = 1;
nodes = (
(915,762,l),
(871,651,o),
(827,539,q),
(783,427,o),
(744,328,q),
(705,229,o),
(674,151,q),
(643,73,o),
(626,31,q),
(611,-5,o),
(604,-24.5,q),
(597,-44,o),
(591.5,-53.5,q),
(586,-63,o),
(579.5,-66,q),
(573,-69,o),
(560,-72,q),
(522,-81,o),
(481,-89.5,q),
(440,-98,o),
(400,-105,q),
(360,-112,o),
(323,-118,q),
(286,-124,o),
(256,-128,q),
(253,-129,o),
(246,-129,q),
(229,-129,o),
(221,-119,q),
(213,-109,o),
(213,-94,q),
(213,-79,o),
(222,-59,q),
(232,-36,o),
(257,23,q),
(282,82,o),
(316,163.5,q),
(350,245,o),
(390,341,q),
(430,437,o),
(470,534,q),
(676,1034,l),
(473,1032,l),
(432,1032,o),
(388.5,1031.5,q),
(345,1031,o),
(304,1031,q),
(263,1031,o),
(226.5,1031,q),
(190,1031,o),
(163,1031,q),
(133,1031,o),
(117.5,1035,q),
(102,1039,o),
(102,1053,q),
(102,1066,o),
(108,1079,q),
(114,1092,o),
(114,1094,q),
(133,1137,o),
(152,1176.5,q),
(171,1216,o),
(189.5,1254,q),
(208,1292,o),
(226.5,1331,q),
(245,1370,o),
(264,1413,q),
(266,1415,o),
(266.5,1417.5,q),
(267,1420,o),
(269,1422,q),
(286,1441,o),
(302.5,1444.5,q),
(319,1448,o),
(332,1448,q),
(442,1449,o),
(526.5,1450,q),
(611,1451,o),
(679,1451.5,q),
(747,1452,o),
(802.5,1452.5,q),
(858,1453,o),
(910,1453.5,q),
(962,1454,o),
(1014.5,1454,q),
(1067,1454,o),
(1129,1454,q),
(1167,1454,o),
(1167,1422,q),
(1167,1406,o),
(1159,1382,q),
(1151,1358,o),
(1136,1323,q)
);
}
);
width = 1066;
}
);
unicode = 55;
},
{
category = Letter;
glyphname = eight;
layers = (
{
layerId = "343d4ea0-2832-40ed-9abc-f55d5da1b22f";
name = Fore;
shapes = (
{
closed = 1;
nodes = (
(565,-52,o),
(503.5,-41.5,q),
(442,-31,o),
(385,-9,q),
(328,13,o),
(278,47,q),
(228,81,o),
(191,128,q),
(154,175,o),
(133,235,q),
(112,295,o),
(112,370,q),
(112,442,o),
(130.5,499.5,q),
(149,557,o),
(181,606.5,q),
(213,656,o),
(255.5,700.5,q),
(298,745,o),
(345,790,q),
(270,842,o),
(236,912.5,q),
(202,983,o),
(202,1071,q),
(202,1145,o),
(224.5,1205,q),
(247,1265,o),
(287,1312,q),
(327,1359,o),
(381.5,1393,q),
(436,1427,o),
(499.5,1449.5,q),
(563,1472,o),
(633,1483,q),
(703,1494,o),
(775,1494,q),
(848,1494,o),
(922.5,1469.5,q),
(997,1445,o),
(1056.5,1398,q),
(1116,1351,o),
(1153.5,1283,q),
(1191,1215,o),
(1191,1128,q),
(1191,1079,o),
(1178.5,1035.5,q),
(1166,992,o),
(1146,953.5,q),
(1126,915,o),
(1100,882.5,q),
(1074,850,o),
(1047,822,q),
(1089,792,o),
(1126.5,755,q),
(1164,718,o),
(1191.5,670.5,q),
(1219,623,o),
(1235,563,q),
(1251,503,o),
(1251,427,q),
(1251,347,o),
(1224,280.5,q),
(1197,214,o),
(1151,161,q),
(1105,108,o),
(1043,68,q),
(981,28,o),
(912,1.5,q),
(843,-25,o),
(769.5,-38.5,q),
(696,-52,o),
(626,-52,q)
);
},
{
closed = 1;
nodes = (
(562,359,o),
(567,314,q),
(572,269,o),
(587.5,229.5,q),
(603,190,o),
(631,163.5,q),
(659,137,o),
(705,137,q),
(732,137,o),
(751.5,153.5,q),
(771,170,o),
(785,196,q),
(799,222,o),
(808,254.5,q),
(817,287,o),
(822,319,q),
(827,351,o),
(829,379,q),
(831,407,o),
(831,424,q),
(831,458,o),
(823,500,q),
(815,542,o),
(798,579,q),
(781,616,o),
(754,641,q),
(727,666,o),
(690,666,q),
(661,666,o),
(640.5,652,q),
(620,638,o),
(606,615.5,q),
(592,593,o),
(583.5,564,q),
(575,535,o),
(570,505,q),
(565,475,o),
(563.5,446.5,q),
(562,418,o),
(562,396,q)
);
},
{
closed = 1;
nodes = (
(577,1065,o),
(584.5,1031,q),
(592,997,o),
(608.5,967.5,q),
(625,938,o),
(650.5,918.5,q),
(676,899,o),
(713,899,q),
(749,899,o),
(770,923.5,q),
(791,948,o),
(801,982.5,q),
(811,1017,o),
(813.5,1054,q),
(816,1091,o),
(816,1115,q),
(816,1143,o),
(810,1173.5,q),
(804,1204,o),
(790.5,1229.5,q),
(777,1255,o),
(754,1272,q),
(731,1289,o),
(697,1289,q),
(662,1289,o),
(638.5,1269.5,q),
(615,1250,o),
(601.5,1220.5,q),
(588,1191,o),
(582.5,1157,q),
(577,1123,o),
(577,1094,q)
);
}
);
width = 1280;
}
);
unicode = 56;
},
{
category = Letter;
glyphname = nine;
layers = (
{
layerId = "343d4ea0-2832-40ed-9abc-f55d5da1b22f";
name = Fore;
shapes = (
{
closed = 1;
nodes = (
(588,-13,o),
(588,3,q),
(588,14,o),
(598,27,q),
(628,69,o),
(655,118,q),
(682,167,o),
(704.5,219,q),
(727,271,o),
(745.5,322,q),
(764,373,o),
(777,418,q),
(726,403,o),
(672,394,q),
(618,385,o),
(566,385,q),
(469,385,o),
(385.5,425.5,q),
(302,466,o),
(240.5,533.5,q),
(179,601,o),
(144,689.5,q),
(109,778,o),
(109,873,q),
(109,969,o),
(137.5,1052.5,q),
(166,1136,o),
(216.5,1204.5,q),
(267,1273,o),
(335.5,1327,q),
(404,1381,o),
(483,1417.5,q),
(562,1454,o),
(648,1473.5,q),
(734,1493,o),
(821,1493,q),
(938,1493,o),
(1032.5,1440.5,q),
(1127,1388,o),
(1194,1304,q),
(1261,1220,o),
(1297.5,1115,q),
(1334,1010,o),
(1334,905,q),
(1334,806,o),
(1311,713,q),
(1288,620,o),
(1249,531.5,q),
(1210,443,o),
(1159,360,q),
(1108,277,o),
(1051,199,q),
(994,121,o),
(935.5,48.5,q),
(877,-24,o),
(823,-92,q),
(820,-95,o),
(815.5,-98,q),
(811,-101,o),
(804,-101,q),
(797,-101,o),
(790,-97,q),
(764,-83,o),
(743,-72,q),
(722,-61,o),
(702,-52,q),
(682,-43,o),
(661,-35,q),
(640,-27,o),
(615,-20,q)
);
},
{
closed = 1;
nodes = (
(547,894,o),
(559,845.5,q),
(571,797,o),
(596.5,760,q),
(622,723,o),
(663,700.5,q),
(704,678,o),
(762,678,q),
(784,678,o),
(800,681.5,q),
(816,685,o),
(842,694,q),
(853,739,o),
(860,771,q),
(867,803,o),
(870.5,831,q),
(874,859,o),
(875.5,887.5,q),
(877,916,o),
(877,953,q),
(877,975,o),
(875.5,1004.5,q),
(874,1034,o),
(869,1065,q),
(864,1096,o),
(855,1126,q),
(846,1156,o),
(830.5,1179,q),
(815,1202,o),
(792.5,1216.5,q),
(770,1231,o),
(738,1231,q),
(682,1231,o),
(645,1203.5,q),
(608,1176,o),
(586,1134,q),
(564,1092,o),
(555.5,1041.5,q),
(547,991,o),
(547,946,q)
);
}
);
width = 1326;
}
);
unicode = 57;
},
{
category = Letter;
glyphname = colon;
layers = (
{
layerId = "343d4ea0-2832-40ed-9abc-f55d5da1b22f";
name = Fore;
shapes = (
{
closed = 1;
nodes = (
(181,774,o),
(182,801.5,q),
(183,829,o),
(183.5,844,q),
(184,859,o),
(184,865,q),
(184,871,o),
(184,876.5,q),
(184,882,o),
(184.5,890,q),
(185,898,o),
(186,916.5,q),
(187,935,o),
(189,967.5,q),
(191,1000,o),
(194,1054,q),
(196,1087,o),
(200.5,1099.5,q),
(205,1112,o),
(223,1115,q),
(311,1115,o),
(407,1115.5,q),
(503,1116,o),
(588,1117,q),
(597,1117,o),
(603,1112,q),
(609,1107,o),
(609,1093,q),
(581,779,l),
(577,746,o),
(573.5,733.5,q),
(570,721,o),
(551,719,q),
(466,718,o),
(376.5,717,q),
(287,716,o),
(190,716,q),
(184,716,o),
(181.5,717,q),
(179,718,o),
(179,723,q),
(179,727,l)
);
},
{
closed = 1;
nodes = (
(161,9,o),
(162,36.5,q),
(163,64,o),
(163.5,79,q),
(164,94,o),
(164,100,q),
(164,106,o),
(164,111.5,q),
(164,117,o),
(164.5,125,q),
(165,133,o),
(166,151.5,q),
(167,170,o),
(169,202.5,q),
(171,235,o),
(174,289,q),
(176,322,o),
(180.5,334.5,q),
(185,347,o),
(203,350,q),
(291,350,o),
(387,350.5,q),
(483,351,o),
(568,352,q),
(577,352,o),
(583,347,q),
(589,342,o),
(589,328,q),
(561,14,l),
(557,-19,o),
(553.5,-31.5,q),
(550,-44,o),
(531,-46,q),
(446,-47,o),
(356.5,-48,q),
(267,-49,o),
(170,-49,q),
(164,-49,o),
(161.5,-48,q),
(159,-47,o),
(159,-42,q),
(159,-38,l)
);
}
);
width = 668;
}
);
unicode = 58;
},
{
category = Letter;
glyphname = less;
layers = (
{
layerId = "343d4ea0-2832-40ed-9abc-f55d5da1b22f";
name = Fore;
shapes = (
{
closed = 1;
nodes = (
(1036,319,o),
(1036,313,q),
(1036,307,o),
(1034,301,q),
(992,226,o),
(964.5,147,q),
(937,68,o),
(909,-10,q),
(902,-29,o),
(884,-29,q),
(876,-29,o),
(868,-26,q),
(860,-23,o),
(846,-17,q),
(190,365,l),
(158,381,o),
(147,391,q),
(136,401,o),
(136,421,q),
(133,497,o),
(129,575,q),
(125,653,o),
(116,737,q),
(116,739,o),
(115.5,740,q),
(115,741,o),
(115,742,q),
(116,749,l),
(117,754,o),
(121,757.5,q),
(125,761,o),
(128,761,q),
(161,777,o),
(213.5,798.5,q),
(266,820,o),
(331,845.5,q),
(396,871,o),
(470.5,898.5,q),
(545,926,o),
(622.5,955,q),
(700,984,o),
(777,1012.5,q),
(854,1041,o),
(924,1068,q),
(955,1077,o),
(969,1077,q),
(982,1077,o),
(985,1061,q),
(991,984,o),
(998.5,899.5,q),
(1006,815,o),
(1024,740,q),
(1024,718,o),
(1012,717,q),
(572,555,l),
(583,549,o),
(616.5,532,q),
(650,515,o),
(695,492.5,q),
(740,470,o),
(791,444,q),
(842,418,o),
(889,394.5,q),
(936,371,o),
(973.5,352,q),
(1011,333,o),
(1028,324,q)
);
}
);
width = 1076;
}
);
unicode = 60;
},
{
category = Letter;
glyphname = equal;
layers = (
{
layerId = "343d4ea0-2832-40ed-9abc-f55d5da1b22f";
name = Fore;
shapes = (
{
closed = 1;
nodes = (
(641,887,o),
(704.5,888.5,q),
(768,890,o),
(820,891.5,q),
(872,893,o),
(909,894.5,q),
(946,896,o),
(962,896,q),
(970,896,o),
(980,890,q),
(990,884,o),
(990,867,q),
(991,860,o),
(981.5,830,q),
(972,800,o),
(957,749,q),
(933,670,l),
(926,653,o),
(916.5,644.5,q),
(907,636,o),
(878,636,q),
(788,634,o),
(698,632.5,q),
(608,631,o),
(528.5,629.5,q),
(449,628,o),
(385,627,q),
(321,626,o),
(283,626,q),
(223,626,o),
(193.5,631.5,q),
(164,637,o),
(164,654,q),
(164,661,o),
(169.5,684,q),
(175,707,o),
(183,736,q),
(191,765,o),
(201,795.5,q),
(211,826,o),
(220,849,q),
(231,859,o),
(240,870,q),
(249,881,o),
(271,882,q),
(573,887,l)
);
},
{
closed = 1;
nodes = (
(641,418,o),
(704.5,419.5,q),
(768,421,o),
(820,422.5,q),
(872,424,o),
(909,425.5,q),
(946,427,o),
(962,427,q),
(970,427,o),
(980,421,q),
(990,415,o),
(990,398,q),
(991,391,o),
(981.5,361,q),
(972,331,o),
(957,280,q),
(933,201,l),
(926,184,o),
(916.5,175.5,q),
(907,167,o),
(878,167,q),
(788,165,o),
(698,163.5,q),
(608,162,o),
(528.5,160.5,q),
(449,159,o),
(385,158,q),
(321,157,o),
(283,157,q),
(223,157,o),
(193.5,162.5,q),
(164,168,o),
(164,185,q),
(164,192,o),
(169.5,215,q),
(175,238,o),
(183,267,q),
(191,296,o),
(201,326.5,q),
(211,357,o),
(220,380,q),
(231,389,o),
(240,400.5,q),
(249,412,o),
(271,413,q),
(573,418,l)
);
}
);
width = 1062;
}
);
unicode = 61;
},
{
category = Letter;
glyphname = greater;
layers = (
{
layerId = "343d4ea0-2832-40ed-9abc-f55d5da1b22f";
name = Fore;
shapes = (
{
closed = 1;
nodes = (
(157,333,o),
(194.5,352,q),
(232,371,o),
(279,394.5,q),
(326,418,o),
(377,444,q),
(428,470,o),
(473,492.5,q),
(518,515,o),
(551.5,532,q),
(585,549,o),
(596,555,q),
(156,717,l),
(144,718,o),
(144,740,q),
(162,815,o),
(169.5,899.5,q),
(177,984,o),
(183,1061,q),
(186,1077,o),
(199,1077,q),
(212,1077,o),
(244,1068,q),
(314,1041,o),
(391,1012.5,q),
(468,984,o),
(545.5,955,q),
(623,926,o),
(697.5,898.5,q),
(772,871,o),
(837,845.5,q),
(902,820,o),
(954.5,798.5,q),
(1007,777,o),
(1040,761,q),
(1043,761,o),
(1047,757.5,q),
(1051,754,o),
(1052,749,q),
(1053,742,l),
(1053,741,o),
(1052.5,740,q),
(1052,739,o),
(1052,737,q),
(1043,653,o),
(1039,575,q),
(1035,497,o),
(1032,421,q),
(1032,401,o),
(1021,391,q),
(1010,381,o),
(978,365,q),
(322,-17,l),
(308,-23,o),
(300,-26,q),
(292,-29,o),
(284,-29,q),
(273,-29,o),
(268,-24.5,q),
(263,-20,o),
(259,-10,q),
(230,68,o),
(201.5,147,q),
(173,226,o),
(134,301,q),
(132,307,o),
(132,313,q),
(132,317,o),
(133.5,319.5,q),
(135,322,o),
(140,324,q)
);
}
);
width = 1051;
}
);
unicode = 62;
},
{
category = Letter;
glyphname = question;
layers = (
{
layerId = "343d4ea0-2832-40ed-9abc-f55d5da1b22f";
name = Fore;
shapes = (
{
closed = 1;
nodes = (
(502,636,o),
(564.5,691.5,q),
(627,747,o),
(674,809.5,q),
(721,872,o),
(748.5,934.5,q),
(776,997,o),
(776,1049,q),
(776,1105,o),
(745,1140,q),
(714,1175,o),
(643,1175,q),
(603,1175,o),
(577,1165.5,q),
(551,1156,o),
(535.5,1141,q),
(520,1126,o),
(514,1108,q),
(508,1090,o),
(508,1073,q),
(508,1050,o),
(515,1031,q),
(522,1012,o),
(522,1006,q),
(522,998,o),
(508,995,q),
(494,992,o),
(462.5,987,q),
(431,982,o),
(379,972.5,q),
(327,963,o),
(251,942,q),
(222,934,o),
(206,931,q),
(190,928,o),
(181,928,q),
(170,928,o),
(162.5,943,q),
(155,958,o),
(151,978.5,q),
(147,999,o),
(145.5,1021,q),
(144,1043,o),
(144,1057,q),
(144,1149,o),
(189.5,1221.5,q),
(235,1294,o),
(308,1344,q),
(381,1394,o),
(472.5,1420.5,q),
(564,1447,o),
(656,1447,q),
(775,1447,o),
(871.5,1410.5,q),
(968,1374,o),
(1036.5,1316.5,q),
(1105,1259,o),
(1142,1187.5,q),
(1179,1116,o),
(1179,1047,q),
(1179,990,o),
(1159.5,934.5,q),
(1140,879,o),
(1106.5,826,q),
(1073,773,o),
(1028.5,723,q),
(984,673,o),
(935,627,q),
(886,581,o),
(835.5,539,q),
(785,497,o),
(738,460,q),
(736,457,o),
(730.5,454,q),
(725,451,o),
(719,451,q),
(716,451,o),
(711.5,452,q),
(707,453,o),
(705,455,q),
(667,473,o),
(636.5,487,q),
(606,501,o),
(577,513,q),
(548,525,o),
(517.5,534.5,q),
(487,544,o),
(450,552,q),
(436,555,o),
(429.5,561.5,q),
(423,568,o),
(423,575,q),
(431,580,o),
(432,587.5,q),
(433,595,o),
(433,599,q)
);
},
{
closed = 1;
nodes = (
(439,9,o),
(440,36.5,q),
(441,64,o),
(441.5,79,q),
(442,94,o),
(442,100,q),
(442,106,o),
(442,111.5,q),
(442,117,o),
(442.5,125,q),
(443,133,o),
(444,151.5,q),
(445,170,o),
(447,202.5,q),
(449,235,o),
(452,289,q),
(454,322,o),
(458.5,334.5,q),
(463,347,o),
(481,350,q),
(569,350,o),
(665,350.5,q),
(761,351,o),
(846,352,q),
(857,352,o),
(862,345.5,q),
(867,339,o),
(867,322,q),
(839,14,l),
(835,-19,o),
(831.5,-31.5,q),
(828,-44,o),
(809,-46,q),
(724,-47,o),
(634.5,-48,q),
(545,-49,o),
(448,-49,q),
(440,-49,o),
(438.5,-47.5,q),
(437,-46,o),
(437,-38,q)
);
}
);
width = 1166;
}
);
unicode = 63;
},
{
category = Letter;
glyphname = at;
layers = (
{
layerId = "343d4ea0-2832-40ed-9abc-f55d5da1b22f";
name = Fore;
shapes = (
{
closed = 1;
nodes = (
(1058,558,o),
(1065.5,608.5,q),
(1073,659,o),
(1077.5,694,q),
(1082,729,o),
(1084.5,752,q),
(1087,775,o),
(1088,791,q),
(1073,805,o),
(1049,820.5,q),
(1025,836,o),
(997,836,q),
(970,836,o),
(950.5,822.5,q),
(931,809,o),
(917,788,q),
(903,767,o),
(894,741,q),
(885,715,o),
(879.5,689.5,q),
(874,664,o),
(872,641.5,q),
(870,619,o),
(870,605,q),
(870,523,o),
(893,485.5,q),
(916,448,o),
(958,448,q),
(976,448,o),
(999,458.5,q),
(1022,469,o),
(1047,486,q)
);
},
{
closed = 1;
nodes = (
(1031,293,o),
(981,267.5,q),
(931,242,o),
(882,242,q),
(822,242,o),
(767,266,q),
(712,290,o),
(669,334.5,q),
(626,379,o),
(600.5,442.5,q),
(575,506,o),
(575,585,q),
(575,685,o),
(608,768.5,q),
(641,852,o),
(696.5,911.5,q),
(752,971,o),
(823.5,1004,q),
(895,1037,o),
(972,1037,q),
(1017,1037,o),
(1055,1018.5,q),
(1093,1000,o),
(1125,971,q),
(1129,990,o),
(1130.5,1001,q),
(1132,1012,o),
(1134.5,1018,q),
(1137,1024,o),
(1143.5,1026,q),
(1150,1028,o),
(1164,1029,q),
(1216,1021,o),
(1269,1020,q),
(1322,1019,o),
(1382,1019,q),
(1316,537,l),
(1315,532,o),
(1315,525,q),
(1315,518,o),
(1315,511,q),
(1315,484,o),
(1320.5,461,q),
(1326,438,o),
(1335.5,420.5,q),
(1345,403,o),
(1358,393.5,q),
(1371,384,o),
(1385,384,q),
(1405,384,o),
(1428.5,401.5,q),
(1452,419,o),
(1472.5,460.5,q),
(1493,502,o),
(1506.5,569.5,q),
(1520,637,o),
(1520,738,q),
(1520,825,o),
(1490.5,905.5,q),
(1461,986,o),
(1400.5,1047,q),
(1340,1108,o),
(1246.5,1144.5,q),
(1153,1181,o),
(1026,1181,q),
(920,1181,o),
(836,1150,q),
(752,1119,o),
(688.5,1068,q),
(625,1017,o),
(580.5,951.5,q),
(536,886,o),
(508,818,q),
(480,750,o),
(467,685,q),
(454,620,o),
(454,569,q),
(454,446,o),
(493,359,q),
(532,272,o),
(609,216.5,q),
(686,161,o),
(800.5,135.5,q),
(915,110,o),
(1066,110,q),
(1083,110,o),
(1092.5,101.5,q),
(1102,93,o),
(1102,64,q),
(1102,46,o),
(1097.5,20,q),
(1093,-6,o),
(1085,-44,q),
(1076,-89,o),
(1068.5,-115.5,q),
(1061,-142,o),
(1052.5,-155.5,q),
(1044,-169,o),
(1033.5,-172.5,q),
(1023,-176,o),
(1008,-176,q),
(802,-176,o),
(637.5,-135,q),
(473,-94,o),
(358.5,-10,q),
(244,74,o),
(182.5,201,q),
(121,328,o),
(121,499,q),
(121,645,o),
(157.5,774.5,q),
(194,904,o),
(259.5,1012.5,q),
(325,1121,o),
(416.5,1207.5,q),
(508,1294,o),
(618.5,1354,q),
(729,1414,o),
(855,1446,q),
(981,1478,o),
(1115,1478,q),
(1275,1478,o),
(1400.5,1418.5,q),
(1526,1359,o),
(1612.5,1258,q),
(1699,1157,o),
(1744,1022,q),
(1789,887,o),
(1789,737,q),
(1789,632,o),
(1755.5,532.5,q),
(1722,433,o),
(1665,355.5,q),
(1608,278,o),
(1533.5,231,q),
(1459,184,o),
(1377,184,q),
(1292,184,o),
(1217.5,222,q),
(1143,260,o),
(1079,348,q)
);
}
);
width = 1780;
}
);
unicode = 64;
},
{
category = Letter;
glyphname = A;
kernLeft = A.2;
kernRight = A;
layers = (
{
layerId = "343d4ea0-2832-40ed-9abc-f55d5da1b22f";
name = Fore;
shapes = (
{
closed = 1;
nodes = (
(80,99,o),
(94,131.5,q),
(108,164,o),
(120,202,q),
(147,268,l),
(129,295,o),
(110.5,326.5,q),
(92,358,o),
(77,391,q),
(62,424,o),
(52.5,457,q),
(43,490,o),
(43,521,q),
(43,523,o),
(58.5,524.5,q),
(74,526,o),
(97.5,527,q),
(121,528,o),
(148.5,528.5,q),
(176,529,o),
(199.5,529.5,q),
(223,530,o),
(238.5,530.5,q),
(254,531,o),
(254,531,q),
(277,591,o),
(299,645,q),
(321,699,o),
(343,754,q),
(365,809,o),
(387,866.5,q),
(409,924,o),
(431,990,q),
(473,1114,o),
(513,1208,q),
(553,1302,o),
(588,1383,q),
(592,1393,o),
(601.5,1401.5,q),
(611,1410,o),
(622,1416,q),
(633,1422,o),
(643.5,1426,q),
(654,1430,o),
(660,1432,q),
(664,1433,o),
(690.5,1441,q),
(717,1449,o),
(751,1458,q),
(785,1467,o),
(818.5,1474,q),
(852,1481,o),
(872,1481,q),
(890,1481,l),
(906,1481,o),
(920.5,1473.5,q),
(935,1466,o),
(940,1444,q),
(988,1321,o),
(1042.5,1175.5,q),
(1097,1030,o),
(1149,855,q),
(1177,761,o),
(1204,677,q),
(1231,593,o),
(1258,513,q),
(1285,433,o),
(1312.5,353,q),
(1340,273,o),
(1369,188,q),
(1378,152,o),
(1387.5,131,q),
(1397,110,o),
(1405,98,q),
(1413,86,o),
(1418,80.5,q),
(1423,75,o),
(1423,69,q),
(1423,63,o),
(1404,57,q),
(1189,-13,l),
(1165,-22,o),
(1140,-31,q),
(1115,-40,o),
(1093,-47,q),
(1071,-54,o),
(1054.5,-58.5,q),
(1038,-63,o),
(1031,-63,q),
(1025,-63,l),
(1011,-63,o),
(1005,-54.5,q),
(999,-46,o),
(997,-38,q),
(987,-5,o),
(977,21.5,q),
(967,48,o),
(957.5,74.5,q),
(948,101,o),
(938.5,131,q),
(929,161,o),
(920,202,q),
(918,207,o),
(909,210.5,q),
(900,214,o),
(887.5,216,q),
(875,218,o),
(861,218.5,q),
(847,219,o),
(835,219,q),
(797,219,o),
(773.5,218.5,q),
(750,218,o),
(732,217.5,q),
(714,217,o),
(697.5,216.5,q),
(681,216,o),
(657,216,q),
(628,216,o),
(597.5,216.5,q),
(567,217,o),
(542,218,q),
(485,220,l),
(459,148,o),
(433,85,q),
(407,22,o),
(377,-45,q),
(375,-53,o),
(367.5,-58,q),
(360,-63,o),
(352,-63,q),
(346,-63,o),
(345,-62,q),
(248,-27,o),
(182,7,q),
(116,41,o),
(67,73,q)
);
},
{
closed = 1;
nodes = (
(717,883,o),
(693.5,810.5,q),
(670,738,o),
(650.5,682,q),
(631,626,o),
(617,587.5,q),
(603,549,o),
(597,528,q),
(597,519,l),
(597,513,o),
(596,511,q),
(836,511,l),
(825,560,o),
(812.5,610,q),
(800,660,o),
(788,715,q),
(776,770,o),
(764,833,q),
(752,896,o),
(741,972,q)
);
}
);
width = 1386;
}
);
unicode = 65;
},
{
category = Letter;
glyphname = B;
layers = (
{
layerId = "343d4ea0-2832-40ed-9abc-f55d5da1b22f";
name = Fore;
shapes = (
{
closed = 1;
nodes = (
(233,18,o),
(226,28.5,q),
(219,39,o),
(219,52,q),
(219,55,o),
(219.5,56,q),
(220,57,o),
(220,60,q),
(228,168,o),
(237.5,286.5,q),
(247,405,o),
(258,527.5,q),
(269,650,o),
(280,772,q),
(291,894,o),
(302,1009,q),
(301,1009,l),
(297,1009,o),
(278.5,1002.5,q),
(260,996,o),
(236.5,988.5,q),
(213,981,o),
(189,975,q),
(165,969,o),
(150,969,q),
(137,969,o),
(131.5,979,q),
(126,989,o),
(126,1001,q),
(126,1010,o),
(129,1018,q),
(156,1096,o),
(185,1164,q),
(214,1232,o),
(243,1304,q),
(319,1345,o),
(401,1375.5,q),
(483,1406,o),
(566.5,1426.5,q),
(650,1447,o),
(733,1457.5,q),
(816,1468,o),
(894,1468,q),
(1003,1468,o),
(1099.5,1445,q),
(1196,1422,o),
(1267.5,1375.5,q),
(1339,1329,o),
(1380.5,1258.5,q),
(1422,1188,o),
(1422,1093,q),
(1422,1052,o),
(1404,1014,q),
(1386,976,o),
(1357.5,941.5,q),
(1329,907,o),
(1294,877.5,q),
(1259,848,o),
(1225,824,q),
(1273,789,o),
(1311.5,760.5,q),
(1350,732,o),
(1377,701,q),
(1404,670,o),
(1418,631.5,q),
(1432,593,o),
(1432,538,q),
(1432,454,o),
(1402.5,377.5,q),
(1373,301,o),
(1321.5,235.5,q),
(1270,170,o),
(1199.5,117,q),
(1129,64,o),
(1046.5,26.5,q),
(964,-11,o),
(872.5,-31.5,q),
(781,-52,o),
(688,-52,q),
(654,-52,o),
(597,-45,q),
(540,-38,o),
(477.5,-28.5,q),
(415,-19,o),
(354.5,-7.5,q),
(294,4,o),
(253,13,q)
);
},
{
closed = 1;
nodes = (
(695,992,o),
(682,870.5,q),
(669,749,o),
(659.5,634.5,q),
(650,520,o),
(643,417,q),
(636,314,o),
(629,233,q),
(669,233,o),
(715.5,237.5,q),
(762,242,o),
(808,253,q),
(854,264,o),
(897.5,281.5,q),
(941,299,o),
(974,325,q),
(1007,351,o),
(1027,386.5,q),
(1047,422,o),
(1047,468,q),
(1047,496,o),
(1030,517.5,q),
(1013,539,o),
(986.5,554.5,q),
(960,570,o),
(928,580.5,q),
(896,591,o),
(865.5,597.5,q),
(835,604,o),
(809.5,607.5,q),
(784,611,o),
(771,613,q),
(757,615,o),
(753,623,q),
(749,631,o),
(749,643,q),
(749,656,o),
(765,682,q),
(781,708,o),
(809,753,q),
(851,820,l),
(878,830,o),
(909.5,845,q),
(941,860,o),
(968,879.5,q),
(995,899,o),
(1013,923.5,q),
(1031,948,o),
(1031,977,q),
(1031,1059,o),
(995.5,1102.5,q),
(960,1146,o),
(893,1146,q),
(817,1146,o),
(714,1110,q)
);
}
);
width = 1431;
}
);
unicode = 66;
},
{
category = Letter;
glyphname = C;
kernLeft = C.2;
kernRight = C;
layers = (
{
layerId = "343d4ea0-2832-40ed-9abc-f55d5da1b22f";
name = Fore;
shapes = (
{
closed = 1;
nodes = (
(126,786,o),
(152.5,887.5,q),
(179,989,o),
(228,1077,q),
(277,1165,o),
(346.5,1237,q),
(416,1309,o),
(502,1360.5,q),
(588,1412,o),
(688.5,1440,q),
(789,1468,o),
(900,1468,q),
(988,1468,o),
(1054.5,1456.5,q),
(1121,1445,o),
(1170.5,1427.5,q),
(1220,1410,o),
(1253.5,1389,q),
(1287,1368,o),
(1309,1349,q),
(1308,1349,o),
(1308,1342,q),
(1308,1327,o),
(1310.5,1287,q),
(1313,1247,o),
(1316.5,1198,q),
(1320,1149,o),
(1322.5,1098.5,q),
(1325,1048,o),
(1325,1011,q),
(1325,1005,o),
(1321,997.5,q),
(1317,990,o),
(1301,990,q),
(1292,990,o),
(1279,993,q),
(1258,999,o),
(1226,1020.5,q),
(1194,1042,o),
(1151.5,1065.5,q),
(1109,1089,o),
(1056.5,1107.5,q),
(1004,1126,o),
(942,1126,q),
(860,1126,o),
(793,1093.5,q),
(726,1061,o),
(679,1004,q),
(632,947,o),
(606,868.5,q),
(580,790,o),
(580,697,q),
(580,615,o),
(598,540.5,q),
(616,466,o),
(652.5,410,q),
(689,354,o),
(743.5,320.5,q),
(798,287,o),
(870,287,q),
(927,287,o),
(971,291,q),
(1015,295,o),
(1053,304,q),
(1091,313,o),
(1127.5,328,q),
(1164,343,o),
(1206,366,q),
(1208,367,o),
(1216,367,q),
(1223,367,o),
(1225.5,361.5,q),
(1228,356,o),
(1228,339,q),
(1228,219,l),
(1228,186,o),
(1227.5,154.5,q),
(1227,123,o),
(1226.5,98,q),
(1226,73,o),
(1225.5,57.5,q),
(1225,42,o),
(1224,42,q),
(1178,13,o),
(1125.5,-5.5,q),
(1073,-24,o),
(1017.5,-34.5,q),
(962,-45,o),
(906,-48.5,q),
(850,-52,o),
(798,-52,q),
(657,-52,o),
(534,1.5,q),
(411,55,o),
(320.5,151,q),
(230,247,o),
(178,381,q),
(126,515,o),
(126,676,q)
);
}
);
width = 1294;
}
);
unicode = 67;
},
{
category = Letter;
glyphname = D;
kernLeft = D.2;
kernRight = D;
layers = (
{
layerId = "343d4ea0-2832-40ed-9abc-f55d5da1b22f";
name = Fore;
shapes = (
{
closed = 1;
nodes = (
(160,-50,o),
(155,-41,q),
(150,-32,o),
(150,-21,q),
(150,-12,o),
(154,-5,q),
(277,230,l),
(278,234,o),
(280.5,261,q),
(283,288,o),
(286,328.5,q),
(289,369,o),
(292.5,419,q),
(296,469,o),
(300,518,q),
(304,567,o),
(307.5,611.5,q),
(311,656,o),
(314,686,q),
(315,698,o),
(317,722.5,q),
(319,747,o),
(321,779,q),
(323,811,o),
(326,848,q),
(329,885,o),
(332,922,q),
(346,1131,l),
(319,1125,o),
(290,1118.5,q),
(261,1112,o),
(233.5,1107,q),
(206,1102,o),
(181.5,1098.5,q),
(157,1095,o),
(139,1095,q),
(128,1095,o),
(122.5,1105,q),
(117,1115,o),
(117,1126,q),
(117,1139,o),
(123,1145,q),
(377,1382,l),
(408,1410,o),
(438.5,1427.5,q),
(469,1445,o),
(512,1455,q),
(555,1465,o),
(617.5,1468.5,q),
(680,1472,o),
(776,1472,q),
(940,1472,o),
(1067,1438,q),
(1194,1404,o),
(1282,1341,q),
(1347,1296,o),
(1398,1247,q),
(1449,1198,o),
(1484,1138.5,q),
(1519,1079,o),
(1537,1007.5,q),
(1555,936,o),
(1555,846,q),
(1555,675,o),
(1504,542,q),
(1453,409,o),
(1365,309.5,q),
(1277,210,o),
(1159.5,141,q),
(1042,72,o),
(908.5,29,q),
(775,-14,o),
(632.5,-33,q),
(490,-52,o),
(353,-52,q),
(171,-52,l)
);
},
{
closed = 1;
nodes = (
(740,1031,l),
(734,968,o),
(727.5,896.5,q),
(721,825,o),
(715,751.5,q),
(709,678,o),
(703,606.5,q),
(697,535,o),
(692,473,q),
(687,411,o),
(683,362,q),
(679,313,o),
(676,284,q),
(673,254,l),
(794,254,o),
(877.5,293,q),
(961,332,o),
(1013,400.5,q),
(1065,469,o),
(1088.5,561,q),
(1112,653,o),
(1112,759,q),
(1112,835,o),
(1091,905.5,q),
(1070,976,o),
(1030,1040,q),
(990,1104,o),
(932,1136,q),
(874,1168,o),
(801,1168,q),
(789,1168,o),
(775,1162.5,q),
(761,1157,o),
(752,1152,q)
);
}
);
width = 1544;
}
);
unicode = 68;
},
{
category = Letter;
glyphname = E;
kernLeft = E.2;
kernRight = E;
layers = (
{
layerId = "343d4ea0-2832-40ed-9abc-f55d5da1b22f";
name = Fore;
shapes = (
{
closed = 1;
nodes = (
(1019,816,o),
(1008,790.5,q),
(997,765,o),
(982.5,733,q),
(968,701,o),
(951.5,664.5,q),
(935,628,o),
(919,591,q),
(913,577,o),
(908,570.5,q),
(903,564,o),
(892,561,q),
(881,558,o),
(861.5,557.5,q),
(842,557,o),
(807,556,q),
(668,553,l),
(640,247,l),
(1153,247,l),
(1153,208,l),
(1151,206,o),
(1136,181.5,q),
(1121,157,o),
(1101,123,q),
(1081,89,o),
(1059,54.5,q),
(1037,20,o),
(1022,-1,q),
(1012,-19,o),
(999,-29.5,q),
(986,-40,o),
(970.5,-45,q),
(955,-50,o),
(936.5,-51,q),
(918,-52,o),
(896,-52,q),
(806,-52,o),
(708.5,-48,q),
(611,-44,o),
(514,-38,q),
(417,-32,o),
(324.5,-24.5,q),
(232,-17,o),
(153,-9,q),
(146,-8,o),
(140.5,-1,q),
(135,6,o),
(135,15,q),
(131,15,o),
(140.5,32,q),
(150,49,o),
(167,76,q),
(184,103,o),
(204.5,137.5,q),
(225,172,o),
(244,207,q),
(260,432,l),
(264,489,o),
(266.5,517,q),
(269,545,o),
(269,547,q),
(209,548,o),
(179.5,553,q),
(150,558,o),
(150,575,q),
(150,583,o),
(164.5,605,q),
(179,627,o),
(200,655.5,q),
(221,684,o),
(244.5,715,q),
(268,746,o),
(286,772,q),
(311,1112,l),
(308,1112,l),
(286,1111,o),
(268,1110.5,q),
(250,1110,o),
(235,1110,q),
(187,1110,o),
(166.5,1115.5,q),
(146,1121,o),
(146,1136,q),
(146,1143,o),
(158,1165,q),
(170,1187,o),
(188,1215.5,q),
(206,1244,o),
(226,1275.5,q),
(246,1307,o),
(262,1334,q),
(322,1436,l),
(740,1436,l),
(1233,1472,l),
(1234,1472,o),
(1238.5,1471.5,q),
(1243,1471,o),
(1248,1468.5,q),
(1253,1466,o),
(1257.5,1460,q),
(1262,1454,o),
(1262,1443,q),
(1247,1391,l),
(1240,1369,o),
(1230,1344.5,q),
(1220,1320,o),
(1208,1294,q),
(1164,1178,l),
(1157,1161,o),
(1148,1152,q),
(1139,1143,o),
(1110,1142,q),
(1034,1140,o),
(940.5,1135.5,q),
(847,1131,o),
(726,1127,q),
(722,1113,o),
(722,1104.5,q),
(722,1096,o),
(720,1072,q),
(715,1026,l),
(713,994,o),
(709,957,q),
(705,920,o),
(699,866,q),
(750,868,o),
(798.5,870,q),
(847,872,o),
(887,873.5,q),
(927,875,o),
(956.5,876,q),
(986,877,o),
(998,877,q),
(1006,877,o),
(1016,871,q),
(1026,865,o),
(1026,848,q),
(1026,840,o),
(1023,830,q)
);
}
);
width = 1178;
}
);
unicode = 69;
},
{
category = Letter;
glyphname = F;
layers = (
{
layerId = "343d4ea0-2832-40ed-9abc-f55d5da1b22f";
name = Fore;
shapes = (
{
closed = 1;
nodes = (
(1131,807,o),
(1120,779,q),
(1109,751,o),
(1095,715.5,q),
(1081,680,o),
(1064,640.5,q),
(1047,601,o),
(1031,563,q),
(1024,546,o),
(1014.5,538,q),
(1005,530,o),
(976,529,q),
(684,524,l),
(648,80,l),
(647,71,o),
(643,62.5,q),
(639,54,o),
(631,49,q),
(628,47,o),
(607.5,37.5,q),
(587,28,o),
(556,15,q),
(525,2,o),
(488,-13,q),
(451,-28,o),
(415,-40.5,q),
(379,-53,o),
(349,-61.5,q),
(319,-70,o),
(302,-70,q),
(282,-70,o),
(265.5,-62.5,q),
(249,-55,o),
(249,-32,q),
(248,18,o),
(251.5,78.5,q),
(255,139,o),
(260,201.5,q),
(265,264,o),
(271,324.5,q),
(277,385,o),
(281,435,q),
(288,519,l),
(204,519,o),
(168,523.5,q),
(132,528,o),
(132,547,q),
(132,560,o),
(147,581,q),
(168,610,o),
(194.5,651,q),
(221,692,o),
(245.5,731,q),
(270,770,o),
(288.5,800,q),
(307,830,o),
(312,837,q),
(331,1112,l),
(312,1112,o),
(298,1111.5,q),
(284,1111,o),
(272.5,1110.5,q),
(261,1110,o),
(251,1109.5,q),
(241,1109,o),
(230,1109,q),
(182,1109,o),
(161.5,1114.5,q),
(141,1120,o),
(141,1135,q),
(141,1142,o),
(153,1164,q),
(165,1186,o),
(182.5,1214.5,q),
(200,1243,o),
(220.5,1274.5,q),
(241,1306,o),
(257,1333,q),
(317,1435,l),
(772,1451,l),
(860,1454,o),
(947,1457.5,q),
(1034,1461,o),
(1107.5,1464,q),
(1181,1467,o),
(1234,1469.5,q),
(1287,1472,o),
(1308,1473,q),
(1309,1473,o),
(1313.5,1472.5,q),
(1318,1472,o),
(1323,1469.5,q),
(1328,1467,o),
(1332.5,1461,q),
(1337,1455,o),
(1337,1444,q),
(1337,1438,o),
(1323,1404,q),
(1309,1370,o),
(1283,1303,q),
(1239,1187,l),
(1232,1170,o),
(1223,1161,q),
(1214,1152,o),
(1185,1151,q),
(1151,1150,o),
(1116,1148,q),
(1081,1146,o),
(1044,1144,q),
(740,1129,l),
(734,1090,o),
(731.5,1071,q),
(729,1052,o),
(728.5,1039.5,q),
(728,1027,o),
(728,1014.5,q),
(728,1002,o),
(727,975,q),
(726,956,o),
(724.5,943,q),
(723,930,o),
(721.5,917.5,q),
(720,905,o),
(718.5,891,q),
(717,877,o),
(716,856,q),
(782,858,o),
(845.5,860,q),
(909,862,o),
(962.5,864,q),
(1016,866,o),
(1055,867.5,q),
(1094,869,o),
(1110,869,q),
(1118,869,o),
(1128,863,q),
(1138,857,o),
(1138,840,q),
(1138,832,o),
(1135,822,q)
);
}
);
width = 1204;
}
);
unicode = 70;
},
{
category = Letter;
glyphname = G;
kernLeft = G.2;
kernRight = G;
layers = (
{
layerId = "343d4ea0-2832-40ed-9abc-f55d5da1b22f";
name = Fore;
shapes = (
{
closed = 1;
nodes = (
(125,761,o),
(151.5,866.5,q),
(178,972,o),
(227,1063.5,q),
(276,1155,o),
(345.5,1229.5,q),
(415,1304,o),
(501,1357.5,q),
(587,1411,o),
(687.5,1440,q),
(788,1469,o),
(899,1469,q),
(987,1469,o),
(1053.5,1457.5,q),
(1120,1446,o),
(1169.5,1428.5,q),
(1219,1411,o),
(1252.5,1390,q),
(1286,1369,o),
(1308,1350,q),
(1307,1350,o),
(1307,1343,q),
(1307,1328,o),
(1309.5,1288,q),
(1312,1248,o),
(1315.5,1199,q),
(1319,1150,o),
(1321.5,1099.5,q),
(1324,1049,o),
(1324,1012,q),
(1324,1006,o),
(1320,998.5,q),
(1316,991,o),
(1300,991,q),
(1291,991,o),
(1278,994,q),
(1257,1000,o),
(1225,1021.5,q),
(1193,1043,o),
(1150.5,1066.5,q),
(1108,1090,o),
(1055.5,1108.5,q),
(1003,1127,o),
(941,1127,q),
(859,1127,o),
(792,1092.5,q),
(725,1058,o),
(678,996.5,q),
(631,935,o),
(605,850.5,q),
(579,766,o),
(579,667,q),
(579,580,o),
(595,504,q),
(611,428,o),
(643.5,372.5,q),
(676,317,o),
(724,285,q),
(772,253,o),
(837,253,q),
(900,253,o),
(980,280,q),
(1003,421,l),
(812,421,l),
(834,542,o),
(850,611,q),
(866,680,o),
(880,715,q),
(894,750,o),
(909,759,q),
(924,768,o),
(944,768,q),
(1470,768,l),
(1493,768,o),
(1503.5,765,q),
(1514,762,o),
(1514,744,q),
(1514,735,o),
(1512,722.5,q),
(1510,710,o),
(1507,692,q),
(1457,524,l),
(1448,492,o),
(1442,474.5,q),
(1436,457,o),
(1427,448.5,q),
(1418,440,o),
(1402.5,438.5,q),
(1387,437,o),
(1358,437,q),
(1342,437,o),
(1339,424,q),
(1336,411,o),
(1334,397,q),
(1328,353,o),
(1322,309.5,q),
(1316,266,o),
(1310.5,228.5,q),
(1305,191,o),
(1299,162.5,q),
(1293,134,o),
(1287,121,q),
(1219,78,o),
(1163.5,45.5,q),
(1108,13,o),
(1053,-8.5,q),
(998,-30,o),
(937,-41,q),
(876,-52,o),
(797,-52,q),
(656,-52,o),
(533,-1,q),
(410,50,o),
(319.5,142.5,q),
(229,235,o),
(177,363,q),
(125,491,o),
(125,646,q)
);
}
);
width = 1463;
}
);
unicode = 71;
},
{
category = Letter;
glyphname = H;
layers = (
{
layerId = "343d4ea0-2832-40ed-9abc-f55d5da1b22f";
name = Fore;
shapes = (
{
closed = 1;
nodes = (
(1065,1353,o),
(1071.5,1366.5,q),
(1078,1380,o),
(1098,1385,q),
(1442,1468,l),
(1455,1472,o),
(1469,1472,q),
(1483,1472,o),
(1488,1463.5,q),
(1493,1455,o),
(1493,1429,q),
(1481,1272,l),
(1476,1203,o),
(1470,1135,q),
(1464,1067,o),
(1452,1016,q),
(1434,874,l),
(1426,811,o),
(1419,737.5,q),
(1412,664,o),
(1404,573,q),
(1357,80,l),
(1356,71,o),
(1353,62,q),
(1350,53,o),
(1340,49,q),
(1333,46,o),
(1307.5,36,q),
(1282,26,o),
(1247,13,q),
(1212,0,o),
(1172,-14.5,q),
(1132,-29,o),
(1096,-41,q),
(1060,-53,o),
(1032,-61,q),
(1004,-69,o),
(994,-69,q),
(980,-69,o),
(969.5,-61.5,q),
(959,-54,o),
(959,-33,q),
(959,88,o),
(973,214.5,q),
(987,341,o),
(998,466,q),
(1000,480,o),
(999.5,492,q),
(999,504,o),
(1001,518,q),
(635,518,l),
(594,80,l),
(593,71,o),
(590.5,62.5,q),
(588,54,o),
(577,49,q),
(573,47,o),
(537.5,34.5,q),
(502,22,o),
(455.5,5.5,q),
(409,-11,o),
(363.5,-27.5,q),
(318,-44,o),
(294,-53,q),
(282,-58,o),
(264.5,-63.5,q),
(247,-69,o),
(230,-69,q),
(216,-69,o),
(205.5,-61,q),
(195,-53,o),
(195,-32,q),
(195,16,o),
(198.5,77.5,q),
(202,139,o),
(207,206.5,q),
(212,274,o),
(219,345,q),
(226,416,o),
(233,485,q),
(235,514,l),
(154,514,o),
(117.5,518.5,q),
(81,523,o),
(81,542,q),
(81,555,o),
(96,576,q),
(116,604,o),
(142.5,643.5,q),
(169,683,o),
(193.5,721.5,q),
(218,760,o),
(237.5,790.5,q),
(257,821,o),
(263,830,q),
(286,1071,l),
(286,1073,o),
(288,1101,q),
(290,1129,o),
(293,1167.5,q),
(296,1206,o),
(299.5,1247,q),
(303,1288,o),
(306,1317,q),
(308,1352,o),
(311.5,1366,q),
(315,1380,o),
(335,1385,q),
(675,1468,l),
(688,1472,o),
(702,1472,q),
(716,1472,o),
(721,1463.5,q),
(726,1455,o),
(726,1429,q),
(719,1357,o),
(715,1298,q),
(711,1239,o),
(706.5,1188,q),
(702,1137,o),
(697,1091,q),
(692,1045,o),
(683,997,q),
(663,842,l),
(1026,846,l),
(1035,979,o),
(1046,1072,q),
(1057,1165,o),
(1060,1219,q),
(1063,1270,o),
(1064,1292,q),
(1065,1314,o),
(1065,1317,q)
);
}
);
width = 1490;
}
);
unicode = 72;
},
{
category = Letter;
glyphname = I;
kernLeft = I.2;
kernRight = I;
layers = (
{
layerId = "343d4ea0-2832-40ed-9abc-f55d5da1b22f";
name = Fore;
shapes = (
{
closed = 1;
nodes = (
(189,652,l),
(214,996,o),
(226,1157,q),
(238,1318,o),
(238,1317,q),
(239,1335,o),
(240,1347,q),
(241,1359,o),
(244,1367,q),
(247,1375,o),
(252,1379,q),
(257,1383,o),
(267,1385,q),
(613,1468,l),
(626,1472,o),
(640,1472,q),
(654,1472,o),
(659,1463.5,q),
(664,1455,o),
(664,1429,q),
(657,1367,o),
(653,1313,q),
(649,1259,o),
(646.5,1210,q),
(644,1161,o),
(642,1115.5,q),
(640,1070,o),
(637,1025,q),
(631,976,o),
(626.5,927,q),
(622,878,o),
(618,825.5,q),
(614,773,o),
(609.5,714.5,q),
(605,656,o),
(599,587,q),
(555,60,l),
(554,51,o),
(551.5,42.5,q),
(549,34,o),
(538,29,q),
(537,29,o),
(526,25,q),
(515,21,o),
(497,14.5,q),
(479,8,o),
(455,1,q),
(431,-6,o),
(404,-12,q),
(359,-22,o),
(325.5,-32,q),
(292,-42,o),
(266,-50.5,q),
(240,-59,o),
(218,-64,q),
(196,-69,o),
(174,-69,q),
(159,-69,o),
(149,-61,q),
(139,-53,o),
(139,-32,q)
);
}
);
width = 668;
}
);
unicode = 73;
},
{
category = Letter;
glyphname = J;
layers = (
{
layerId = "343d4ea0-2832-40ed-9abc-f55d5da1b22f";
name = Fore;
shapes = (
{
closed = 1;
nodes = (
(337,1335,o),
(338,1347,q),
(339,1359,o),
(341.5,1367,q),
(344,1375,o),
(349,1379,q),
(354,1383,o),
(365,1385,q),
(711,1468,l),
(724,1472,o),
(737,1472,q),
(751,1472,o),
(756.5,1463,q),
(762,1454,o),
(762,1429,q),
(732,1108,l),
(714,916,l),
(708,849,o),
(702,786,q),
(696,723,o),
(690.5,669.5,q),
(685,616,o),
(681,574.5,q),
(677,533,o),
(675,508,q),
(673,479,l),
(665,365,o),
(629.5,261,q),
(594,157,o),
(535.5,77.5,q),
(477,-2,o),
(396.5,-49,q),
(316,-96,o),
(218,-96,q),
(168,-96,o),
(143.5,-94,q),
(119,-92,o),
(108.5,-87.5,q),
(98,-83,o),
(95.5,-75.5,q),
(93,-68,o),
(87,-57,q),
(54,186,l),
(54,188,o),
(60.5,194.5,q),
(67,201,o),
(71,203,q),
(107,217,o),
(142,235,q),
(177,253,o),
(204.5,277.5,q),
(232,302,o),
(249.5,335.5,q),
(267,369,o),
(269,414,q),
(336,1317,l)
);
}
);
width = 762;
}
);
unicode = 74;
},
{
category = Letter;
glyphname = K;
layers = (
{
layerId = "343d4ea0-2832-40ed-9abc-f55d5da1b22f";
name = Fore;
shapes = (
{
closed = 1;
nodes = (
(658,1416,o),
(656,1383.5,q),
(654,1351,o),
(650.5,1309,q),
(647,1267,o),
(644,1219.5,q),
(641,1172,o),
(637.5,1127.5,q),
(634,1083,o),
(630.5,1046,q),
(627,1009,o),
(625,987,q),
(676,1039,l),
(818,1215,l),
(844,1248,o),
(870,1279.5,q),
(896,1311,o),
(916.5,1336.5,q),
(937,1362,o),
(950,1379,q),
(963,1396,o),
(965,1398,q),
(1409,1435,l),
(1411,1436,o),
(1418,1436,q),
(1426,1436,l),
(1449,1436,o),
(1449,1424,q),
(1449,1417,o),
(1442.5,1407.5,q),
(1436,1398,o),
(1423,1383,q),
(1407,1364,o),
(1376.5,1328.5,q),
(1346,1293,o),
(1310,1250.5,q),
(1274,1208,o),
(1235.5,1162.5,q),
(1197,1117,o),
(1164,1078.5,q),
(1131,1040,o),
(1107.5,1012,q),
(1084,984,o),
(1078,976,q),
(1015,916,l),
(951,855,o),
(851,764,q),
(882,732,o),
(917.5,694.5,q),
(953,657,o),
(985.5,622.5,q),
(1018,588,o),
(1044.5,560,q),
(1071,532,o),
(1084,518,q),
(1393,160,l),
(1398,154,o),
(1406,150,q),
(1414,146,o),
(1422,143,q),
(1430,140,o),
(1435.5,136.5,q),
(1441,133,o),
(1441,128,q),
(1441,122,o),
(1428,109,q),
(1420,101,o),
(1398,85.5,q),
(1376,70,o),
(1346.5,52,q),
(1317,34,o),
(1283,15,q),
(1249,-4,o),
(1217.5,-19.5,q),
(1186,-35,o),
(1159.5,-45,q),
(1133,-55,o),
(1119,-55,q),
(1098,-55,o),
(1075,-36.5,q),
(1052,-18,o),
(1020,19.5,q),
(988,57,o),
(944,115,q),
(900,173,o),
(838,251,q),
(802,296,o),
(768,339.5,q),
(734,383,o),
(704,421.5,q),
(674,460,o),
(649.5,490.5,q),
(625,521,o),
(609,540,q),
(601,532,o),
(592,524.5,q),
(583,517,o),
(575,509,q),
(540,80,l),
(539,71,o),
(536.5,62,q),
(534,53,o),
(523,49,q),
(240,-53,l),
(229,-57,o),
(211,-63,q),
(193,-69,o),
(176,-69,q),
(161,-69,o),
(151,-61,q),
(141,-53,o),
(141,-32,q),
(146,27,o),
(153.5,121,q),
(161,215,o),
(169.5,335.5,q),
(178,456,o),
(187.5,598.5,q),
(197,741,o),
(208,898,q),
(236,1319,l),
(237,1337,o),
(238,1349,q),
(239,1361,o),
(241,1369,q),
(243,1377,o),
(248,1381,q),
(253,1385,o),
(263,1387,q),
(609,1470,l),
(622,1474,o),
(636,1474,q),
(650,1474,o),
(655,1465.5,q),
(660,1457,o),
(660,1431,q)
);
}
);
width = 1411;
}
);
unicode = 75;
},
{
category = Letter;
glyphname = L;
kernLeft = L.2;
kernRight = L;
layers = (
{
layerId = "343d4ea0-2832-40ed-9abc-f55d5da1b22f";
name = Fore;
shapes = (
{
closed = 1;
nodes = (
(669,1409,o),
(666,1373.5,q),
(663,1338,o),
(659.5,1298.5,q),
(656,1259,o),
(651.5,1218.5,q),
(647,1178,o),
(643.5,1144,q),
(640,1110,o),
(638,1085.5,q),
(636,1061,o),
(636,1054,q),
(632,992,o),
(627.5,939,q),
(623,886,o),
(618,834,q),
(613,782,o),
(607.5,726.5,q),
(602,671,o),
(596,604,q),
(590,537,o),
(582.5,455,q),
(575,373,o),
(567,267,q),
(981,309,l),
(1009,312,o),
(1027,312,q),
(1049,312,o),
(1054.5,305,q),
(1060,298,o),
(1060,283,q),
(1060,281,o),
(1059,277.5,q),
(1058,274,o),
(1054.5,264,q),
(1051,254,o),
(1044.5,235,q),
(1038,216,o),
(1027,182,q),
(1005,116,l),
(994,84,o),
(984.5,58.5,q),
(975,33,o),
(961,14.5,q),
(947,-4,o),
(926,-15,q),
(905,-26,o),
(872,-29,q),
(851,-31,o),
(815,-32.5,q),
(779,-34,o),
(732,-35.5,q),
(685,-37,o),
(630.5,-39,q),
(576,-41,o),
(519,-44,q),
(463,-46,o),
(406,-46.5,q),
(349,-47,o),
(298,-48,q),
(247,-49,o),
(204,-50,q),
(161,-51,o),
(133,-52,q),
(107,-52,o),
(95.5,-48,q),
(84,-44,o),
(84,-35,q),
(84,-24,o),
(91,-3.5,q),
(98,17,o),
(109,42.5,q),
(120,68,o),
(133.5,95.5,q),
(147,123,o),
(160,149,q),
(187,506,l),
(195,597,o),
(203,691,q),
(211,785,o),
(217,873,q),
(234,1138,l),
(240,1232,o),
(242,1274.5,q),
(244,1317,o),
(244,1321,q),
(246,1339,o),
(247,1351,q),
(248,1363,o),
(250.5,1371,q),
(253,1379,o),
(258,1383,q),
(263,1387,o),
(273,1389,q),
(624,1472,l),
(635,1476,o),
(651,1476,q),
(662,1476,o),
(666.5,1469.5,q),
(671,1463,o),
(671,1445,q),
(671,1443,o),
(670.5,1439.5,q),
(670,1436,o),
(670,1433,q)
);
}
);
width = 1022;
}
);
unicode = 76;
},
{
category = Letter;
glyphname = M;
layers = (
{
layerId = "343d4ea0-2832-40ed-9abc-f55d5da1b22f";
name = Fore;
shapes = (
{
closed = 1;
nodes = (
(1442,1473,o),
(1446.5,1473.5,q),
(1451,1474,o),
(1455,1474,q),
(1473,1474,o),
(1484,1462.5,q),
(1495,1451,o),
(1499,1422,q),
(1501,1404,o),
(1505.5,1371.5,q),
(1510,1339,o),
(1515.5,1299.5,q),
(1521,1260,o),
(1527.5,1218,q),
(1534,1176,o),
(1539,1140.5,q),
(1544,1105,o),
(1548,1079.5,q),
(1552,1054,o),
(1553,1047,q),
(1575,870,o),
(1592,763,q),
(1609,656,o),
(1616,605,q),
(1683,64,l),
(1673,33,l),
(1671,26,o),
(1647,16,q),
(1623,6,o),
(1589,-5.5,q),
(1555,-17,o),
(1515,-28,q),
(1475,-39,o),
(1441,-48,q),
(1407,-57,o),
(1383.5,-62.5,q),
(1360,-68,o),
(1359,-68,q),
(1335,-68,o),
(1321,-33,q),
(1307,2,o),
(1298,56,q),
(1289,110,o),
(1283.5,174,q),
(1278,238,o),
(1271,297,q),
(1265,346,o),
(1260,396,q),
(1255,446,o),
(1249,498,q),
(1210,790,l),
(839,111,l),
(822,87,o),
(805,76.5,q),
(788,66,o),
(773,66,q),
(751,66,o),
(738.5,79,q),
(726,92,o),
(721,111,q),
(702,174,o),
(688.5,217.5,q),
(675,261,o),
(663.5,297,q),
(652,333,o),
(642,367,q),
(632,401,o),
(619.5,445.5,q),
(607,490,o),
(591.5,550.5,q),
(576,611,o),
(554,699,q),
(523,555,l),
(379,-56,l),
(376,-68,o),
(354,-68,q),
(333,-68,o),
(296.5,-60,q),
(260,-52,o),
(220.5,-40.5,q),
(181,-29,o),
(143.5,-16.5,q),
(106,-4,o),
(84,6,q),
(79,8,o),
(71.5,15.5,q),
(64,23,o),
(64,39,q),
(64,43,o),
(67,56,q),
(70,69,o),
(74.5,86.5,q),
(79,104,o),
(84.5,122,q),
(90,140,o),
(95,154,q),
(108,188,o),
(118.5,234,q),
(129,280,o),
(138,327,q),
(147,374,o),
(154.5,417,q),
(162,460,o),
(169,489,q),
(292,1063,l),
(329,1225,l),
(336,1256,o),
(342.5,1285.5,q),
(349,1315,o),
(354,1339,q),
(359,1363,o),
(362,1378,q),
(365,1393,o),
(365,1395,q),
(615,1472,l),
(629,1472,o),
(639.5,1469.5,q),
(650,1467,o),
(653,1453,q),
(852,813,l),
(1125,1388,l),
(1437,1472,l)
);
}
);
width = 1729;
}
);
unicode = 77;
},
{
category = Letter;
glyphname = N;
kernLeft = N.2;
kernRight = N;
layers = (
{
layerId = "343d4ea0-2832-40ed-9abc-f55d5da1b22f";
name = Fore;
shapes = (
{
closed = 1;
nodes = (
(999,1373,o),
(1005,1388,q),
(1011,1403,o),
(1031,1408,q),
(1290,1469,l),
(1302,1473,o),
(1316,1473,q),
(1329,1473,o),
(1335,1464,q),
(1341,1455,o),
(1341,1430,q),
(1335,1406,o),
(1331,1356.5,q),
(1327,1307,o),
(1325,1248,q),
(1323,1189,o),
(1322,1129.5,q),
(1321,1070,o),
(1321,1026,q),
(1321,971,l),
(1321,909,o),
(1320,836,q),
(1319,763,o),
(1317.5,688,q),
(1316,613,o),
(1314,540,q),
(1312,467,o),
(1310,403,q),
(1304,232,l),
(1303,227,o),
(1303,223,q),
(1303,219,o),
(1303,215,q),
(1303,200,l),
(1303,183,o),
(1303.5,171.5,q),
(1304,160,o),
(1304,151,q),
(1304,141,o),
(1302.5,133,q),
(1301,125,o),
(1295,117.5,q),
(1289,110,o),
(1278.5,102,q),
(1268,94,o),
(1250,82,q),
(1240,75,o),
(1217,61.5,q),
(1194,48,o),
(1166,31,q),
(1138,14,o),
(1108,-4,q),
(1078,-22,o),
(1053,-36.5,q),
(1028,-51,o),
(1012.5,-60,q),
(997,-69,o),
(997,-69,q),
(533,645,l),
(491,60,l),
(490,52,o),
(487.5,43,q),
(485,34,o),
(474,29,q),
(465,25,o),
(443,16.5,q),
(421,8,o),
(391.5,-3,q),
(362,-14,o),
(329.5,-25.5,q),
(297,-37,o),
(268,-46.5,q),
(239,-56,o),
(216.5,-62,q),
(194,-68,o),
(186,-68,q),
(171,-68,o),
(161,-60,q),
(151,-52,o),
(151,-31,q),
(161,94,o),
(174,241.5,q),
(187,389,o),
(199,544,q),
(211,699,o),
(221.5,853.5,q),
(232,1008,o),
(239,1147,q),
(239,1151,o),
(226.5,1173.5,q),
(214,1196,o),
(198.5,1222.5,q),
(183,1249,o),
(170.5,1272.5,q),
(158,1296,o),
(158,1302,q),
(158,1309,o),
(165.5,1315,q),
(173,1321,o),
(190,1331,q),
(457,1482,l),
(460,1482,o),
(465.5,1483,q),
(471,1484,o),
(475,1484,q),
(486,1484,o),
(492.5,1481.5,q),
(499,1479,o),
(506,1466,q),
(991,591,l),
(991,1340,l)
);
}
);
width = 1379;
}
);
unicode = 78;
},
{
category = Letter;
glyphname = O;
kernLeft = O.2;
kernRight = O;
layers = (
{
layerId = "343d4ea0-2832-40ed-9abc-f55d5da1b22f";
name = Fore;
shapes = (
{
closed = 1;
nodes = (
(561,610,o),
(576.5,537.5,q),
(592,465,o),
(628,407,q),
(664,349,o),
(723,313,q),
(782,277,o),
(869,277,q),
(936,281,o),
(986.5,304.5,q),
(1037,328,o),
(1073.5,365.5,q),
(1110,403,o),
(1134,451.5,q),
(1158,500,o),
(1172,553.5,q),
(1186,607,o),
(1191.5,663,q),
(1197,719,o),
(1197,771,q),
(1197,842,o),
(1178,908.5,q),
(1159,975,o),
(1121,1026,q),
(1083,1077,o),
(1026.5,1108,q),
(970,1139,o),
(895,1139,q),
(836,1139,o),
(788.5,1117,q),
(741,1095,o),
(704,1058.5,q),
(667,1022,o),
(640.5,974.5,q),
(614,927,o),
(596.5,876.5,q),
(579,826,o),
(570.5,775.5,q),
(562,725,o),
(561,682,q)
);
},
{
closed = 1;
nodes = (
(606,-52,o),
(488,4,q),
(370,60,o),
(288.5,155.5,q),
(207,251,o),
(163.5,376.5,q),
(120,502,o),
(120,642,q),
(120,799,o),
(164.5,931.5,q),
(209,1064,o),
(289,1166.5,q),
(369,1269,o),
(479.5,1339.5,q),
(590,1410,o),
(722,1444,q),
(734,1444,o),
(740.5,1463,q),
(747,1482,o),
(752,1505,q),
(757,1528,o),
(764,1547,q),
(771,1566,o),
(784,1566,q),
(978,1546,o),
(1133,1497.5,q),
(1288,1449,o),
(1396,1359,q),
(1504,1269,o),
(1561.5,1131.5,q),
(1619,994,o),
(1619,796,q),
(1619,669,o),
(1588,557,q),
(1557,445,o),
(1501,350.5,q),
(1445,256,o),
(1366.5,181.5,q),
(1288,107,o),
(1192,55,q),
(1096,3,o),
(985.5,-24.5,q),
(875,-52,o),
(756,-52,q)
);
}
);
width = 1616;
}
);
unicode = 79;
},
{
category = Letter;
glyphname = P;
layers = (
{
layerId = "343d4ea0-2832-40ed-9abc-f55d5da1b22f";
name = Fore;
shapes = (
{
closed = 1;
nodes = (
(1400,953,o),
(1384.5,885,q),
(1369,817,o),
(1340.5,762.5,q),
(1312,708,o),
(1271.5,664.5,q),
(1231,621,o),
(1179,583,q),
(1079,511,o),
(960,474.5,q),
(841,438,o),
(721,438,q),
(701,438,o),
(681.5,439,q),
(662,440,o),
(642,442,q),
(609,77,l),
(592,46,l),
(590,42,o),
(558,30,q),
(526,18,o),
(478,2,q),
(415,-19,l),
(385,-30,o),
(362,-39,q),
(339,-48,o),
(319,-55,q),
(299,-62,o),
(280,-65.5,q),
(261,-69,o),
(240,-69,q),
(226,-69,o),
(218,-62,q),
(210,-55,o),
(210,-35,q),
(221,136,l),
(224,187,o),
(228.5,238.5,q),
(233,290,o),
(237,356,q),
(256,595,l),
(262,668,o),
(267,741,q),
(272,814,o),
(277,880,q),
(282,946,o),
(286,1003.5,q),
(290,1061,o),
(293,1104,q),
(239,1092,o),
(206.5,1086.5,q),
(174,1081,o),
(157,1081,q),
(136,1081,o),
(136,1099,q),
(150,1148,o),
(162,1195,q),
(173,1235,o),
(184.5,1277.5,q),
(196,1320,o),
(204,1349,q),
(209,1367,o),
(215.5,1376.5,q),
(222,1386,o),
(232.5,1391.5,q),
(243,1397,o),
(259.5,1401.5,q),
(276,1406,o),
(300,1414,q),
(319,1420,o),
(353.5,1427.5,q),
(388,1435,o),
(432.5,1442.5,q),
(477,1450,o),
(529,1457,q),
(581,1464,o),
(634.5,1469.5,q),
(688,1475,o),
(740,1478.5,q),
(792,1482,o),
(838,1482,q),
(952,1482,o),
(1054,1461,q),
(1156,1440,o),
(1233,1389.5,q),
(1310,1339,o),
(1355.5,1253.5,q),
(1401,1168,o),
(1401,1039,q)
);
},
{
closed = 1;
nodes = (
(670,728,o),
(674,719.5,q),
(678,711,o),
(696,711,q),
(724,711,o),
(762.5,723.5,q),
(801,736,o),
(839.5,761,q),
(878,786,o),
(911,823,q),
(944,860,o),
(961,910,q),
(968,930,o),
(972.5,961,q),
(977,992,o),
(977,1034,q),
(977,1104,o),
(928.5,1137,q),
(880,1170,o),
(802,1170,q),
(789,1170,o),
(772.5,1168.5,q),
(756,1167,o),
(741.5,1163,q),
(727,1159,o),
(717,1153.5,q),
(707,1148,o),
(706,1139,q),
(704,1117,l),
(703,1104,o),
(700,1074.5,q),
(697,1045,o),
(693.5,1007,q),
(690,969,o),
(686.5,927,q),
(683,885,o),
(679.5,847,q),
(676,809,o),
(673.5,780,q),
(671,751,o),
(670,739,q)
);
}
);
width = 1342;
}
);
unicode = 80;
},
{
category = Letter;
glyphname = Q;
layers = (
{
layerId = "343d4ea0-2832-40ed-9abc-f55d5da1b22f";
name = Fore;
shapes = (
{
closed = 1;
nodes = (
(606,-52,o),
(488,4,q),
(370,60,o),
(288.5,155.5,q),
(207,251,o),
(163.5,376.5,q),
(120,502,o),
(120,642,q),
(120,799,o),
(164.5,931.5,q),
(209,1064,o),
(289,1166.5,q),
(369,1269,o),
(479.5,1339.5,q),
(590,1410,o),
(722,1444,q),
(734,1444,o),
(739.5,1459.5,q),
(745,1475,o),
(749.5,1495.5,q),
(754,1516,o),
(758.5,1535,q),
(763,1554,o),
(773,1562,q),
(1125,1514,o),
(1244,1453,q),
(1307,1421,o),
(1353.5,1390,q),
(1400,1359,o),
(1437,1322,q),
(1474,1285,o),
(1504,1237,q),
(1534,1189,o),
(1564,1122,q),
(1595,1052,o),
(1610,948,q),
(1611,936,l),
(1616,898,o),
(1619,855,q),
(1622,812,o),
(1622,764,q),
(1622,591,o),
(1565.5,451.5,q),
(1509,312,o),
(1409,206,q),
(1436,177,o),
(1459,151,q),
(1482,125,o),
(1499,104,q),
(1516,83,o),
(1526,67.5,q),
(1536,52,o),
(1536,45,q),
(1536,34,o),
(1518.5,18.5,q),
(1501,3,o),
(1474.5,-15,q),
(1448,-33,o),
(1417,-51,q),
(1386,-69,o),
(1359,-83,q),
(1332,-97,o),
(1313,-106,q),
(1294,-115,o),
(1292,-115,q),
(1284,-115,o),
(1277.5,-110.5,q),
(1271,-106,o),
(1266,-101,q),
(1143,22,l),
(1058,-13,o),
(969,-32.5,q),
(880,-52,o),
(780,-52,q),
(756,-52,l)
);
},
{
closed = 1;
nodes = (
(566,613,o),
(579,544.5,q),
(592,476,o),
(623,416,q),
(624,415,o),
(624,414,q),
(660,353,o),
(719.5,315,q),
(779,277,o),
(869,277,q),
(889,279,l),
(877,293,l),
(854,319,o),
(839,339,q),
(824,359,o),
(824,369,q),
(824,388,o),
(852,403,q),
(1085,520,l),
(1091,523,o),
(1095,523,q),
(1103,523,o),
(1114,509,q),
(1125,495,o),
(1145,474,q),
(1173,540,o),
(1185,619.5,q),
(1197,699,o),
(1197,771,q),
(1197,879,o),
(1158.5,963.5,q),
(1120,1048,o),
(1025,1105,q),
(993,1124,o),
(956.5,1132,q),
(920,1140,o),
(876,1140,q),
(832,1140,o),
(796,1124.5,q),
(760,1109,o),
(730.5,1085,q),
(701,1061,o),
(677,1032.5,q),
(653,1004,o),
(635,979,q),
(616,953,o),
(603,915,q),
(590,877,o),
(581.5,836,q),
(573,795,o),
(569.5,754,q),
(566,713,o),
(566,682,q)
);
}
);
width = 1616;
}
);
unicode = 81;
},
{
category = Letter;
glyphname = R;
layers = (
{
layerId = "343d4ea0-2832-40ed-9abc-f55d5da1b22f";
name = Fore;
shapes = (
{
closed = 1;
nodes = (
(657,71,o),
(654.5,62.5,q),
(652,54,o),
(641,49,q),
(637,47,o),
(601.5,34.5,q),
(566,22,o),
(519.5,5.5,q),
(473,-11,o),
(427.5,-27.5,q),
(382,-44,o),
(358,-53,q),
(346,-58,o),
(328.5,-63.5,q),
(311,-69,o),
(294,-69,q),
(280,-69,o),
(269.5,-62,q),
(259,-55,o),
(259,-36,q),
(259,8,o),
(261.5,44.5,q),
(264,81,o),
(268,121,q),
(272,161,o),
(276.5,209.5,q),
(281,258,o),
(285,325,q),
(290,413,o),
(296,494.5,q),
(302,576,o),
(308,664,q),
(322,835,l),
(325,877,o),
(328,920.5,q),
(331,964,o),
(334,1010,q),
(345,1132,l),
(345,1134,o),
(339,1134,q),
(331,1134,o),
(312,1130.5,q),
(293,1127,o),
(267,1122,q),
(241,1117,o),
(209.5,1111.5,q),
(178,1106,o),
(145,1101,q),
(137,1101,o),
(129.5,1104.5,q),
(122,1108,o),
(122,1113,q),
(122,1117,o),
(124,1119,q),
(286,1402,l),
(341,1414,o),
(404.5,1426.5,q),
(468,1439,o),
(541,1449,q),
(614,1459,o),
(696,1465.5,q),
(778,1472,o),
(870,1472,q),
(974,1470,o),
(1072.5,1451.5,q),
(1171,1433,o),
(1247.5,1389.5,q),
(1324,1346,o),
(1370.5,1271.5,q),
(1417,1197,o),
(1417,1083,q),
(1417,1020,o),
(1395.5,967,q),
(1374,914,o),
(1340.5,871.5,q),
(1307,829,o),
(1267,796.5,q),
(1227,764,o),
(1190.5,741,q),
(1154,718,o),
(1126,704.5,q),
(1098,691,o),
(1088,687,q),
(1088,685,o),
(1089.5,682,q),
(1091,679,o),
(1096,670.5,q),
(1101,662,o),
(1110.5,646.5,q),
(1120,631,o),
(1135,604,q),
(1151,580,o),
(1173,540,q),
(1195,500,o),
(1225.5,445.5,q),
(1256,391,o),
(1296,324,q),
(1336,257,o),
(1388,180,q),
(1405,165,o),
(1427,161.5,q),
(1449,158,o),
(1468,157.5,q),
(1487,157,o),
(1500,155.5,q),
(1513,154,o),
(1513,143,q),
(1513,135,o),
(1496.5,124.5,q),
(1480,114,o),
(1458,103,q),
(1436,92,o),
(1413.5,82,q),
(1391,72,o),
(1379,66,q),
(1355,54,o),
(1329,43,q),
(1303,32,o),
(1273,18.5,q),
(1243,5,o),
(1206.5,-13,q),
(1170,-31,o),
(1124,-56,q),
(1112,-63,o),
(1101.5,-65.5,q),
(1091,-68,o),
(1082,-68,q),
(1064,-68,o),
(1051,-59.5,q),
(1038,-51,o),
(1029,-39,q),
(1020,-27,o),
(1014.5,-14.5,q),
(1009,-2,o),
(1005,6,q),
(707,634,l),
(658,80,l)
);
},
{
closed = 1;
nodes = (
(770,757,o),
(825,783,q),
(880,809,o),
(925,850,q),
(970,891,o),
(999,943,q),
(1028,995,o),
(1028,1048,q),
(1028,1193,o),
(854,1193,q),
(821,1193,o),
(799,1188.5,q),
(777,1184,o),
(759,1182,q),
(719,757,l)
);
}
);
width = 1473;
}
);
unicode = 82;
},
{
category = Letter;
glyphname = S;
kernLeft = S.2;
kernRight = S;
layers = (
{
layerId = "343d4ea0-2832-40ed-9abc-f55d5da1b22f";
name = Fore;
shapes = (
{
closed = 1;
nodes = (
(158,373,o),
(157.5,374,q),
(157,375,o),
(157,376,q),
(157,393,o),
(175,393,q),
(184,393,o),
(195,384,q),
(249,333,o),
(315,303,q),
(381,273,o),
(459,273,q),
(480,273,o),
(507,277.5,q),
(534,282,o),
(558,292.5,q),
(582,303,o),
(598.5,320,q),
(615,337,o),
(615,363,q),
(615,392,o),
(601,415,q),
(587,438,o),
(564,454,q),
(555,460,o),
(537,474,q),
(519,488,o),
(496,506,q),
(473,524,o),
(448,544.5,q),
(423,565,o),
(400.5,583.5,q),
(378,602,o),
(360,617,q),
(342,632,o),
(333,640,q),
(274,684,o),
(239.5,729,q),
(205,774,o),
(187,823,q),
(169,872,o),
(164,924.5,q),
(159,977,o),
(159,1036,q),
(159,1124,o),
(201,1203,q),
(243,1282,o),
(319.5,1340.5,q),
(396,1399,o),
(503,1433.5,q),
(610,1468,o),
(741,1468,q),
(757,1468,o),
(789,1464.5,q),
(821,1461,o),
(859.5,1453,q),
(898,1445,o),
(938,1431,q),
(978,1417,o),
(1011,1395,q),
(1022,1387,o),
(1028.5,1379,q),
(1035,1371,o),
(1037,1354,q),
(1042,1273,o),
(1045,1194.5,q),
(1048,1116,o),
(1053,1028,q),
(1053,1011,o),
(1046,1005.5,q),
(1039,1000,o),
(1028,1000,q),
(1017,1000,o),
(1011,1006,q),
(982,1035,o),
(951,1063,q),
(920,1091,o),
(886,1112.5,q),
(852,1134,o),
(813.5,1147,q),
(775,1160,o),
(730,1160,q),
(703,1160,o),
(676,1155.5,q),
(649,1151,o),
(627,1139,q),
(605,1127,o),
(591.5,1106,q),
(578,1085,o),
(578,1053,q),
(578,1019,o),
(586.5,994,q),
(595,969,o),
(629,947,q),
(869,784,l),
(935,737,o),
(976,690.5,q),
(1017,644,o),
(1040,598,q),
(1063,552,o),
(1071.5,507.5,q),
(1080,463,o),
(1080,420,q),
(1080,350,o),
(1057,288,q),
(1034,226,o),
(994,173.5,q),
(954,121,o),
(900.5,79.5,q),
(847,38,o),
(786,8.5,q),
(725,-21,o),
(659.5,-36.5,q),
(594,-52,o),
(531,-52,q),
(482,-52,o),
(434.5,-50.5,q),
(387,-49,o),
(342,-42.5,q),
(297,-36,o),
(255,-22.5,q),
(213,-9,o),
(175,15,q),
(158,372,l)
);
}
);
width = 1099;
}
);
unicode = 83;
},
{
category = Letter;
glyphname = T;
kernLeft = T.2;
kernRight = T;
layers = (
{
layerId = "343d4ea0-2832-40ed-9abc-f55d5da1b22f";
name = Fore;
shapes = (
{
closed = 1;
nodes = (
(363,41,o),
(368,109,q),
(373,177,o),
(377,241,q),
(413,713,l),
(419,767,o),
(423,811.5,q),
(427,856,o),
(429.5,898.5,q),
(432,941,o),
(434.5,984.5,q),
(437,1028,o),
(440,1081,q),
(407,1082,o),
(370.5,1082,q),
(334,1082,o),
(294,1082,q),
(101,1082,l),
(90,1082,o),
(87.5,1090.5,q),
(85,1099,o),
(85,1106,q),
(85,1113,l),
(195,1402,l),
(194,1406,l),
(194,1411,o),
(200.5,1414.5,q),
(207,1418,o),
(230,1420,q),
(368,1428,o),
(497.5,1435.5,q),
(627,1443,o),
(753.5,1449,q),
(880,1455,o),
(1006.5,1461,q),
(1133,1467,o),
(1267,1472,q),
(1279,1472,o),
(1292.5,1469,q),
(1306,1466,o),
(1306,1447,q),
(1306,1445,o),
(1305,1443,q),
(1304,1441,o),
(1304,1439,q),
(1288,1398,o),
(1274.5,1361,q),
(1261,1324,o),
(1248,1288,q),
(1235,1252,o),
(1221.5,1215,q),
(1208,1178,o),
(1192,1137,q),
(1191,1136,o),
(1188,1127.5,q),
(1185,1119,o),
(1179,1108.5,q),
(1173,1098,o),
(1163,1089,q),
(1153,1080,o),
(1138,1079,q),
(1133,1080,o),
(1128,1080,q),
(1123,1080,o),
(1117,1080,q),
(850,1080,l),
(845,1029,o),
(840.5,972,q),
(836,915,o),
(830,861,q),
(757,80,l),
(756,71,o),
(753.5,62,q),
(751,53,o),
(740,49,q),
(457,-53,l),
(446,-57,o),
(428,-63,q),
(410,-69,o),
(393,-69,q),
(379,-69,o),
(368.5,-62,q),
(358,-55,o),
(358,-36,q),
(358,-32,l)
);
}
);
width = 1159;
}
);
unicode = 84;
},
{
category = Letter;
glyphname = U;
kernLeft = U.2;
kernRight = U;
layers = (
{
layerId = "343d4ea0-2832-40ed-9abc-f55d5da1b22f";
name = Fore;
shapes = (
{
closed = 1;
nodes = (
(1379,1403,o),
(1374,1350.5,q),
(1369,1298,o),
(1362.5,1231.5,q),
(1356,1165,o),
(1349,1092,q),
(1342,1019,o),
(1335.5,952.5,q),
(1329,886,o),
(1324,832,q),
(1319,778,o),
(1317,751,q),
(1296,538,o),
(1245.5,385.5,q),
(1195,233,o),
(1113,136,q),
(1031,39,o),
(916.5,-6.5,q),
(802,-52,o),
(652,-52,q),
(549,-52,o),
(458,-14.5,q),
(367,23,o),
(299,91,q),
(231,159,o),
(191.5,254.5,q),
(152,350,o),
(152,467,q),
(152,482,o),
(154.5,521.5,q),
(157,561,o),
(161.5,618,q),
(166,675,o),
(171.5,747.5,q),
(177,820,o),
(183,902,q),
(195,1068,l),
(201,1159,o),
(204,1219.5,q),
(207,1280,o),
(210.5,1317,q),
(214,1354,o),
(221,1371,q),
(228,1388,o),
(243,1393,q),
(584,1469,l),
(597,1473,o),
(611,1473,q),
(627,1473,o),
(632.5,1464,q),
(638,1455,o),
(638,1430,q),
(562,642,l),
(560,607,o),
(555,566,q),
(550,525,o),
(550,482,q),
(550,456,o),
(556.5,425,q),
(563,394,o),
(580,366.5,q),
(597,339,o),
(626.5,320.5,q),
(656,302,o),
(703,302,q),
(760,302,o),
(795,326.5,q),
(830,351,o),
(851,391.5,q),
(872,432,o),
(881.5,483.5,q),
(891,535,o),
(897,589,q),
(902,652,o),
(909,737,q),
(916,822,o),
(923,919,q),
(952,1318,l),
(954,1336,o),
(954.5,1348,q),
(955,1360,o),
(957,1368,q),
(959,1376,o),
(965.5,1380,q),
(972,1384,o),
(986,1386,q),
(1327,1469,l),
(1340,1473,o),
(1354,1473,q),
(1368,1473,o),
(1374.5,1464.5,q),
(1381,1456,o),
(1381,1430,q)
);
}
);
width = 1378;
}
);
unicode = 85;
},
{
category = Letter;
glyphname = V;
layers = (
{
layerId = "343d4ea0-2832-40ed-9abc-f55d5da1b22f";
name = Fore;
shapes = (
{
closed = 1;
nodes = (
(874,75,o),
(869.5,63,q),
(865,51,o),
(858,41,q),
(851,31,o),
(840.5,23,q),
(830,15,o),
(814,10,q),
(751,-10,o),
(689,-24.5,q),
(627,-39,o),
(564,-60,q),
(552,-64,o),
(543,-66,q),
(534,-68,o),
(526,-68,q),
(508,-68,o),
(500,-59,q),
(492,-50,o),
(488,-36,q),
(146,1324,l),
(138,1350,o),
(138,1367,q),
(138,1389,o),
(152,1403.5,q),
(166,1418,o),
(197.5,1427.5,q),
(229,1437,o),
(278.5,1445,q),
(328,1453,o),
(400,1463,q),
(435,1468,o),
(459,1470.5,q),
(483,1473,o),
(500,1473,q),
(529,1473,o),
(538.5,1463.5,q),
(548,1454,o),
(556,1434,q),
(747,608,l),
(1016,1367,l),
(1022,1383,o),
(1026.5,1393,q),
(1031,1403,o),
(1043.5,1410.5,q),
(1056,1418,o),
(1081.5,1425.5,q),
(1107,1433,o),
(1155,1443,q),
(1230,1459,o),
(1279,1466,q),
(1328,1473,o),
(1358,1473,q),
(1396,1473,o),
(1407.5,1464,q),
(1419,1455,o),
(1419,1438,q),
(1420,1431,o),
(1416.5,1423.5,q),
(1413,1416,o),
(1409,1405,q),
(879,88,l)
);
}
);
width = 1305;
}
);
unicode = 86;
},
{
category = Letter;
glyphname = W;
layers = (
{
layerId = "343d4ea0-2832-40ed-9abc-f55d5da1b22f";
name = Fore;
shapes = (
{
closed = 1;
nodes = (
(1556,1375,o),
(1562,1386.5,q),
(1568,1398,o),
(1589,1403,q),
(1884,1471,l),
(1886,1471,o),
(1889,1472,q),
(1892,1473,o),
(1894,1473,q),
(1908,1473,o),
(1913.5,1461,q),
(1919,1449,o),
(1919,1438,q),
(1919,1436,o),
(1918.5,1430,q),
(1918,1424,o),
(1917,1422,q),
(1503,164,l),
(1487,123,o),
(1476.5,97.5,q),
(1466,72,o),
(1455.5,55.5,q),
(1445,39,o),
(1431.5,28,q),
(1418,17,o),
(1395.5,6,q),
(1373,-5,o),
(1339,-19.5,q),
(1305,-34,o),
(1253,-59,q),
(1235,-68,o),
(1225,-68,q),
(1209,-68,o),
(1201,-56,q),
(1193,-44,o),
(1188,-29,q),
(1017,580,l),
(803,139,l),
(798,127,o),
(780,107,q),
(762,87,o),
(739.5,66,q),
(717,45,o),
(694.5,25.5,q),
(672,6,o),
(658,-6,q),
(645,-17,o),
(630.5,-28,q),
(616,-39,o),
(601,-48,q),
(586,-57,o),
(572.5,-62.5,q),
(559,-68,o),
(547,-68,q),
(521,-68,o),
(513,-39,q),
(125,1329,l),
(123,1337,o),
(120.5,1345,q),
(118,1353,o),
(118,1360,q),
(118,1385,o),
(130,1402,q),
(142,1419,o),
(172,1431,q),
(202,1443,o),
(252,1450.5,q),
(302,1458,o),
(379,1463,q),
(415,1468,o),
(439.5,1470,q),
(464,1472,o),
(481,1472,q),
(510,1472,o),
(519,1463,q),
(528,1454,o),
(535,1433,q),
(741,640,l),
(912,934,l),
(843,1235,l),
(837,1259,o),
(838,1271,q),
(838,1294,o),
(850,1308,q),
(862,1322,o),
(890,1331,q),
(918,1340,o),
(963.5,1347,q),
(1009,1354,o),
(1075,1363,q),
(1104,1367,o),
(1125,1369,q),
(1146,1371,o),
(1161,1371,q),
(1191,1371,o),
(1202,1362,q),
(1213,1353,o),
(1218,1333,q),
(1354,717,l),
(1551,1357,l)
);
}
);
width = 1832;
}
);
unicode = 87;
},
{
category = Letter;
glyphname = X;
layers = (
{
layerId = "343d4ea0-2832-40ed-9abc-f55d5da1b22f";
name = Fore;
shapes = (
{
closed = 1;
nodes = (
(454,1444,o),
(454,1444,q),
(463,1444,l),
(480,1444,o),
(496,1432.5,q),
(512,1421,o),
(528,1393,q),
(539,1373,o),
(559.5,1334,q),
(580,1295,o),
(604,1250,q),
(628,1205,o),
(652,1159.5,q),
(676,1114,o),
(694,1081,q),
(860,1367,l),
(1256,1447,l),
(1261,1448,o),
(1265.5,1448.5,q),
(1270,1449,o),
(1275,1449,q),
(1297,1449,o),
(1297,1432,q),
(1297,1426,o),
(1294.5,1416.5,q),
(1292,1407,o),
(1286,1396,q),
(1105,1073,l),
(1033,950,l),
(1001,896,o),
(964.5,834,q),
(928,772,o),
(896,717,q),
(914,687,o),
(929.5,659,q),
(945,631,o),
(957.5,608,q),
(970,585,o),
(978.5,568,q),
(987,551,o),
(992,542,q),
(1235,81,l),
(1232,44,l),
(1232,41,o),
(1219,32.5,q),
(1206,24,o),
(1184.5,13,q),
(1163,2,o),
(1135.5,-10,q),
(1108,-22,o),
(1078,-32,q),
(1007,-56,l),
(994,-56,o),
(978.5,-62.5,q),
(963,-69,o),
(946,-69,q),
(932,-69,o),
(919.5,-62.5,q),
(907,-56,o),
(894,-36,q),
(871,-3,o),
(843,42,q),
(815,87,o),
(783,145,q),
(673,339,l),
(515,72,l),
(484,42,l),
(483,39,o),
(466,32.5,q),
(449,26,o),
(421.5,16.5,q),
(394,7,o),
(360,-4,q),
(326,-15,o),
(292.5,-25,q),
(259,-35,o),
(228,-43.5,q),
(197,-52,o),
(177,-57,q),
(165,-57,o),
(142.5,-63,q),
(120,-69,o),
(103,-69,q),
(94,-69,o),
(88,-65.5,q),
(82,-62,o),
(82,-54,q),
(82,-45,o),
(91,-23,q),
(100,-1,o),
(115,28.5,q),
(130,58,o),
(148.5,93,q),
(167,128,o),
(186,163,q),
(205,198,o),
(223,230,q),
(241,262,o),
(254,286,q),
(303,380,o),
(359,481,q),
(472,685,l),
(124,1306,l),
(114,1323,o),
(114,1341,q),
(114,1352,o),
(122,1355,q),
(446,1442,l)
);
}
);
width = 1244;
}
);
unicode = 88;
},
{
category = Letter;
glyphname = Y;
kernLeft = Y.2;
kernRight = Y;
layers = (
{
layerId = "343d4ea0-2832-40ed-9abc-f55d5da1b22f";
name = Fore;
shapes = (
{
closed = 1;
nodes = (
(125,1336,o),
(139.5,1342.5,q),
(154,1349,o),
(173.5,1357,q),
(193,1365,o),
(215.5,1374.5,q),
(238,1384,o),
(261,1393,q),
(377,1439,l),
(390,1445,o),
(401,1445,q),
(409,1445,o),
(418.5,1440.5,q),
(428,1436,o),
(440,1424,q),
(671,976,l),
(677,991,l),
(776,1174,l),
(795,1208,o),
(813.5,1241,q),
(832,1274,o),
(846.5,1300,q),
(861,1326,o),
(871,1342,q),
(881,1358,o),
(883,1358,q),
(1226,1444,l),
(1238,1447,o),
(1246,1447,q),
(1269,1447,o),
(1269,1426,q),
(1268,1421,o),
(1267,1412.5,q),
(1266,1404,o),
(1261,1394,q),
(967,849,l),
(945,808,o),
(922.5,767,q),
(900,726,o),
(879,689.5,q),
(858,653,o),
(841.5,623,q),
(825,593,o),
(815,574,q),
(808,541,l),
(752,166,l),
(749,149,o),
(747,138,q),
(745,127,o),
(741.5,120,q),
(738,113,o),
(732.5,108,q),
(727,103,o),
(717,98,q),
(433,-51,l),
(417,-59,o),
(399.5,-64,q),
(382,-69,o),
(366,-69,q),
(349,-69,o),
(337,-61.5,q),
(325,-54,o),
(325,-37,q),
(325,-33,l),
(329,24,o),
(339.5,99.5,q),
(350,175,o),
(362,247,q),
(418,618,l),
(402,652,o),
(376,708,q),
(350,764,o),
(320,829,q),
(290,894,o),
(257.5,963,q),
(225,1032,o),
(196.5,1093.5,q),
(168,1155,o),
(145.5,1202,q),
(123,1249,o),
(112,1271,q),
(107,1286,o),
(107,1302,q),
(107,1311,o),
(109.5,1319.5,q),
(112,1328,o),
(119,1332,q)
);
}
);
width = 1115;
}
);
unicode = 89;
},
{
category = Letter;
glyphname = Z;
kernLeft = Z.2;
kernRight = Z;
layers = (
{
layerId = "343d4ea0-2832-40ed-9abc-f55d5da1b22f";
name = Fore;
shapes = (
{
closed = 1;
nodes = (
(193,0,o),
(181,2.5,q),
(169,5,o),
(159,11.5,q),
(149,18,o),
(142.5,29.5,q),
(136,41,o),
(136,60,q),
(136,62,o),
(137,64,q),
(138,66,o),
(138,68,q),
(659,982,l),
(659,985,o),
(637.5,987.5,q),
(616,990,o),
(582.5,991.5,q),
(549,993,o),
(509,994.5,q),
(469,996,o),
(432.5,996.5,q),
(396,997,o),
(367.5,997.5,q),
(339,998,o),
(329,998,q),
(275,998,o),
(228,996.5,q),
(181,995,o),
(130,995,q),
(119,995,o),
(111,1002.5,q),
(103,1010,o),
(103,1020,q),
(104,1021,o),
(104,1022,q),
(104,1025,o),
(105,1028,q),
(234,1337,l),
(243,1359,o),
(261.5,1372.5,q),
(280,1386,o),
(303.5,1393.5,q),
(327,1401,o),
(354,1403.5,q),
(381,1406,o),
(407,1406,q),
(516,1406,o),
(622,1401.5,q),
(728,1397,o),
(833.5,1392,q),
(939,1387,o),
(1044.5,1382.5,q),
(1150,1378,o),
(1258,1378,q),
(1258,1337,l),
(771,427,l),
(771,425,o),
(770.5,424.5,q),
(770,424,o),
(770,422,q),
(770,411,o),
(780,409.5,q),
(790,408,o),
(798,408,q),
(996,408,l),
(1056,408,o),
(1112,415.5,q),
(1168,423,o),
(1228,423,q),
(1240,423,o),
(1250,415.5,q),
(1260,408,o),
(1260,397,q),
(1260,398,o),
(1258,388,q),
(1097,68,l),
(1089,44,o),
(1067.5,30,q),
(1046,16,o),
(1015.5,9,q),
(985,2,o),
(948,0,q),
(911,-2,o),
(872,-2,q),
(715,-2,o),
(553.5,-1,q),
(392,0,o),
(205,0,q)
);
}
);
width = 1249;
}
);
unicode = 90;
},
{
category = Letter;
glyphname = bracketleft;
layers = (
{
layerId = "343d4ea0-2832-40ed-9abc-f55d5da1b22f";
name = Fore;
shapes = (
{
closed = 1;
nodes = (
(227,1346,o),
(232,1359.5,q),
(237,1373,o),
(243,1380,q),
(249,1387,o),
(256,1389,q),
(263,1391,o),
(269,1392,q),
(880,1450,l),
(881,1450,o),
(885.5,1449.5,q),
(890,1449,o),
(895,1446.5,q),
(900,1444,o),
(904.5,1438,q),
(909,1432,o),
(909,1421,q),
(908,1415,o),
(894.5,1369.5,q),
(881,1324,o),
(855,1257,q),
(811,1141,l),
(806,1127,o),
(799,1119,q),
(792,1111,o),
(773,1106.5,q),
(754,1102,o),
(719,1098.5,q),
(684,1095,o),
(623,1090,q),
(621,1077,o),
(616,1028,q),
(611,979,o),
(604.5,909,q),
(598,839,o),
(589.5,756,q),
(581,673,o),
(572,592,q),
(538,177,l),
(731,179,l),
(743,179,o),
(743,168,q),
(743,162,o),
(739.5,154,q),
(736,146,o),
(731,138,q),
(730,136,o),
(720.5,110.5,q),
(711,85,o),
(698.5,51.5,q),
(686,18,o),
(672.5,-16.5,q),
(659,-51,o),
(650,-72,q),
(636,-98,o),
(617,-105.5,q),
(598,-113,o),
(573,-113,q),
(558,-113,o),
(541,-112,q),
(524,-111,o),
(504,-109,q),
(458,-106,o),
(409.5,-104,q),
(361,-102,o),
(314,-99.5,q),
(267,-97,o),
(222.5,-92.5,q),
(178,-88,o),
(141,-79,q),
(130,-78,o),
(127.5,-67.5,q),
(125,-57,o),
(125,-46,q),
(125,-41,o),
(127.5,-3,q),
(130,35,o),
(134.5,96.5,q),
(139,158,o),
(144.5,237,q),
(150,316,o),
(156.5,402.5,q),
(163,489,o),
(170,579,q),
(177,669,o),
(183,751,q),
(226,1322,l)
);
}
);
width = 804;
}
);
unicode = 91;
},
{
category = Letter;
glyphname = backslash;
layers = (
{
layerId = "343d4ea0-2832-40ed-9abc-f55d5da1b22f";
name = Fore;
shapes = (
{
closed = 1;
nodes = (
(734,809,o),
(784,697,q),
(834,585,o),
(879,485,q),
(924,385,o),
(966.5,291.5,q),
(1009,198,o),
(1055,101,q),
(1060,88,o),
(1060,82,q),
(1060,69,o),
(1047.5,59,q),
(1035,49,o),
(1018.5,41.5,q),
(1002,34,o),
(985.5,28.5,q),
(969,23,o),
(962,20,q),
(861,-22,l),
(846,-29,o),
(835,-29,q),
(820,-29,o),
(816.5,-15.5,q),
(813,-2,o),
(806,15,q),
(165,1429,l),
(164,1430,o),
(164,1432,q),
(164,1437,o),
(169,1440,q),
(174,1443,o),
(180,1445,q),
(233,1455,o),
(285.5,1480.5,q),
(338,1506,o),
(392,1528,q),
(398,1528,l),
(412,1528,o),
(419.5,1516.5,q),
(427,1505,o),
(440,1476,q),
(500,1339,o),
(556,1207,q),
(612,1075,o),
(673,943,q)
);
}
);
width = 1094;
}
);
unicode = 92;
},
{
category = Letter;
glyphname = bracketright;
layers = (
{
layerId = "343d4ea0-2832-40ed-9abc-f55d5da1b22f";
name = Fore;
shapes = (
{
closed = 1;
nodes = (
(691,-22,o),
(686,-35.5,q),
(681,-49,o),
(675,-56,q),
(669,-63,o),
(662.5,-65,q),
(656,-67,o),
(650,-68,q),
(380,-77,l),
(328,-79,o),
(276,-80.5,q),
(224,-82,o),
(180,-83.5,q),
(136,-85,o),
(104,-85.5,q),
(72,-86,o),
(59,-86,q),
(58,-86,o),
(53.5,-85.5,q),
(49,-85,o),
(43.5,-82.5,q),
(38,-80,o),
(34,-74,q),
(30,-68,o),
(30,-57,q),
(29,-54,o),
(39.5,-15.5,q),
(50,23,o),
(73,90,q),
(108,193,l),
(114,210,o),
(123.5,219,q),
(133,228,o),
(162,229,q),
(317,234,l),
(318,243,o),
(320,268.5,q),
(322,294,o),
(324.5,331,q),
(327,368,o),
(330.5,415,q),
(334,462,o),
(338,514.5,q),
(342,567,o),
(346.5,622.5,q),
(351,678,o),
(356,732,q),
(385,1147,l),
(192,1145,l),
(182,1145,o),
(179,1150,q),
(176,1155,o),
(176,1163,q),
(176,1168,o),
(176.5,1173.5,q),
(177,1179,o),
(177,1186,q),
(177,1188,o),
(177.5,1211,q),
(178,1234,o),
(178.5,1264.5,q),
(179,1295,o),
(179.5,1326.5,q),
(180,1358,o),
(180,1376,q),
(180,1408,o),
(195.5,1417,q),
(211,1426,o),
(237,1426,q),
(254,1426,o),
(273,1424.5,q),
(292,1423,o),
(312,1423,q),
(783,1423,l),
(795,1423,o),
(797,1411.5,q),
(799,1400,o),
(799,1390,q),
(799,1384,o),
(798,1364,q),
(797,1344,o),
(795.5,1316.5,q),
(794,1289,o),
(791.5,1257,q),
(789,1225,o),
(786,1197,q),
(785,1172,o),
(781.5,1124.5,q),
(778,1077,o),
(773,1018,q),
(768,959,o),
(762.5,894,q),
(757,829,o),
(751.5,768,q),
(746,707,o),
(742,655.5,q),
(738,604,o),
(736,573,q),
(693,2,l)
);
}
);
width = 807;
}
);
unicode = 93;
},
{
category = Letter;
glyphname = asciicircum;
layers = (
{
layerId = "343d4ea0-2832-40ed-9abc-f55d5da1b22f";
name = Fore;
shapes = (
{
closed = 1;
nodes = (
(742,108,o),
(732,144,q),
(722,180,o),
(709,225,q),
(696,270,o),
(682.5,319,q),
(669,368,o),
(657,411,q),
(645,454,o),
(636.5,485.5,q),
(628,517,o),
(625,528,q),
(394,88,l),
(389,76,o),
(369,76,q),
(333,85,o),
(293.5,91,q),
(254,97,o),
(213.5,101.5,q),
(173,106,o),
(132.5,109,q),
(92,112,o),
(55,115,q),
(41,118,o),
(41,128,q),
(41,140,o),
(57,176,q),
(95,246,o),
(135.5,323,q),
(176,400,o),
(217,477.5,q),
(258,555,o),
(297.5,630,q),
(337,705,o),
(372,770,q),
(407,835,o),
(437,887,q),
(467,939,o),
(489,972,q),
(490,975,o),
(494,979,q),
(498,983,o),
(503,984,q),
(510,985,l),
(511,985,o),
(512,984.5,q),
(513,984,o),
(515,984,q),
(596,975,o),
(674.5,970.5,q),
(753,966,o),
(828,964,q),
(837,964,o),
(843.5,961.5,q),
(850,959,o),
(855.5,953,q),
(861,947,o),
(865.5,936.5,q),
(870,926,o),
(876,910,q),
(1128,214,l),
(1130,203,o),
(1131.5,195.5,q),
(1133,188,o),
(1133,182,q),
(1133,158,o),
(1111,151,q),
(1026,137,o),
(940,122.5,q),
(854,108,o),
(769,86,q),
(763,84,o),
(757,84,q),
(749,84,o),
(747,92,q)
);
}
);
width = 1190;
}
);
unicode = 94;
},
{
category = Letter;
glyphname = underscore;
layers = (
{
layerId = "343d4ea0-2832-40ed-9abc-f55d5da1b22f";
name = Fore;
shapes = (
{
closed = 1;
nodes = (
(89,-58,o),
(54.5,-53.5,q),
(20,-49,o),
(20,-34,q),
(20,-26,o),
(26.5,-9.5,q),
(33,7,o),
(44,26.5,q),
(55,46,o),
(69,67.5,q),
(83,89,o),
(99,106.5,q),
(115,124,o),
(131.5,135.5,q),
(148,147,o),
(163,148,q),
(515,158,l),
(529,158,o),
(565,158.5,q),
(601,159,o),
(647.5,159.5,q),
(694,160,o),
(744,161,q),
(794,162,o),
(837,162.5,q),
(880,163,o),
(909.5,163.5,q),
(939,164,o),
(943,164,q),
(956,163,o),
(967,159,q),
(976,155,o),
(983.5,148.5,q),
(991,142,o),
(991,129,q),
(991,116,o),
(988,90,q),
(985,64,o),
(981,38,q),
(972,-29,l),
(970,-40,o),
(962.5,-46,q),
(955,-52,o),
(923,-52,q),
(766,-52,l),
(734,-52,o),
(699.5,-52,q),
(665,-52,o),
(631.5,-52.5,q),
(598,-53,o),
(567,-53,q),
(536,-53,o),
(512,-53,q),
(167,-58,l)
);
}
);
width = 1041;
}
);
unicode = 95;
},
{
category = Letter;
glyphname = grave;
layers = (
{
layerId = "343d4ea0-2832-40ed-9abc-f55d5da1b22f";
name = Fore;
shapes = (
{
closed = 1;
nodes = (
(149,1469,o),
(133,1497,q),
(117,1525,o),
(103,1550,q),
(89,1575,o),
(73,1603.5,q),
(57,1632,o),
(35,1674,q),
(29,1685,o),
(27.5,1695,q),
(26,1705,o),
(25,1713,q),
(25,1724,o),
(30,1730.5,q),
(35,1737,o),
(45,1742,q),
(82,1763,o),
(122.5,1784.5,q),
(163,1806,o),
(204,1828.5,q),
(245,1851,o),
(285.5,1875,q),
(326,1899,o),
(363,1925,q),
(373,1930,o),
(377,1930,q),
(383,1930,o),
(385,1922,q),
(497,1337,l),
(499,1324,o),
(501,1315.5,q),
(503,1307,o),
(503,1299,q),
(503,1290,o),
(500,1282,q),
(497,1274,o),
(487,1269,q),
(466,1260,o),
(448,1252,q),
(430,1244,o),
(412.5,1235.5,q),
(395,1227,o),
(375.5,1217,q),
(356,1207,o),
(332,1192,q),
(328,1188,o),
(321,1188,q),
(312,1188,o),
(301,1201.5,q),
(290,1215,o),
(273.5,1243.5,q),
(257,1272,o),
(232.5,1317.5,q),
(208,1363,o),
(172,1427,q)
);
}
);
width = 561;
}
);
unicode = 96;
},
{
category = Letter;
glyphname = a;
kernLeft = a.2;
kernRight = a;
layers = (
{
layerId = "343d4ea0-2832-40ed-9abc-f55d5da1b22f";
name = Fore;
shapes = (
{
closed = 1;
nodes = (
(1140,197,o),
(1140,193.5,q),
(1140,190,o),
(1140,187,q),
(1140,162,o),
(1148,145.5,q),
(1156,129,o),
(1165.5,118.5,q),
(1175,108,o),
(1183,101.5,q),
(1191,95,o),
(1191,90,q),
(1191,76,o),
(1161,64,q),
(892,-51,l),
(891,-52,o),
(885,-52,q),
(877,-52,o),
(869,-38,q),
(861,-24,o),
(853.5,-2.5,q),
(846,19,o),
(839.5,43.5,q),
(833,68,o),
(828,89,q),
(765,16,o),
(692,-18,q),
(619,-52,o),
(547,-52,q),
(463,-52,o),
(383,-15,q),
(303,22,o),
(241,90.5,q),
(179,159,o),
(141.5,256,q),
(104,353,o),
(104,474,q),
(104,617,o),
(145.5,735,q),
(187,853,o),
(258,938,q),
(329,1023,o),
(423.5,1069.5,q),
(518,1116,o),
(624,1116,q),
(699,1116,o),
(766,1085.5,q),
(833,1055,o),
(893,1007,q),
(899,1037,o),
(900,1055,q),
(901,1073,o),
(904.5,1083,q),
(908,1093,o),
(918,1096.5,q),
(928,1100,o),
(951,1102,q),
(1023,1112,o),
(1094.5,1120.5,q),
(1166,1129,o),
(1244,1133,q),
(1141,201,l)
);
},
{
closed = 1;
nodes = (
(852,635,o),
(855.5,685.5,q),
(859,736,o),
(861,778,q),
(845,790,o),
(826.5,803,q),
(808,816,o),
(786.5,827.5,q),
(765,839,o),
(741.5,846,q),
(718,853,o),
(692,853,q),
(638,853,o),
(601.5,818,q),
(565,783,o),
(542.5,732,q),
(520,681,o),
(510.5,624,q),
(501,567,o),
(501,523,q),
(501,365,o),
(542.5,291.5,q),
(584,218,o),
(658,218,q),
(688,218,o),
(725,235,q),
(762,252,o),
(800,282,q),
(842,578,l)
);
}
);
width = 1248;
}
);
unicode = 97;
},
{
category = Letter;
glyphname = b;
layers = (
{
layerId = "343d4ea0-2832-40ed-9abc-f55d5da1b22f";
name = Fore;
shapes = (
{
closed = 1;
nodes = (
(552,306,o),
(570.5,285.5,q),
(589,265,o),
(613.5,248,q),
(638,231,o),
(667,220.5,q),
(696,210,o),
(727,210,q),
(770,210,o),
(808,243.5,q),
(846,277,o),
(874.5,333.5,q),
(903,390,o),
(919,462.5,q),
(935,535,o),
(935,613,q),
(935,661,o),
(926.5,704,q),
(918,747,o),
(900,779,q),
(882,811,o),
(853.5,830,q),
(825,849,o),
(785,849,q),
(720,849,o),
(666,811,q),
(612,773,o),
(575,714,q),
(542,326,l)
);
},
{
closed = 1;
nodes = (
(156,-52,o),
(148,-52,q),
(116,-52,o),
(116,-14,q),
(116,-9,o),
(116.5,-4,q),
(117,1,o),
(118,7,q),
(234,1422,l),
(234,1425,o),
(234.5,1428,q),
(235,1431,o),
(235,1433,q),
(235,1437,o),
(234.5,1440,q),
(234,1443,o),
(234,1445,q),
(234,1454,o),
(240.5,1459.5,q),
(247,1465,o),
(274,1472,q),
(555,1539,l),
(566,1541,o),
(584,1548,q),
(602,1555,o),
(619,1555,q),
(632,1555,o),
(643.5,1549,q),
(655,1543,o),
(655,1526,q),
(655,1524,o),
(654.5,1522,q),
(654,1520,o),
(654,1518,q),
(653,1513,o),
(649,1474,q),
(645,1435,o),
(640,1379.5,q),
(635,1324,o),
(629,1260.5,q),
(623,1197,o),
(618,1141.5,q),
(613,1086,o),
(609,1047,q),
(605,1008,o),
(604,1003,q),
(677,1051,o),
(755,1083.5,q),
(833,1116,o),
(911,1116,q),
(1014,1116,o),
(1089,1073.5,q),
(1164,1031,o),
(1213,960.5,q),
(1262,890,o),
(1285.5,798,q),
(1309,706,o),
(1309,608,q),
(1309,529,o),
(1294.5,449.5,q),
(1280,370,o),
(1252.5,297,q),
(1225,224,o),
(1183.5,160,q),
(1142,96,o),
(1088.5,49,q),
(1035,2,o),
(969,-25,q),
(903,-52,o),
(826,-52,q),
(733,-52,o),
(656,-11,q),
(579,30,o),
(513,95,q),
(511,71,o),
(510,57,q),
(509,43,o),
(503.5,35.5,q),
(498,28,o),
(487,23.5,q),
(476,19,o),
(454,14,q),
(443,11,o),
(415.5,4.5,q),
(388,-2,o),
(349.5,-10.5,q),
(311,-19,o),
(264.5,-29,q),
(218,-39,o),
(170,-49,q)
);
}
);
width = 1319;
}
);
unicode = 98;
},
{
category = Letter;
glyphname = c;
kernLeft = c.2;
kernRight = c;
layers = (
{
layerId = "343d4ea0-2832-40ed-9abc-f55d5da1b22f";
name = Fore;
shapes = (
{
closed = 1;
nodes = (
(100,619,o),
(148.5,733.5,q),
(197,848,o),
(282.5,933,q),
(368,1018,o),
(484.5,1067,q),
(601,1116,o),
(738,1116,q),
(831,1116,o),
(897,1101,q),
(963,1086,o),
(1005,1067.5,q),
(1047,1049,o),
(1066.5,1033.5,q),
(1086,1018,o),
(1086,1017,q),
(1086,1011,o),
(1081.5,983.5,q),
(1077,956,o),
(1071.5,919.5,q),
(1066,883,o),
(1061.5,844.5,q),
(1057,806,o),
(1057,778,q),
(1057,773,o),
(1054,767,q),
(1051,761,o),
(1038,761,q),
(1026,761,o),
(1003,769.5,q),
(980,778,o),
(946.5,788,q),
(913,798,o),
(869.5,806.5,q),
(826,815,o),
(773,815,q),
(707,815,o),
(654,791.5,q),
(601,768,o),
(563,726.5,q),
(525,685,o),
(504.5,628,q),
(484,571,o),
(484,505,q),
(484,436,o),
(505.5,387.5,q),
(527,339,o),
(563,308.5,q),
(599,278,o),
(646,264,q),
(693,250,o),
(745,250,q),
(805,250,o),
(866,266.5,q),
(927,283,o),
(981,313,q),
(983,314,o),
(989,314,q),
(994,314,o),
(996.5,309,q),
(999,304,o),
(999,290,q),
(999,258,o),
(999,212.5,q),
(999,167,o),
(998.5,125.5,q),
(998,84,o),
(997,55,q),
(996,26,o),
(995,26,q),
(959,2,o),
(917,-13,q),
(875,-28,o),
(830.5,-37,q),
(786,-46,o),
(741,-49,q),
(696,-52,o),
(654,-52,q),
(537,-52,o),
(436,-13,q),
(335,26,o),
(260.5,97,q),
(186,168,o),
(143,267.5,q),
(100,367,o),
(100,488,q)
);
}
);
width = 1053;
}
);
unicode = 99;
},
{
category = Letter;
glyphname = d;
layers = (
{
layerId = "343d4ea0-2832-40ed-9abc-f55d5da1b22f";
name = Fore;
shapes = (
{
closed = 1;
nodes = (
(880,601,o),
(883.5,636,q),
(887,671,o),
(892,709,q),
(869,769,o),
(827,806.5,q),
(785,844,o),
(722,844,q),
(660,844,o),
(617,808.5,q),
(574,773,o),
(548,721,q),
(522,669,o),
(510.5,611.5,q),
(499,554,o),
(499,510,q),
(499,456,o),
(505.5,403,q),
(512,350,o),
(526.5,307,q),
(541,264,o),
(565,237.5,q),
(589,211,o),
(625,211,q),
(713,214,o),
(768,251,q),
(823,288,o),
(856,341,q),
(877,569,l)
);
},
{
closed = 1;
nodes = (
(1226,99,o),
(1225.5,96.5,q),
(1225,94,o),
(1225,92,q),
(1225,87,o),
(1225.5,84,q),
(1226,81,o),
(1226,78,q),
(1226,69,o),
(1219.5,63.5,q),
(1213,58,o),
(1186,51,q),
(918,-36,l),
(907,-40,o),
(889,-46,q),
(871,-52,o),
(854,-52,q),
(840,-52,o),
(829.5,-45,q),
(819,-38,o),
(819,-19,q),
(819,-1,o),
(819.5,10,q),
(820,21,o),
(820.5,30.5,q),
(821,40,o),
(822.5,51,q),
(824,62,o),
(826,80,q),
(751,20,o),
(671.5,-16,q),
(592,-52,o),
(504,-52,q),
(408,-52,o),
(333.5,-6.5,q),
(259,39,o),
(208,115.5,q),
(157,192,o),
(130.5,290.5,q),
(104,389,o),
(104,496,q),
(104,635,o),
(149.5,749.5,q),
(195,864,o),
(273,945.5,q),
(351,1027,o),
(455,1071.5,q),
(559,1116,o),
(676,1116,q),
(739,1116,o),
(796.5,1083,q),
(854,1050,o),
(905,998,q),
(908,1047,o),
(912,1104.5,q),
(916,1162,o),
(920,1221.5,q),
(924,1281,o),
(928,1339,q),
(932,1397,o),
(935,1445,q),
(935,1454,o),
(941.5,1459.5,q),
(948,1465,o),
(975,1472,q),
(1256,1539,l),
(1267,1541,o),
(1285,1548,q),
(1303,1555,o),
(1320,1555,q),
(1333,1555,o),
(1344.5,1549,q),
(1356,1543,o),
(1356,1526,q),
(1356,1524,o),
(1355.5,1517.5,q),
(1355,1511,o),
(1355,1509,q),
(1226,101,l)
);
}
);
width = 1329;
}
);
unicode = 100;
},
{
category = Letter;
glyphname = e;
kernLeft = c.2;
kernRight = e;
layers = (
{
layerId = "343d4ea0-2832-40ed-9abc-f55d5da1b22f";
name = Fore;
shapes = (
{
closed = 1;
nodes = (
(811,1116,o),
(888.5,1080.5,q),
(966,1045,o),
(1021.5,988.5,q),
(1077,932,o),
(1107,862,q),
(1137,792,o),
(1137,722,q),
(1137,660,o),
(1099,597.5,q),
(1061,535,o),
(992.5,485,q),
(924,435,o),
(828,404,q),
(732,373,o),
(617,373,q),
(557,373,o),
(491,385,q),
(495,342,o),
(516,311,q),
(537,280,o),
(569,260,q),
(601,240,o),
(641.5,230.5,q),
(682,221,o),
(725,221,q),
(773,221,o),
(817.5,229.5,q),
(862,238,o),
(903,252,q),
(944,266,o),
(982,283,q),
(1020,300,o),
(1054,317,q),
(1063,319,o),
(1069.5,320.5,q),
(1076,322,o),
(1082,322,q),
(1082,322,o),
(1081.5,306,q),
(1081,290,o),
(1081,261,q),
(1081,232,o),
(1080.5,191,q),
(1080,150,o),
(1079,100,q),
(1082,95,o),
(1083,90,q),
(1084,85,o),
(1084,82,q),
(1084,70,o),
(1062,56,q),
(1040,42,o),
(1004.5,27,q),
(969,12,o),
(923.5,-2,q),
(878,-16,o),
(831,-27.5,q),
(784,-39,o),
(740,-45.5,q),
(696,-52,o),
(663,-52,q),
(555,-52,o),
(453.5,-14.5,q),
(352,23,o),
(273.5,93,q),
(195,163,o),
(148,263,q),
(101,363,o),
(101,488,q),
(101,619,o),
(146,733.5,q),
(191,848,o),
(272.5,933,q),
(354,1018,o),
(467,1067,q),
(580,1116,o),
(716,1116,q)
);
},
{
closed = 1;
nodes = (
(663,850,o),
(628.5,832.5,q),
(594,815,o),
(565.5,782.5,q),
(537,750,o),
(516,704.5,q),
(495,659,o),
(482,604,q),
(585,622,o),
(653,642,q),
(721,662,o),
(762,682.5,q),
(803,703,o),
(820,723.5,q),
(837,744,o),
(837,763,q),
(837,781,o),
(823.5,797,q),
(810,813,o),
(790,825,q),
(770,837,o),
(746.5,843.5,q),
(723,850,o),
(704,850,q)
);
}
);
width = 1142;
}
);
unicode = 101;
},
{
category = Letter;
glyphname = f;
kernLeft = f;
layers = (
{
layerId = "343d4ea0-2832-40ed-9abc-f55d5da1b22f";
name = Fore;
shapes = (
{
closed = 1;
nodes = (
(233,-4,o),
(236.5,32.5,q),
(240,69,o),
(245,125,q),
(250,181,o),
(256.5,253.5,q),
(263,326,o),
(271,409.5,q),
(279,493,o),
(287.5,584,q),
(296,675,o),
(305,768,q),
(172,768,l),
(118,768,o),
(94,772.5,q),
(70,777,o),
(70,791,q),
(70,795,o),
(80,812.5,q),
(90,830,o),
(105.5,854.5,q),
(121,879,o),
(139,907,q),
(157,935,o),
(173.5,959.5,q),
(190,984,o),
(202,1002,q),
(214,1020,o),
(217,1024,q),
(339,1024,l),
(359,1183,l),
(373,1309,o),
(409.5,1395,q),
(446,1481,o),
(500.5,1534,q),
(555,1587,o),
(625,1610,q),
(695,1633,o),
(775,1633,q),
(855,1633,o),
(941.5,1613.5,q),
(1028,1594,o),
(1116,1560,q),
(1135,1552,o),
(1144.5,1546.5,q),
(1154,1541,o),
(1154,1532,q),
(1154,1524,o),
(1147,1511,q),
(1115,1449,o),
(1099.5,1411,q),
(1084,1373,o),
(1075,1351,q),
(1066,1329,o),
(1060,1321.5,q),
(1054,1314,o),
(1042,1314,q),
(1036,1314,o),
(1029.5,1317,q),
(1023,1320,o),
(1014,1324,q),
(979,1337,o),
(943.5,1347.5,q),
(908,1358,o),
(876,1358,q),
(831,1358,o),
(798.5,1330,q),
(766,1302,o),
(747,1224,q),
(736,1179,o),
(729,1127,q),
(722,1075,o),
(717,1024,q),
(978,1024,l),
(986,1024,o),
(993.5,1018.5,q),
(1001,1013,o),
(1001,1000,q),
(1001,995,o),
(989,964,q),
(977,933,o),
(955,883,q),
(919,802,l),
(912,787,o),
(904.5,780,q),
(897,773,o),
(874,771,q),
(701,771,l),
(690,667,o),
(680,565,q),
(670,463,o),
(661,373.5,q),
(652,284,o),
(645,214.5,q),
(638,145,o),
(634,107,q),
(633,104,o),
(633,96,q),
(633,92,o),
(633.5,89,q),
(634,86,o),
(634,84,q),
(634,75,o),
(627.5,69.5,q),
(621,64,o),
(594,57,q),
(331,-36,l),
(320,-40,o),
(302,-46,q),
(284,-52,o),
(267,-52,q),
(250,-52,o),
(241,-44,q),
(232,-36,o),
(232,-15,q)
);
}
);
width = 910;
}
);
unicode = 102;
},
{
category = Letter;
glyphname = g;
kernLeft = g.2;
kernRight = g;
layers = (
{
layerId = "343d4ea0-2832-40ed-9abc-f55d5da1b22f";
name = Fore;
shapes = (
{
closed = 1;
nodes = (
(839,736,o),
(821.5,760,q),
(804,784,o),
(781,804,q),
(758,824,o),
(731,836.5,q),
(704,849,o),
(674,849,q),
(633,849,o),
(597,815,q),
(561,781,o),
(534,724.5,q),
(507,668,o),
(491.5,595.5,q),
(476,523,o),
(476,445,q),
(476,397,o),
(484.5,354.5,q),
(493,312,o),
(511,280,q),
(529,248,o),
(557.5,229,q),
(586,210,o),
(626,210,q),
(686,210,o),
(736,247.5,q),
(786,285,o),
(821,345,q),
(822,366,o),
(824,395,q),
(826,424,o),
(829,465.5,q),
(832,507,o),
(836.5,563.5,q),
(841,620,o),
(848,698,q),
(849,713,l)
);
},
{
closed = 1;
nodes = (
(1170,10,o),
(1135,-76,q),
(1100,-162,o),
(1046.5,-233.5,q),
(993,-305,o),
(924.5,-361.5,q),
(856,-418,o),
(779.5,-457,q),
(703,-496,o),
(622,-516.5,q),
(541,-537,o),
(462,-537,q),
(420,-537,o),
(376,-534,q),
(332,-531,o),
(290,-522.5,q),
(248,-514,o),
(210,-498.5,q),
(172,-483,o),
(142,-459,q),
(142,-458,l),
(142,-453,o),
(149.5,-423,q),
(157,-393,o),
(167.5,-352.5,q),
(178,-312,o),
(189.5,-269,q),
(201,-226,o),
(209,-195,q),
(213,-181,o),
(217,-176,q),
(221,-171,o),
(226,-171,q),
(232,-171,o),
(233,-172,q),
(262,-191,o),
(287.5,-203.5,q),
(313,-216,o),
(341.5,-223.5,q),
(370,-231,o),
(404,-234,q),
(438,-237,o),
(483,-237,q),
(553,-237,o),
(607,-210,q),
(661,-183,o),
(700,-140,q),
(739,-97,o),
(762.5,-45.5,q),
(786,6,o),
(795,56,q),
(723,8,o),
(649,-22,q),
(575,-52,o),
(500,-52,q),
(397,-52,o),
(322,-10.5,q),
(247,31,o),
(198,101,q),
(149,171,o),
(125.5,261.5,q),
(102,352,o),
(102,451,q),
(102,529,o),
(116.5,608.5,q),
(131,688,o),
(159.5,762,q),
(188,836,o),
(230,900.5,q),
(272,965,o),
(327,1013,q),
(382,1061,o),
(449,1088.5,q),
(516,1116,o),
(595,1116,q),
(681,1116,o),
(754.5,1078,q),
(828,1040,o),
(888,984,q),
(890,1002,o),
(891,1012.5,q),
(892,1023,o),
(896,1029,q),
(900,1035,o),
(909.5,1038,q),
(919,1041,o),
(937,1045,q),
(948,1047,o),
(977,1053.5,q),
(1006,1060,o),
(1046,1069,q),
(1086,1078,o),
(1134,1088,q),
(1182,1098,o),
(1231,1109,q),
(1243,1112,o),
(1253,1112,q),
(1284,1112,o),
(1284,1072,q),
(1284,1067,o),
(1284,1062.5,q),
(1284,1058,o),
(1283,1053,q),
(1180,109,l)
);
}
);
width = 1295;
}
);
unicode = 103;
},
{
category = Letter;
glyphname = h;
kernLeft = h.2;
kernRight = h;
layers = (
{
layerId = "343d4ea0-2832-40ed-9abc-f55d5da1b22f";
name = Fore;
shapes = (
{
closed = 1;
nodes = (
(234,1460,o),
(233.5,1465,q),
(233,1470,o),
(233,1475,q),
(233,1484,o),
(240,1490.5,q),
(247,1497,o),
(274,1504,q),
(555,1571,l),
(566,1573,o),
(584,1580,q),
(602,1587,o),
(619,1587,q),
(654,1587,o),
(654,1555,q),
(654,1553,o),
(651,1514,q),
(648,1475,o),
(643,1417,q),
(638,1359,o),
(632,1290.5,q),
(626,1222,o),
(620,1160,q),
(614,1098,o),
(609,1051.5,q),
(604,1005,o),
(601,991,q),
(648,1017,o),
(699,1040,q),
(750,1063,o),
(801.5,1080,q),
(853,1097,o),
(904.5,1106.5,q),
(956,1116,o),
(1004,1116,q),
(1065,1116,o),
(1118,1098.5,q),
(1171,1081,o),
(1210.5,1040.5,q),
(1250,1000,o),
(1272.5,934.5,q),
(1295,869,o),
(1295,774,q),
(1295,750,o),
(1294,724.5,q),
(1293,699,o),
(1290,672,q),
(1247,263,l),
(1242,221,o),
(1241,175.5,q),
(1240,130,o),
(1240,82,q),
(1240,74,o),
(1240.5,68.5,q),
(1241,63,o),
(1241,59,q),
(1241,50,o),
(1233.5,45,q),
(1226,40,o),
(1200,32,q),
(955,-36,l),
(944,-39,o),
(926,-45.5,q),
(908,-52,o),
(891,-52,q),
(874,-52,o),
(865,-44.5,q),
(856,-37,o),
(856,-15,q),
(863,60,o),
(867.5,106,q),
(872,152,o),
(874.5,179.5,q),
(877,207,o),
(879,221.5,q),
(881,236,o),
(882,247.5,q),
(883,259,o),
(885,273.5,q),
(887,288,o),
(889.5,316,q),
(892,344,o),
(896.5,390,q),
(901,436,o),
(908,511,q),
(912,551,o),
(916.5,590.5,q),
(921,630,o),
(921,663,q),
(921,705,o),
(916.5,739.5,q),
(912,774,o),
(900.5,798.5,q),
(889,823,o),
(869,837,q),
(849,851,o),
(818,851,q),
(795,851,o),
(755.5,841,q),
(716,831,o),
(676.5,808,q),
(637,785,o),
(606.5,747.5,q),
(576,710,o),
(572,655,q),
(564,578,o),
(559.5,529,q),
(555,480,o),
(552,448,q),
(549,416,o),
(547.5,397,q),
(546,378,o),
(545,362,q),
(544,357,o),
(542,337.5,q),
(540,318,o),
(537,291,q),
(534,264,o),
(531,233.5,q),
(528,203,o),
(525.5,176,q),
(523,149,o),
(521.5,129.5,q),
(520,110,o),
(520,105,q),
(520,97,o),
(520.5,91.5,q),
(521,86,o),
(521,81,q),
(521,73,o),
(513.5,67.5,q),
(506,62,o),
(480,55,q),
(219,-36,l),
(208,-40,o),
(190,-46,q),
(172,-52,o),
(155,-52,q),
(140,-52,o),
(130,-43.5,q),
(120,-35,o),
(120,-15,q),
(234,1454,l)
);
}
);
width = 1328;
}
);
unicode = 104;
},
{
category = Letter;
glyphname = i;
kernLeft = i.2;
kernRight = i;
layers = (
{
layerId = "343d4ea0-2832-40ed-9abc-f55d5da1b22f";
name = Fore;
shapes = (
{
closed = 1;
nodes = (
(159,561,o),
(172,695,q),
(185,829,o),
(195,970,q),
(197,1003,o),
(201.5,1015.5,q),
(206,1028,o),
(224,1032,q),
(309,1049,o),
(402,1067.5,q),
(495,1086,o),
(582,1115,q),
(585,1116,o),
(591,1116,q),
(602,1116,o),
(602,1108,q),
(512,134,l),
(509,101,o),
(505,88.5,q),
(501,76,o),
(483,72,q),
(398,46,o),
(311,14,q),
(224,-18,o),
(127,-51,q),
(124,-52,o),
(118,-52,q),
(107,-52,o),
(107,-42,q),
(107,-41,o),
(109,-15,q),
(111,11,o),
(114.5,52,q),
(118,93,o),
(122,144,q),
(126,195,o),
(130.5,246,q),
(135,297,o),
(139,344,q),
(143,391,o),
(146,424,q)
);
},
{
closed = 1;
nodes = (
(224,1265,o),
(225.5,1288,q),
(227,1311,o),
(228,1322.5,q),
(229,1334,o),
(229,1337,q),
(229,1340,o),
(229.5,1341.5,q),
(230,1343,o),
(230.5,1347.5,q),
(231,1352,o),
(232,1366.5,q),
(233,1381,o),
(235,1409,q),
(237,1437,o),
(241,1486,q),
(243,1519,o),
(247.5,1531.5,q),
(252,1544,o),
(270,1548,q),
(355,1565,o),
(448,1583.5,q),
(541,1602,o),
(628,1631,q),
(631,1632,o),
(637,1632,q),
(640,1626,o),
(645,1624,q),
(648,1622,l),
(626,1348,l),
(623,1315,o),
(618.5,1302,q),
(614,1289,o),
(597,1286,q),
(512,1270,o),
(425,1251,q),
(338,1232,o),
(241,1213,q),
(238,1212,o),
(232,1212,q),
(221,1212,o),
(221,1222,q)
);
}
);
width = 612;
}
);
unicode = 105;
},
{
category = Letter;
glyphname = j;
kernLeft = i.2;
kernRight = i;
layers = (
{
layerId = "343d4ea0-2832-40ed-9abc-f55d5da1b22f";
name = Fore;
shapes = (
{
closed = 1;
nodes = (
(227,1265,o),
(228.5,1288,q),
(230,1311,o),
(231,1322.5,q),
(232,1334,o),
(232,1337,q),
(232,1340,o),
(232.5,1341.5,q),
(233,1343,o),
(233.5,1347.5,q),
(234,1352,o),
(235,1366.5,q),
(236,1381,o),
(238,1409,q),
(240,1437,o),
(244,1486,q),
(246,1519,o),
(250.5,1531.5,q),
(255,1544,o),
(273,1548,q),
(358,1565,o),
(451,1583.5,q),
(544,1602,o),
(631,1631,q),
(634,1632,o),
(640,1632,q),
(643,1626,o),
(648,1624,q),
(651,1622,l),
(629,1348,l),
(626,1315,o),
(621.5,1302,q),
(617,1289,o),
(600,1286,q),
(515,1270,o),
(428,1251,q),
(341,1232,o),
(244,1213,q),
(241,1212,o),
(235,1212,q),
(224,1212,o),
(224,1222,q)
);
},
{
closed = 1;
nodes = (
(122,169,o),
(133,273.5,q),
(144,378,o),
(155.5,494,q),
(167,610,o),
(178,732,q),
(189,854,o),
(198,970,q),
(200,1003,o),
(204.5,1015.5,q),
(209,1028,o),
(227,1032,q),
(312,1049,o),
(405,1067.5,q),
(498,1086,o),
(585,1115,q),
(588,1116,o),
(594,1116,q),
(605,1116,o),
(605,1108,q),
(531,289,l),
(511,130,l),
(485,-102,o),
(378.5,-215.5,q),
(272,-329,o),
(69,-329,q),
(50,-329,o),
(16,-323.5,q),
(-18,-318,o),
(-57,-308.5,q),
(-96,-299,o),
(-136.5,-287,q),
(-177,-275,o),
(-209.5,-263,q),
(-242,-251,o),
(-263,-239.5,q),
(-284,-228,o),
(-284,-219,q),
(-284,-211,o),
(-277,-198,q),
(-247,-140,o),
(-231.5,-102,q),
(-216,-64,o),
(-207,-41.5,q),
(-198,-19,o),
(-192.5,-10,q),
(-187,-1,o),
(-176,-1,q),
(-167,-1,o),
(-144,-11,q),
(-109,-25,o),
(-74.5,-35,q),
(-40,-45,o),
(-6,-45,q),
(14,-45,o),
(33.5,-39,q),
(53,-33,o),
(69,-17.5,q),
(85,-2,o),
(96.5,24,q),
(108,50,o),
(113,89,q)
);
}
);
width = 620;
}
);
unicode = 106;
},
{
category = Letter;
glyphname = k;
layers = (
{
layerId = "343d4ea0-2832-40ed-9abc-f55d5da1b22f";
name = Fore;
shapes = (
{
closed = 1;
nodes = (
(623,1171,l),
(616,1101,o),
(608.5,1029,q),
(601,957,o),
(594,891,q),
(587,825,o),
(581,769,q),
(575,713,o),
(571,677,q),
(640,753,l),
(752,884,l),
(773,908,o),
(793,932,q),
(813,956,o),
(829,974.5,q),
(845,993,o),
(855,1005.5,q),
(865,1018,o),
(867,1020,q),
(1269,1048,l),
(1272,1049,o),
(1275.5,1049,q),
(1279,1049,o),
(1282,1049,q),
(1299,1049,o),
(1299,1040,q),
(1299,1033,o),
(1278,1009,q),
(965,659,l),
(944,636,o),
(915.5,605.5,q),
(887,575,o),
(852,538,q),
(998,364,l),
(1250,93,l),
(1253,88,o),
(1259,85.5,q),
(1265,83,o),
(1270.5,81,q),
(1276,79,o),
(1280.5,76.5,q),
(1285,74,o),
(1285,69,q),
(1285,65,o),
(1283.5,63,q),
(1282,61,o),
(1274,55,q),
(1265,48,o),
(1242.5,35,q),
(1220,22,o),
(1190,6,q),
(1160,-10,o),
(1126,-26.5,q),
(1092,-43,o),
(1060,-56.5,q),
(1028,-70,o),
(1001,-78.5,q),
(974,-87,o),
(959,-87,q),
(947,-87,o),
(935.5,-81,q),
(924,-75,o),
(910,-59,q),
(891,-37,o),
(862.5,-1.5,q),
(834,34,o),
(801,76.5,q),
(768,119,o),
(733.5,164.5,q),
(699,210,o),
(667.5,251.5,q),
(636,293,o),
(610.5,326.5,q),
(585,360,o),
(571,380,q),
(566,375,o),
(561,372.5,q),
(556,370,o),
(551.5,366,q),
(547,362,o),
(544,356.5,q),
(541,351,o),
(541,341,q),
(541,337,o),
(539,318.5,q),
(537,300,o),
(534.5,274.5,q),
(532,249,o),
(529,220,q),
(526,191,o),
(523.5,165.5,q),
(521,140,o),
(519,121.5,q),
(517,103,o),
(517,99,q),
(517,92,o),
(517.5,87.5,q),
(518,83,o),
(518,79,q),
(518,68,o),
(510.5,62.5,q),
(503,57,o),
(474,49,q),
(212,-36,l),
(201,-40,o),
(183,-46,q),
(165,-52,o),
(148,-52,q),
(134,-52,o),
(123.5,-45,q),
(113,-38,o),
(113,-19,q),
(239,1422,l),
(239,1427,o),
(238,1431.5,q),
(237,1436,o),
(237,1441,q),
(237,1450,o),
(244.5,1457.5,q),
(252,1465,o),
(279,1472,q),
(560,1539,l),
(571,1541,o),
(589,1548,q),
(607,1555,o),
(624,1555,q),
(637,1555,o),
(648.5,1549,q),
(660,1543,o),
(660,1526,q),
(660,1524,o),
(659.5,1522,q),
(659,1520,o),
(659,1518,q)
);
}
);
width = 1258;
}
);
unicode = 107;
},
{
category = Letter;
glyphname = l;
kernLeft = l.2;
kernRight = l;
layers = (
{
layerId = "343d4ea0-2832-40ed-9abc-f55d5da1b22f";
name = Fore;
shapes = (
{
closed = 1;
nodes = (
(201,983,o),
(208.5,1117,q),
(216,1251,o),
(225,1392,q),
(227,1425,o),
(231.5,1437.5,q),
(236,1450,o),
(254,1454,q),
(347,1471,o),
(440.5,1488.5,q),
(534,1506,o),
(628,1535,q),
(631,1536,o),
(637,1536,q),
(648,1536,o),
(648,1526,q),
(518,98,l),
(518,81,l),
(518,72,o),
(511,66.5,q),
(504,61,o),
(478,54,q),
(216,-42,l),
(205,-47,o),
(187,-52.5,q),
(169,-58,o),
(152,-58,q),
(138,-58,o),
(127.5,-51,q),
(117,-44,o),
(117,-27,q),
(117,-21,l),
(125,80,o),
(132.5,176.5,q),
(140,273,o),
(148.5,376,q),
(157,479,o),
(167,594,q),
(177,709,o),
(189,846,q)
);
}
);
width = 622;
}
);
unicode = 108;
},
{
category = Letter;
glyphname = m;
kernLeft = m;
kernRight = h;
layers = (
{
layerId = "343d4ea0-2832-40ed-9abc-f55d5da1b22f";
name = Fore;
shapes = (
{
closed = 1;
nodes = (
(1564,-39,o),
(1546,-45.5,q),
(1528,-52,o),
(1511,-52,q),
(1497,-52,o),
(1486.5,-45,q),
(1476,-38,o),
(1476,-21,q),
(1476,-15,l),
(1483,58,o),
(1488,103.5,q),
(1493,149,o),
(1496,177,q),
(1499,205,o),
(1501,219.5,q),
(1503,234,o),
(1505,246.5,q),
(1507,259,o),
(1508.5,274,q),
(1510,289,o),
(1513,316.5,q),
(1516,344,o),
(1520.5,389.5,q),
(1525,435,o),
(1532,509,q),
(1536,549,o),
(1540.5,588.5,q),
(1545,628,o),
(1545,661,q),
(1545,703,o),
(1540.5,737.5,q),
(1536,772,o),
(1524.5,796.5,q),
(1513,821,o),
(1493,835,q),
(1473,849,o),
(1442,849,q),
(1423,849,o),
(1392.5,841,q),
(1362,833,o),
(1331,812.5,q),
(1300,792,o),
(1275,758.5,q),
(1250,725,o),
(1243,674,q),
(1243,670,l),
(1231,556,o),
(1221.5,472.5,q),
(1212,389,o),
(1205,329,q),
(1198,269,o),
(1193.5,229,q),
(1189,189,o),
(1186,161.5,q),
(1183,134,o),
(1181.5,116,q),
(1180,98,o),
(1180,82,q),
(1180,74,o),
(1180.5,68.5,q),
(1181,63,o),
(1181,59,q),
(1181,51,o),
(1173.5,45.5,q),
(1166,40,o),
(1140,32,q),
(905,-36,l),
(894,-39,o),
(876,-45.5,q),
(858,-52,o),
(841,-52,q),
(827,-52,o),
(816.5,-45,q),
(806,-38,o),
(806,-21,q),
(806,-15,l),
(813,58,o),
(817.5,103.5,q),
(822,149,o),
(825.5,177,q),
(829,205,o),
(831,219.5,q),
(833,234,o),
(834.5,246.5,q),
(836,259,o),
(838,274,q),
(840,289,o),
(842.5,316.5,q),
(845,344,o),
(849.5,389.5,q),
(854,435,o),
(861,509,q),
(865,549,o),
(869.5,588.5,q),
(874,628,o),
(874,661,q),
(874,703,o),
(870,737.5,q),
(866,772,o),
(855.5,796.5,q),
(845,821,o),
(827,835,q),
(809,849,o),
(781,849,q),
(761,849,o),
(726.5,839,q),
(692,829,o),
(657.5,806,q),
(623,783,o),
(596.5,745.5,q),
(570,708,o),
(566,653,q),
(558,579,o),
(553,531.5,q),
(548,484,o),
(545,453.5,q),
(542,423,o),
(540.5,404.5,q),
(539,386,o),
(538,370,q),
(537,366,o),
(535,347.5,q),
(533,329,o),
(530.5,303.5,q),
(528,278,o),
(525.5,248.5,q),
(523,219,o),
(521,193.5,q),
(519,168,o),
(517.5,149.5,q),
(516,131,o),
(516,127,q),
(516,109,l),
(516,99,o),
(515,92,q),
(514,85,o),
(509,79,q),
(504,73,o),
(494.5,68,q),
(485,63,o),
(468,57,q),
(206,-36,l),
(195,-40,o),
(177,-46,q),
(159,-52,o),
(142,-52,q),
(128,-52,o),
(117.5,-45,q),
(107,-38,o),
(107,-21,q),
(197,999,l),
(200,1032,o),
(204.5,1044.5,q),
(209,1057,o),
(227,1061,q),
(318,1079,o),
(413,1097.5,q),
(508,1116,o),
(599,1145,q),
(607,1145,o),
(608.5,1142.5,q),
(610,1140,o),
(610,1135,q),
(597,989,l),
(634,1008,o),
(680,1030.5,q),
(726,1053,o),
(776.5,1072,q),
(827,1091,o),
(879.5,1103.5,q),
(932,1116,o),
(982,1116,q),
(1051,1116,o),
(1109.5,1084.5,q),
(1168,1053,o),
(1206,980,q),
(1251,1009,o),
(1301.5,1034,q),
(1352,1059,o),
(1404.5,1077,q),
(1457,1095,o),
(1510,1105,q),
(1563,1115,o),
(1613,1115,q),
(1676,1115,o),
(1732,1097,q),
(1788,1079,o),
(1829.5,1038,q),
(1871,997,o),
(1895,931.5,q),
(1919,866,o),
(1919,772,q),
(1919,748,o),
(1918,722.5,q),
(1917,697,o),
(1914,670,q),
(1868,242,l),
(1863,200,o),
(1862,164.5,q),
(1861,129,o),
(1861,82,q),
(1861,74,o),
(1861.5,68.5,q),
(1862,63,o),
(1862,59,q),
(1862,50,o),
(1854.5,45,q),
(1847,40,o),
(1821,32,q),
(1575,-36,l)
);
}
);
width = 1950;
}
);
unicode = 109;
},
{
category = Letter;
glyphname = n;
kernLeft = m;
kernRight = h;
layers = (
{
layerId = "343d4ea0-2832-40ed-9abc-f55d5da1b22f";
name = Fore;
shapes = (
{
closed = 1;
nodes = (
(939,-39,o),
(921,-45.5,q),
(903,-52,o),
(886,-52,q),
(872,-52,o),
(861.5,-45,q),
(851,-38,o),
(851,-21,q),
(851,-15,l),
(857,39,o),
(861,76.5,q),
(865,114,o),
(868.5,144.5,q),
(872,175,o),
(874.5,205.5,q),
(877,236,o),
(881,276.5,q),
(885,317,o),
(890.5,372.5,q),
(896,428,o),
(904,511,q),
(909,562,o),
(913,615,q),
(917,668,o),
(917,713,q),
(917,743,o),
(912.5,768.5,q),
(908,794,o),
(896.5,812.5,q),
(885,831,o),
(865,841,q),
(845,851,o),
(814,851,q),
(791,851,o),
(750.5,841,q),
(710,831,o),
(670,808,q),
(630,785,o),
(599,747.5,q),
(568,710,o),
(564,655,q),
(558,581,o),
(553,528.5,q),
(548,476,o),
(544,439.5,q),
(540,403,o),
(537.5,380,q),
(535,357,o),
(534,341,q),
(533,337,o),
(531,319,q),
(529,301,o),
(526.5,276,q),
(524,251,o),
(521.5,223,q),
(519,195,o),
(516.5,170,q),
(514,145,o),
(512.5,127,q),
(511,109,o),
(511,105,q),
(511,97,o),
(511.5,91.5,q),
(512,86,o),
(512,81,q),
(512,73,o),
(504.5,67.5,q),
(497,62,o),
(471,55,q),
(206,-36,l),
(195,-40,o),
(177,-46,q),
(159,-52,o),
(142,-52,q),
(128,-52,o),
(117.5,-45,q),
(107,-38,o),
(107,-21,q),
(198,1001,l),
(201,1034,o),
(205.5,1046.5,q),
(210,1059,o),
(228,1063,q),
(319,1081,o),
(415,1099.5,q),
(511,1118,o),
(602,1147,q),
(610,1147,o),
(611.5,1144.5,q),
(613,1142,o),
(613,1137,q),
(613,1135,o),
(612.5,1131,q),
(612,1127,o),
(609.5,1113,q),
(607,1099,o),
(602.5,1070.5,q),
(598,1042,o),
(590,991,q),
(659,1031,o),
(719.5,1055.5,q),
(780,1080,o),
(833.5,1093.5,q),
(887,1107,o),
(934,1111.5,q),
(981,1116,o),
(1022,1116,q),
(1163,1116,o),
(1227,1030.5,q),
(1291,945,o),
(1291,774,q),
(1291,750,o),
(1290,724.5,q),
(1289,699,o),
(1286,672,q),
(1240,242,l),
(1235,200,o),
(1234,164.5,q),
(1233,129,o),
(1233,82,q),
(1233,74,o),
(1233.5,68.5,q),
(1234,63,o),
(1234,59,q),
(1234,50,o),
(1226.5,45,q),
(1219,40,o),
(1193,32,q),
(950,-36,l)
);
}
);
width = 1322;
}
);
unicode = 110;
},
{
category = Letter;
glyphname = o;
kernLeft = o.2;
kernRight = o;
layers = (
{
layerId = "343d4ea0-2832-40ed-9abc-f55d5da1b22f";
name = Fore;
shapes = (
{
closed = 1;
nodes = (
(529,-52,o),
(422.5,-6,q),
(316,40,o),
(244,116.5,q),
(172,193,o),
(136,292.5,q),
(100,392,o),
(100,499,q),
(100,606,o),
(135,702.5,q),
(170,799,o),
(233,875.5,q),
(296,952,o),
(384,1003.5,q),
(472,1055,o),
(578,1073,q),
(594,1074,o),
(594,1080,q),
(594,1091,o),
(591.5,1100.5,q),
(589,1110,o),
(589,1117,q),
(589,1128,o),
(593,1132,q),
(597,1136,o),
(602,1136,q),
(793,1136,o),
(927,1092.5,q),
(1061,1049,o),
(1145,974,q),
(1229,899,o),
(1267,797,q),
(1305,695,o),
(1305,578,q),
(1305,429,o),
(1255,312,q),
(1205,195,o),
(1118.5,114,q),
(1032,33,o),
(916.5,-9.5,q),
(801,-52,o),
(670,-52,q)
);
},
{
closed = 1;
nodes = (
(485,456,o),
(496.5,403,q),
(508,350,o),
(534.5,307,q),
(561,264,o),
(604,237.5,q),
(647,211,o),
(711,211,q),
(757,213,o),
(791.5,231.5,q),
(826,250,o),
(851,279.5,q),
(876,309,o),
(892.5,346,q),
(909,383,o),
(918.5,422.5,q),
(928,462,o),
(932,500,q),
(936,538,o),
(936,569,q),
(936,621,o),
(920.5,671,q),
(905,721,o),
(875,759,q),
(845,797,o),
(800.5,820.5,q),
(756,844,o),
(698,844,q),
(638,844,o),
(597,808.5,q),
(556,773,o),
(531.5,721,q),
(507,669,o),
(496,611.5,q),
(485,554,o),
(485,510,q)
);
}
);
width = 1313;
}
);
unicode = 111;
},
{
category = Letter;
glyphname = p;
kernLeft = m;
kernRight = p;
layers = (
{
layerId = "343d4ea0-2832-40ed-9abc-f55d5da1b22f";
name = Fore;
shapes = (
{
closed = 1;
nodes = (
(561,602,o),
(556.5,542,q),
(552,482,o),
(549,444.5,q),
(546,407,o),
(544,385.5,q),
(542,364,o),
(541,345,q),
(564,285,o),
(609,247.5,q),
(654,210,o),
(717,210,q),
(772,210,o),
(813.5,244.5,q),
(855,279,o),
(882.5,334,q),
(910,389,o),
(924,457,q),
(938,525,o),
(938,592,q),
(938,647,o),
(928.5,694,q),
(919,741,o),
(900,775.5,q),
(881,810,o),
(852.5,829.5,q),
(824,849,o),
(785,849,q),
(753,849,o),
(721.5,836.5,q),
(690,824,o),
(661,804.5,q),
(632,785,o),
(608.5,760.5,q),
(585,736,o),
(570,713,q),
(567,698,l)
);
},
{
closed = 1;
nodes = (
(671,1048,o),
(763,1082,q),
(855,1116,o),
(955,1116,q),
(1049,1116,o),
(1117.5,1077.5,q),
(1186,1039,o),
(1231,973.5,q),
(1276,908,o),
(1297.5,823,q),
(1319,738,o),
(1319,645,q),
(1319,564,o),
(1303,481,q),
(1287,398,o),
(1256,320.5,q),
(1225,243,o),
(1179,175,q),
(1133,107,o),
(1073.5,56.5,q),
(1014,6,o),
(941,-23,q),
(868,-52,o),
(783,-52,q),
(708,-52,o),
(639.5,-22,q),
(571,8,o),
(511,56,q),
(511,51,o),
(508.5,19.5,q),
(506,-12,o),
(502,-57,q),
(498,-102,o),
(493,-153.5,q),
(488,-205,o),
(484,-250,q),
(480,-295,o),
(477.5,-326.5,q),
(475,-358,o),
(475,-363,q),
(475,-371,o),
(475.5,-376.5,q),
(476,-382,o),
(476,-387,q),
(476,-395,o),
(468.5,-400.5,q),
(461,-406,o),
(435,-413,q),
(172,-480,l),
(161,-483,o),
(143,-489.5,q),
(125,-496,o),
(108,-496,q),
(94,-496,o),
(83.5,-489,q),
(73,-482,o),
(73,-463,q),
(195,1001,l),
(198,1034,o),
(202.5,1046.5,q),
(207,1059,o),
(225,1063,q),
(316,1081,o),
(412,1099.5,q),
(508,1118,o),
(599,1147,q),
(607,1147,o),
(608.5,1144.5,q),
(610,1142,o),
(610,1137,q),
(610,1135,o),
(609.5,1131,q),
(609,1127,o),
(606.5,1113,q),
(604,1099,o),
(599.5,1070.5,q),
(595,1042,o),
(587,991,q)
);
}
);
width = 1325;
}
);
unicode = 112;
},
{
category = Letter;
glyphname = q;
kernLeft = g.2;
layers = (
{
layerId = "343d4ea0-2832-40ed-9abc-f55d5da1b22f";
name = Fore;
shapes = (
{
closed = 1;
nodes = (
(840,741,o),
(822.5,765,q),
(805,789,o),
(782,809,q),
(759,829,o),
(732,841.5,q),
(705,854,o),
(675,854,q),
(634,854,o),
(598,820,q),
(562,786,o),
(535,729.5,q),
(508,673,o),
(492.5,600.5,q),
(477,528,o),
(477,450,q),
(477,402,o),
(485.5,359.5,q),
(494,317,o),
(512,285,q),
(530,253,o),
(558.5,234,q),
(587,215,o),
(627,215,q),
(687,215,o),
(737,252.5,q),
(787,290,o),
(822,350,q),
(823,371,o),
(825,400,q),
(827,429,o),
(830,470.5,q),
(833,512,o),
(837.5,568.5,q),
(842,625,o),
(849,703,q),
(850,718,l)
);
},
{
closed = 1;
nodes = (
(1244,1117,o),
(1254,1117,q),
(1285,1117,o),
(1285,1078,q),
(1285,1073,o),
(1285,1068.5,q),
(1285,1064,o),
(1284,1058,q),
(1155,-328,l),
(1154,-331,o),
(1154,-339,q),
(1154,-343,o),
(1154.5,-346,q),
(1155,-349,o),
(1155,-351,q),
(1155,-360,o),
(1148.5,-365.5,q),
(1142,-371,o),
(1115,-378,q),
(850,-475,l),
(839,-478,o),
(821,-484.5,q),
(803,-491,o),
(786,-491,q),
(772,-491,o),
(761,-485,q),
(750,-479,o),
(750,-463,q),
(750,-457,o),
(751,-454,q),
(752,-450,o),
(754,-426.5,q),
(756,-403,o),
(759,-367.5,q),
(762,-332,o),
(766,-287.5,q),
(770,-243,o),
(773.5,-196.5,q),
(777,-150,o),
(781,-105.5,q),
(785,-61,o),
(788,-25.5,q),
(791,10,o),
(793,33.5,q),
(795,57,o),
(796,61,q),
(724,13,o),
(650,-19.5,q),
(576,-52,o),
(501,-52,q),
(398,-52,o),
(323,-10,q),
(248,32,o),
(199,102.5,q),
(150,173,o),
(126.5,264.5,q),
(103,356,o),
(103,455,q),
(103,534,o),
(117.5,613.5,q),
(132,693,o),
(160.5,766.5,q),
(189,840,o),
(231,904,q),
(273,968,o),
(328,1015,q),
(383,1062,o),
(450,1089,q),
(517,1116,o),
(596,1116,q),
(684,1116,o),
(756,1081,q),
(828,1046,o),
(889,989,q),
(891,1007,o),
(892,1017.5,q),
(893,1028,o),
(897,1034,q),
(901,1040,o),
(910.5,1043,q),
(920,1046,o),
(938,1050,q),
(949,1052,o),
(978,1058.5,q),
(1007,1065,o),
(1047,1074,q),
(1087,1083,o),
(1135,1093,q),
(1183,1103,o),
(1232,1114,q)
);
}
);
width = 1303;
}
);
unicode = 113;
},
{
category = Letter;
glyphname = r;
kernLeft = m;
layers = (
{
layerId = "343d4ea0-2832-40ed-9abc-f55d5da1b22f";
name = Fore;
shapes = (
{
closed = 1;
nodes = (
(917,816,o),
(891,818.5,q),
(865,821,o),
(836,821,q),
(792,821,o),
(746.5,813.5,q),
(701,806,o),
(662,784,q),
(623,762,o),
(595,723.5,q),
(567,685,o),
(559,624,q),
(552,550,o),
(547.5,502.5,q),
(543,455,o),
(541,424.5,q),
(539,394,o),
(537.5,375.5,q),
(536,357,o),
(535,341,q),
(535,337,o),
(533.5,319,q),
(532,301,o),
(529,277,q),
(526,253,o),
(523.5,225,q),
(521,197,o),
(518,173,q),
(515,149,o),
(513.5,131,q),
(512,113,o),
(512,109,q),
(512,101,o),
(512.5,95.5,q),
(513,90,o),
(513,85,q),
(513,77,o),
(505.5,71.5,q),
(498,66,o),
(472,59,q),
(207,-36,l),
(196,-40,o),
(178,-46,q),
(160,-52,o),
(143,-52,q),
(129,-52,o),
(118.5,-45,q),
(108,-38,o),
(108,-21,q),
(194,970,l),
(197,1003,o),
(201.5,1015.5,q),
(206,1028,o),
(224,1032,q),
(315,1050,o),
(412,1068.5,q),
(509,1087,o),
(600,1116,q),
(608,1116,o),
(609.5,1113.5,q),
(611,1111,o),
(611,1106,q),
(611,1104,o),
(610.5,1100,q),
(610,1096,o),
(607.5,1082,q),
(605,1068,o),
(600.5,1039.5,q),
(596,1011,o),
(588,960,q),
(634,996,o),
(689.5,1026,q),
(745,1056,o),
(801,1077.5,q),
(857,1099,o),
(909,1111.5,q),
(961,1124,o),
(1000,1124,q),
(938,814,l)
);
}
);
width = 904;
}
);
unicode = 114;
},
{
category = Letter;
glyphname = s;
kernLeft = s.2;
kernRight = s;
layers = (
{
layerId = "343d4ea0-2832-40ed-9abc-f55d5da1b22f";
name = Fore;
shapes = (
{
closed = 1;
nodes = (
(125,277,o),
(124.5,277.5,q),
(124,278,o),
(124,279,q),
(124,292,o),
(138,292,q),
(147,292,o),
(154,285,q),
(194,247,o),
(245.5,223,q),
(297,199,o),
(357,199,q),
(373,199,o),
(394,202.5,q),
(415,206,o),
(434,214,q),
(453,222,o),
(465.5,235.5,q),
(478,249,o),
(478,269,q),
(478,291,o),
(467,309.5,q),
(456,328,o),
(438,340,q),
(428,347,o),
(403,364.5,q),
(378,382,o),
(349.5,402,q),
(321,422,o),
(295.5,440,q),
(270,458,o),
(260,466,q),
(215,500,o),
(188.5,535,q),
(162,570,o),
(148,607.5,q),
(134,645,o),
(130,686,q),
(126,727,o),
(126,773,q),
(126,843,o),
(163,905,q),
(200,967,o),
(260.5,1014,q),
(321,1061,o),
(398,1088.5,q),
(475,1116,o),
(555,1116,q),
(621,1116,o),
(685,1096,q),
(749,1076,o),
(804,1028,q),
(809,965,o),
(811,904,q),
(813,843,o),
(817,776,q),
(817,763,o),
(811,758.5,q),
(805,754,o),
(797,754,q),
(790,754,o),
(785,759,q),
(762,781,o),
(738,802.5,q),
(714,824,o),
(687.5,840.5,q),
(661,857,o),
(631,867.5,q),
(601,878,o),
(567,878,q),
(546,878,o),
(525,874.5,q),
(504,871,o),
(487,861.5,q),
(470,852,o),
(459.5,836,q),
(449,820,o),
(449,795,q),
(449,766,o),
(456,745,q),
(463,724,o),
(489,704,q),
(675,578,l),
(726,543,o),
(757.5,509.5,q),
(789,476,o),
(807,443,q),
(825,410,o),
(831.5,377.5,q),
(838,345,o),
(838,313,q),
(838,223,o),
(796.5,154.5,q),
(755,86,o),
(689,40.5,q),
(623,-5,o),
(539.5,-28.5,q),
(456,-52,o),
(372,-52,q),
(308,-52,o),
(248.5,-38.5,q),
(189,-25,o),
(138,3,q),
(125,276,l)
);
}
);
width = 861;
}
);
unicode = 115;
},
{
category = Letter;
glyphname = t;
kernLeft = t.2;
kernRight = t;
layers = (
{
layerId = "343d4ea0-2832-40ed-9abc-f55d5da1b22f";
name = Fore;
shapes = (
{
closed = 1;
nodes = (
(645,666,o),
(632.5,561.5,q),
(620,457,o),
(617,366,q),
(617,327,o),
(623,301,q),
(629,275,o),
(640.5,260,q),
(652,245,o),
(668,238.5,q),
(684,232,o),
(704,232,q),
(736,232,o),
(774,241.5,q),
(812,251,o),
(850,266,q),
(862,271,o),
(870.5,273.5,q),
(879,276,o),
(885,276,q),
(895,276,o),
(898.5,267,q),
(902,258,o),
(905.5,235.5,q),
(909,213,o),
(916,175,q),
(923,137,o),
(939,79,q),
(940,74,o),
(940.5,70.5,q),
(941,67,o),
(941,64,q),
(941,50,o),
(930.5,44,q),
(920,38,o),
(896,30,q),
(855,16,o),
(809.5,1.5,q),
(764,-13,o),
(719.5,-25,q),
(675,-37,o),
(634,-44.5,q),
(593,-52,o),
(562,-52,q),
(395,-52,o),
(318.5,31,q),
(242,114,o),
(242,284,q),
(242,313,o),
(244,343.5,q),
(246,374,o),
(249,407,q),
(259,507,o),
(266.5,596.5,q),
(274,686,o),
(282,768,q),
(177,768,l),
(123,768,o),
(99,772.5,q),
(75,777,o),
(75,791,q),
(75,795,o),
(85,812.5,q),
(95,830,o),
(110.5,854.5,q),
(126,879,o),
(144,907,q),
(162,935,o),
(178.5,959.5,q),
(195,984,o),
(207,1002,q),
(219,1020,o),
(222,1024,q),
(293,1024,l),
(302,1100,o),
(307.5,1151.5,q),
(313,1203,o),
(316.5,1237,q),
(320,1271,o),
(323,1289.5,q),
(326,1308,o),
(329.5,1317,q),
(333,1326,o),
(338.5,1328.5,q),
(344,1331,o),
(353,1333,q),
(398,1342,o),
(440,1349.5,q),
(482,1357,o),
(524,1365,q),
(566,1373,o),
(609.5,1383.5,q),
(653,1394,o),
(700,1408,q),
(703,1408,o),
(704,1408.5,q),
(705,1409,o),
(708,1409,q),
(720,1409,o),
(720,1401,q),
(720,1399,l),
(715,1344,o),
(704.5,1246,q),
(694,1148,o),
(681,1024,q),
(949,1024,l),
(957,1024,o),
(964.5,1018.5,q),
(972,1013,o),
(972,1000,q),
(972,995,o),
(960,964,q),
(948,933,o),
(926,883,q),
(890,802,l),
(883,787,o),
(875.5,780,q),
(868,773,o),
(845,771,q),
(659,771,l)
);
}
);
width = 934;
}
);
unicode = 116;
},
{
category = Letter;
glyphname = u;
kernLeft = u.2;
kernRight = u;
layers = (
{
layerId = "343d4ea0-2832-40ed-9abc-f55d5da1b22f";
name = Fore;
shapes = (
{
closed = 1;
nodes = (
(1174,91,o),
(1169,78.5,q),
(1164,66,o),
(1147,62,q),
(1062,38,o),
(969.5,13.5,q),
(877,-11,o),
(790,-51,q),
(787,-52,o),
(781,-52,q),
(773,-52,o),
(771.5,-48,q),
(770,-44,o),
(770,-39,q),
(770,-37,o),
(770.5,-32,q),
(771,-27,o),
(773,-13.5,q),
(775,0,o),
(778.5,24,q),
(782,48,o),
(788,88,q),
(676,15,o),
(589.5,-18.5,q),
(503,-52,o),
(436,-52,q),
(269,-52,o),
(192.5,28.5,q),
(116,109,o),
(116,269,q),
(116,298,o),
(117,328.5,q),
(118,359,o),
(123,391,q),
(134,509,o),
(142,593.5,q),
(150,678,o),
(155,737,q),
(160,796,o),
(163.5,833.5,q),
(167,871,o),
(169.5,896,q),
(172,921,o),
(173.5,937.5,q),
(175,954,o),
(177,970,q),
(181,1002,o),
(184.5,1015,q),
(188,1028,o),
(207,1032,q),
(254,1041,o),
(296.5,1048.5,q),
(339,1056,o),
(380.5,1064.5,q),
(422,1073,o),
(465,1083,q),
(508,1093,o),
(556,1107,q),
(558,1107,o),
(560,1107.5,q),
(562,1108,o),
(564,1108,q),
(576,1108,o),
(576,1100,q),
(576,1098,l),
(572,1064,o),
(569,1034,q),
(566,1004,o),
(563,972.5,q),
(560,941,o),
(556.5,905,q),
(553,869,o),
(548,821.5,q),
(543,774,o),
(536,712,q),
(529,650,o),
(519,568,q),
(513,508,o),
(507,448.5,q),
(501,389,o),
(501,338,q),
(501,310,o),
(505,286.5,q),
(509,263,o),
(519.5,246.5,q),
(530,230,o),
(547,221,q),
(564,212,o),
(591,212,q),
(612,212,o),
(648,221.5,q),
(684,231,o),
(720,254.5,q),
(756,278,o),
(783.5,316.5,q),
(811,355,o),
(815,414,q),
(822,513,o),
(827.5,579.5,q),
(833,646,o),
(837,691.5,q),
(841,737,o),
(844,768,q),
(847,799,o),
(849.5,827.5,q),
(852,856,o),
(854,888.5,q),
(856,921,o),
(858,970,q),
(861,1003,o),
(865.5,1015.5,q),
(870,1028,o),
(888,1032,q),
(979,1050,o),
(1074,1068.5,q),
(1169,1087,o),
(1260,1116,q),
(1268,1116,o),
(1269.5,1113.5,q),
(1271,1111,o),
(1271,1106,q),
(1177,124,l)
);
}
);
width = 1280;
}
);
unicode = 117;
},
{
category = Letter;
glyphname = v;
layers = (
{
layerId = "343d4ea0-2832-40ed-9abc-f55d5da1b22f";
name = Fore;
shapes = (
{
closed = 1;
nodes = (
(859,1116,o),
(870,1116,q),
(872,1116,o),
(874,1115.5,q),
(876,1115,o),
(878,1115,q),
(953,1086,o),
(1032,1067.5,q),
(1111,1049,o),
(1189,1032,q),
(1208,1028,o),
(1208,1010,q),
(1208,997,o),
(1196,970,q),
(784,94,l),
(776,76,o),
(770,65,q),
(764,54,o),
(758,47,q),
(752,40,o),
(745,37,q),
(738,34,o),
(728,32,q),
(652,17,o),
(574,-2.5,q),
(496,-22,o),
(412,-51,q),
(410,-51,o),
(409,-51.5,q),
(408,-52,o),
(407,-52,q),
(400,-52,l),
(395,-52,o),
(392,-48.5,q),
(389,-45,o),
(388,-42,q),
(373,1,o),
(353.5,69,q),
(334,137,o),
(311,221,q),
(288,305,o),
(263,400,q),
(238,495,o),
(212,593,q),
(186,691,o),
(160.5,787.5,q),
(135,884,o),
(111,970,q),
(102,1001,o),
(102,1014,q),
(102,1028,o),
(118,1032,q),
(196,1049,o),
(280,1067.5,q),
(364,1086,o),
(439,1115,q),
(442,1116,o),
(448,1116,q),
(461,1116,o),
(462,1106,q),
(594,434,l),
(599,446,o),
(611,477.5,q),
(623,509,o),
(640,553,q),
(657,597,o),
(677.5,650,q),
(698,703,o),
(719.5,758,q),
(741,813,o),
(762,867.5,q),
(783,922,o),
(801.5,969,q),
(820,1016,o),
(834,1052,q),
(848,1088,o),
(855,1106,q)
);
}
);
width = 1120;
}
);
unicode = 118;
},
{
category = Letter;
glyphname = w;
layers = (
{
layerId = "343d4ea0-2832-40ed-9abc-f55d5da1b22f";
name = Fore;
shapes = (
{
closed = 1;
nodes = (
(745,1029,o),
(759,1032,q),
(840,1050,o),
(925,1069,q),
(1010,1088,o),
(1088,1116,q),
(1102,1116,o),
(1102,1106,q),
(1204,424,l),
(1395,1106,l),
(1399,1116,o),
(1410,1116,q),
(1413,1116,o),
(1414,1115.5,q),
(1415,1115,o),
(1418,1115,q),
(1493,1086,o),
(1572,1067.5,q),
(1651,1049,o),
(1729,1032,q),
(1748,1028,o),
(1748,1010,q),
(1748,997,o),
(1736,970,q),
(1414,78,l),
(1406,61,o),
(1400,49.5,q),
(1394,38,o),
(1388,31.5,q),
(1382,25,o),
(1375,21.5,q),
(1368,18,o),
(1358,16,q),
(1282,0,o),
(1204,-19,q),
(1126,-38,o),
(1042,-67,q),
(1040,-67,o),
(1039,-67.5,q),
(1038,-68,o),
(1037,-68,q),
(1030,-68,l),
(1025,-68,o),
(1022,-64.5,q),
(1019,-61,o),
(1018,-58,q),
(1007,-15,o),
(993,49,q),
(979,113,o),
(963,191,q),
(947,269,o),
(929,358,q),
(911,447,o),
(892,541,q),
(765,94,l),
(760,76,o),
(754.5,64.5,q),
(749,53,o),
(742,46.5,q),
(735,40,o),
(727,37,q),
(719,34,o),
(709,32,q),
(633,17,o),
(555,-2.5,q),
(477,-22,o),
(393,-51,q),
(391,-51,o),
(390,-51.5,q),
(389,-52,o),
(388,-52,q),
(381,-52,l),
(376,-52,o),
(372.5,-48.5,q),
(369,-45,o),
(369,-42,q),
(355,2,o),
(337,69.5,q),
(319,137,o),
(298.5,220.5,q),
(278,304,o),
(256,399,q),
(234,494,o),
(211,592,q),
(188,690,o),
(165.5,786.5,q),
(143,883,o),
(122,970,q),
(115,986,o),
(114,996.5,q),
(113,1007,o),
(113,1014,q),
(113,1028,o),
(129,1032,q),
(207,1049,o),
(291,1067.5,q),
(375,1086,o),
(450,1115,q),
(453,1116,o),
(459,1116,q),
(472,1116,o),
(473,1106,q),
(585,414,l),
(742,1018,l)
);
}
);
width = 1691;
}
);
unicode = 119;
},
{
category = Letter;
glyphname = x;
layers = (
{
layerId = "343d4ea0-2832-40ed-9abc-f55d5da1b22f";
name = Fore;
shapes = (
{
closed = 1;
nodes = (
(699,-57,o),
(685.5,-31.5,q),
(672,-6,o),
(650.5,34.5,q),
(629,75,o),
(602.5,125,q),
(576,175,o),
(549,226,q),
(511,175,o),
(474,125,q),
(437,75,o),
(408,34.5,q),
(379,-6,o),
(360,-31.5,q),
(341,-57,o),
(340,-58,q),
(333,-68,o),
(321,-68,q),
(315,-68,o),
(313,-67,q),
(283,-52,o),
(248,-40.5,q),
(213,-29,o),
(176.5,-19.5,q),
(140,-10,o),
(103,-1.5,q),
(66,7,o),
(32,16,q),
(22,18,o),
(22,26,q),
(22,33,o),
(30,44,q),
(38,55,o),
(55,78,q),
(386,531,l),
(326,642,o),
(267.5,749,q),
(209,856,o),
(147,970,q),
(136,990,o),
(130,1001,q),
(124,1012,o),
(124,1020,q),
(124,1029,o),
(137,1032,q),
(212,1049,o),
(290.5,1067.5,q),
(369,1086,o),
(436,1115,q),
(439,1116,o),
(445,1116,q),
(458,1116,o),
(462,1106,q),
(612,834,l),
(821,1106,l),
(828,1116,o),
(840,1116,q),
(846,1116,o),
(848,1115,q),
(909,1086,o),
(984.5,1067.5,q),
(1060,1049,o),
(1130,1032,q),
(1140,1029,o),
(1140,1023,q),
(1140,1014,o),
(1132,1003.5,q),
(1124,993,o),
(1107,970,q),
(1020,856,o),
(938,749.5,q),
(856,643,o),
(775,531,q),
(1015,78,l),
(1025,59,o),
(1031,48,q),
(1037,37,o),
(1037,29,q),
(1037,19,o),
(1025,16,q),
(950,-1,o),
(871.5,-19.5,q),
(793,-38,o),
(726,-67,q),
(723,-68,o),
(717,-68,q),
(706,-68,o),
(700,-58,q)
);
}
);
width = 1070;
}
);
unicode = 120;
},
{
category = Letter;
glyphname = y;
kernLeft = y.2;
kernRight = y;
layers = (
{
layerId = "343d4ea0-2832-40ed-9abc-f55d5da1b22f";
name = Fore;
shapes = (
{
closed = 1;
nodes = (
(544,-460,o),
(541.5,-462.5,q),
(539,-465,o),
(533,-465,q),
(527,-465,o),
(524,-464,q),
(488,-451,o),
(456,-442,q),
(424,-433,o),
(392.5,-425.5,q),
(361,-418,o),
(328,-411.5,q),
(295,-405,o),
(258,-397,q),
(248,-395,o),
(242.5,-390.5,q),
(237,-386,o),
(237,-375,q),
(237,-372,o),
(240.5,-360.5,q),
(244,-349,o),
(258,-313.5,q),
(272,-278,o),
(301,-210.5,q),
(330,-143,o),
(381,-29,q),
(366,21,o),
(347,91,q),
(328,161,o),
(306.5,244,q),
(285,327,o),
(262,419.5,q),
(239,512,o),
(215.5,606.5,q),
(192,701,o),
(168.5,793.5,q),
(145,886,o),
(123,970,q),
(116,986,o),
(115,996.5,q),
(114,1007,o),
(114,1014,q),
(114,1028,o),
(130,1032,q),
(208,1049,o),
(292,1067.5,q),
(376,1086,o),
(451,1115,q),
(454,1116,o),
(460,1116,q),
(473,1116,o),
(474,1106,q),
(596,434,l),
(600,446,o),
(611.5,477.5,q),
(623,509,o),
(638.5,553,q),
(654,597,o),
(673,650,q),
(692,703,o),
(712,758,q),
(732,813,o),
(751.5,867.5,q),
(771,922,o),
(788,969,q),
(805,1016,o),
(817.5,1052,q),
(830,1088,o),
(837,1106,q),
(841,1116,o),
(852,1116,q),
(855,1116,o),
(856,1115.5,q),
(857,1115,o),
(860,1115,q),
(935,1086,o),
(1014,1067.5,q),
(1093,1049,o),
(1171,1032,q),
(1190,1028,o),
(1190,1010,q),
(1190,997,o),
(1178,970,q),
(766,39,l),
(546,-456,l)
);
}
);
width = 1125;
}
);
unicode = 121;
},
{
category = Letter;
glyphname = z;
kernLeft = z.2;
kernRight = z;
layers = (
{
layerId = "343d4ea0-2832-40ed-9abc-f55d5da1b22f";
name = Fore;
shapes = (
{
closed = 1;
nodes = (
(235,0,o),
(212.5,2,q),
(190,4,o),
(171.5,9.5,q),
(153,15,o),
(140.5,24,q),
(128,33,o),
(128,48,q),
(128,49,o),
(129,51,q),
(130,53,o),
(130,55,q),
(483,779,l),
(441,779,o),
(389,777.5,q),
(337,776,o),
(284.5,774.5,q),
(232,773,o),
(184.5,772,q),
(137,771,o),
(104,771,q),
(94,771,o),
(89,777.5,q),
(84,784,o),
(84,792,q),
(84,796,l),
(185,1037,l),
(193,1064,o),
(215,1072,q),
(237,1080,o),
(259,1080,q),
(435,1080,o),
(604.5,1074,q),
(774,1068,o),
(949,1068,q),
(960,1068,o),
(971.5,1061,q),
(983,1054,o),
(983,1044,q),
(983,1043,o),
(981,1037,q),
(664,345,l),
(664,343,o),
(669.5,342,q),
(675,341,o),
(683.5,340,q),
(692,339,o),
(700.5,339,q),
(709,339,o),
(715,339,q),
(778,339,o),
(837,342,q),
(896,345,o),
(956,345,q),
(967,345,o),
(975,340,q),
(983,335,o),
(983,320,q),
(983,318,o),
(981,318,q),
(855,55,l),
(846,36,o),
(823,25,q),
(800,14,o),
(767,8.5,q),
(734,3,o),
(693.5,1.5,q),
(653,0,o),
(610,0,q),
(255,0,l)
);
}
);
width = 992;
}
);
unicode = 122;
},
{
category = Letter;
glyphname = braceleft;
layers = (
{
layerId = "343d4ea0-2832-40ed-9abc-f55d5da1b22f";
name = Fore;
shapes = (
{
closed = 1;
nodes = (
(223,938,o),
(263,969,q),
(303,1000,o),
(334,1045,q),
(365,1090,o),
(391,1144.5,q),
(417,1199,o),
(446,1255.5,q),
(475,1312,o),
(511.5,1366.5,q),
(548,1421,o),
(600.5,1464.5,q),
(653,1508,o),
(725,1537.5,q),
(797,1567,o),
(898,1574,q),
(902,1574,l),
(911,1574,o),
(915.5,1570.5,q),
(920,1567,o),
(920,1556,q),
(912,1500,o),
(908,1457,q),
(904,1414,o),
(900,1374,q),
(896,1334,o),
(890,1291,q),
(884,1248,o),
(872,1192,q),
(869,1164,o),
(859,1154,q),
(849,1144,o),
(839,1143,q),
(789,1137,o),
(761.5,1106.5,q),
(734,1076,o),
(716,1033,q),
(698,990,o),
(683.5,940.5,q),
(669,891,o),
(644.5,847,q),
(620,803,o),
(578.5,770,q),
(537,737,o),
(466,727,q),
(560,676,o),
(603.5,616,q),
(647,556,o),
(647,487,q),
(647,473,o),
(646.5,459.5,q),
(646,446,o),
(646,434,q),
(646,327,o),
(675.5,267.5,q),
(705,208,o),
(757,182,q),
(764,180,o),
(769.5,173.5,q),
(775,167,o),
(775,152,q),
(775,148,o),
(774.5,143,q),
(774,138,o),
(773,133,q),
(764,91,o),
(755.5,58.5,q),
(747,26,o),
(739,-4,q),
(731,-34,o),
(722.5,-66.5,q),
(714,-99,o),
(704,-141,q),
(701,-152,o),
(695.5,-156,q),
(690,-160,o),
(682,-160,q),
(680,-160,o),
(679,-159.5,q),
(678,-159,o),
(676,-159,q),
(595,-146,o),
(514.5,-107.5,q),
(434,-69,o),
(370,-1.5,q),
(306,66,o),
(266,163.5,q),
(226,261,o),
(226,393,q),
(226,407,o),
(226.5,421,q),
(227,435,o),
(227,449,q),
(227,487,o),
(216,516,q),
(205,545,o),
(186,565.5,q),
(167,586,o),
(141,598.5,q),
(115,611,o),
(86,616,q),
(72,618,o),
(65,622.5,q),
(58,627,o),
(58,644,q),
(58,662,o),
(61,687.5,q),
(64,713,o),
(68.5,741,q),
(73,769,o),
(78.5,796.5,q),
(84,824,o),
(88.5,846,q),
(93,868,o),
(96,882,q),
(99,896,o),
(99,896,q),
(105,916,o),
(120.5,920.5,q),
(136,925,o),
(166,929,q)
);
}
);
width = 842;
}
);
unicode = 123;
},
{
category = Letter;
glyphname = bar;
layers = (
{
layerId = "343d4ea0-2832-40ed-9abc-f55d5da1b22f";
name = Fore;
shapes = (
{
closed = 1;
nodes = (
(208,992,o),
(218,1137,q),
(228,1282,o),
(239,1432,q),
(241,1465,o),
(245.5,1477.5,q),
(250,1490,o),
(268,1494,q),
(352,1500,o),
(434,1507.5,q),
(516,1515,o),
(601,1526,q),
(609,1526,o),
(610.5,1523.5,q),
(612,1521,o),
(612,1516,q),
(482,14,l),
(482,-9,l),
(482,-18,o),
(475.5,-23.5,q),
(469,-29,o),
(442,-36,q),
(220,-92,l),
(209,-96,o),
(191,-102,q),
(173,-108,o),
(156,-108,q),
(142,-108,o),
(131.5,-101,q),
(121,-94,o),
(121,-77,q),
(121,-71,l),
(128,37,o),
(135.5,138.5,q),
(143,240,o),
(151,348,q),
(159,456,o),
(169.5,577,q),
(180,698,o),
(193,846,q)
);
}
);
width = 595;
}
);
unicode = 124;
},
{
category = Letter;
glyphname = braceright;
layers = (
{
layerId = "343d4ea0-2832-40ed-9abc-f55d5da1b22f";
name = Fore;
shapes = (
{
closed = 1;
nodes = (
(879,905,o),
(893.5,900.5,q),
(908,896,o),
(908,876,q),
(908,876,o),
(907,860.5,q),
(906,845,o),
(904.5,821,q),
(903,797,o),
(900,766,q),
(897,735,o),
(893,703,q),
(889,671,o),
(884,641.5,q),
(879,612,o),
(873,590,q),
(869,570,o),
(860.5,563.5,q),
(852,557,o),
(836,556,q),
(779,540,o),
(735,479.5,q),
(691,419,o),
(667,307,q),
(652,230,o),
(619,167.5,q),
(586,105,o),
(540.5,55.5,q),
(495,6,o),
(439.5,-31.5,q),
(384,-69,o),
(324.5,-95.5,q),
(265,-122,o),
(204.5,-137.5,q),
(144,-153,o),
(88,-159,q),
(86,-159,o),
(85,-159.5,q),
(84,-160,o),
(82,-160,q),
(65,-160,o),
(65,-141,q),
(65,-121,o),
(65.5,-103.5,q),
(66,-86,o),
(66,-69,q),
(66,-38,o),
(65.5,-14,q),
(65,10,o),
(65,46,q),
(65,66,o),
(66,88.5,q),
(67,111,o),
(70.5,130.5,q),
(74,150,o),
(80.5,164.5,q),
(87,179,o),
(99,182,q),
(133,203,o),
(163,229,q),
(193,255,o),
(218.5,291,q),
(244,327,o),
(264,377,q),
(284,427,o),
(298,496,q),
(315,565,o),
(361.5,625.5,q),
(408,686,o),
(496,737,q),
(439,745,o),
(405,767,q),
(371,789,o),
(352.5,819.5,q),
(334,850,o),
(327,886.5,q),
(320,923,o),
(317,961,q),
(314,999,o),
(311.5,1034.5,q),
(309,1070,o),
(298.5,1099.5,q),
(288,1129,o),
(266.5,1148.5,q),
(245,1168,o),
(204,1173,q),
(196,1175,o),
(189.5,1181.5,q),
(183,1188,o),
(183,1205,q),
(183,1209,o),
(183.5,1213,q),
(184,1217,o),
(185,1222,q),
(188,1273,o),
(193,1312.5,q),
(198,1352,o),
(204.5,1389,q),
(211,1426,o),
(218.5,1465.5,q),
(226,1505,o),
(234,1556,q),
(236,1567,o),
(242,1570.5,q),
(248,1574,o),
(256,1574,q),
(261,1574,l),
(365,1567,o),
(433,1536.5,q),
(501,1506,o),
(543.5,1461,q),
(586,1416,o),
(609.5,1360,q),
(633,1304,o),
(648,1245.5,q),
(663,1187,o),
(674.5,1130.5,q),
(686,1074,o),
(706,1028,q),
(726,982,o),
(759,950,q),
(792,918,o),
(850,909,q)
);
}
);
width = 842;
}
);
unicode = 125;
},
{
category = Letter;
glyphname = asciitilde;
layers = (
{
layerId = "343d4ea0-2832-40ed-9abc-f55d5da1b22f";
name = Fore;
shapes = (
{
closed = 1;
nodes = (
(742,845,o),
(758.5,834,q),
(775,823,o),
(797,823,q),
(828,823,o),
(841.5,839.5,q),
(855,856,o),
(860.5,876.5,q),
(866,897,o),
(869,913.5,q),
(872,930,o),
(881,930,q),
(883,930,o),
(897.5,930.5,q),
(912,931,o),
(933,932,q),
(954,933,o),
(979,934,q),
(1004,935,o),
(1026,936.5,q),
(1048,938,o),
(1064.5,938.5,q),
(1081,939,o),
(1085,939,q),
(1093,939,o),
(1102,935,q),
(1111,931,o),
(1111,920,q),
(1111,848,o),
(1085.5,774.5,q),
(1060,701,o),
(1013.5,641,q),
(967,581,o),
(902,543.5,q),
(837,506,o),
(758,506,q),
(726,506,o),
(694.5,512,q),
(663,518,o),
(631.5,534.5,q),
(600,551,o),
(568,580.5,q),
(536,610,o),
(503,658,q),
(486,682,o),
(467.5,688.5,q),
(449,695,o),
(423,695,q),
(399,695,o),
(384,685,q),
(369,675,o),
(360,659,q),
(351,643,o),
(347.5,623.5,q),
(344,604,o),
(344,585,q),
(344,577,o),
(336,569.5,q),
(328,562,o),
(315,562,q),
(283,562,o),
(263.5,561.5,q),
(244,561,o),
(227.5,560.5,q),
(211,560,o),
(192.5,559.5,q),
(174,559,o),
(144,559,q),
(133,559,o),
(123.5,563,q),
(114,567,o),
(114,576,q),
(114,670,o),
(141,747.5,q),
(168,825,o),
(214.5,880,q),
(261,935,o),
(323,965.5,q),
(385,996,o),
(456,996,q),
(496,996,o),
(530.5,993,q),
(565,990,o),
(597.5,978,q),
(630,966,o),
(660.5,941,q),
(691,916,o),
(723,871,q)
);
}
);
width = 1084;
}
);
unicode = 126;
},
{
category = Letter;
glyphname = exclamdown;
layers = (
{
layerId = "343d4ea0-2832-40ed-9abc-f55d5da1b22f";
name = Fore;
shapes = (
{
closed = 1;
nodes = (
(182,520,o),
(212.5,675.5,q),
(243,831,o),
(269,990,q),
(271,1022,o),
(275.5,1035.5,q),
(280,1049,o),
(298,1052,q),
(337,1059,o),
(375,1067,q),
(413,1075,o),
(455,1086,q),
(463,1086,o),
(464.5,1083.5,q),
(466,1081,o),
(466,1076,q),
(476,88,l),
(473,54,o),
(469,42,q),
(465,30,o),
(447,26,q),
(362,6,o),
(275,-18.5,q),
(188,-43,o),
(91,-67,q),
(88,-68,o),
(82,-68,q),
(71,-68,o),
(71,-58,q),
(71,-57,o),
(75,-33.5,q),
(79,-10,o),
(85.5,27,q),
(92,64,o),
(100,110,q),
(108,156,o),
(117,202.5,q),
(126,249,o),
(134.5,291.5,q),
(143,334,o),
(150,364,q)
);
},
{
closed = 1;
nodes = (
(188,1235,o),
(189.5,1258,q),
(191,1281,o),
(192,1292.5,q),
(193,1304,o),
(193,1307,q),
(193,1310,o),
(193.5,1311.5,q),
(194,1313,o),
(194.5,1317.5,q),
(195,1322,o),
(196,1336.5,q),
(197,1351,o),
(199,1379,q),
(201,1407,o),
(205,1456,q),
(207,1489,o),
(211.5,1501.5,q),
(216,1514,o),
(234,1518,q),
(319,1535,o),
(412,1553.5,q),
(505,1572,o),
(592,1601,q),
(595,1602,o),
(601,1602,q),
(604,1596,o),
(609,1594,q),
(612,1592,l),
(590,1318,l),
(587,1285,o),
(582.5,1272,q),
(578,1259,o),
(561,1256,q),
(476,1240,o),
(389,1221,q),
(302,1202,o),
(205,1183,q),
(202,1182,o),
(196,1182,q),
(185,1182,o),
(185,1192,q)
);
}
);
width = 550;
}
);
unicode = 161;
},
{
category = Letter;
glyphname = cent;
layers = (
{
layerId = "343d4ea0-2832-40ed-9abc-f55d5da1b22f";
name = Fore;
shapes = (
{
closed = 1;
nodes = (
(101,613,o),
(144,724,q),
(187,835,o),
(263.5,920,q),
(340,1005,o),
(445.5,1059,q),
(551,1113,o),
(676,1125,q),
(685,1239,l),
(687,1272,o),
(689.5,1285,q),
(692,1298,o),
(704,1302,q),
(727,1302,o),
(745.5,1302.5,q),
(764,1303,o),
(781.5,1303.5,q),
(799,1304,o),
(818.5,1304.5,q),
(838,1305,o),
(863,1305,q),
(873,1305,o),
(882.5,1297.5,q),
(892,1290,o),
(892,1264,q),
(879,1116,l),
(934,1106,o),
(973,1091.5,q),
(1012,1077,o),
(1037.5,1063,q),
(1063,1049,o),
(1075,1039,q),
(1087,1029,o),
(1087,1028,q),
(1087,1022,o),
(1082.5,994.5,q),
(1078,967,o),
(1072.5,930.5,q),
(1067,894,o),
(1062.5,855.5,q),
(1058,817,o),
(1058,789,q),
(1058,784,o),
(1055,778,q),
(1052,772,o),
(1039,772,q),
(1029,772,o),
(1012.5,777.5,q),
(996,783,o),
(972.5,791,q),
(949,799,o),
(919.5,807,q),
(890,815,o),
(854,820,q),
(803,215,l),
(852,221,o),
(892,235,q),
(932,249,o),
(982,277,q),
(984,278,o),
(990,278,q),
(995,278,o),
(997.5,273,q),
(1000,268,o),
(1000,254,q),
(1000,222,o),
(1000,176.5,q),
(1000,131,o),
(999.5,89.5,q),
(999,48,o),
(998,19,q),
(997,-10,o),
(996,-10,q),
(948,-42,o),
(893,-58,q),
(838,-74,o),
(778,-81,q),
(769,-195,l),
(768,-207,o),
(768,-214,q),
(768,-221,o),
(766.5,-226.5,q),
(765,-232,o),
(760.5,-236,q),
(756,-240,o),
(745,-245,q),
(663,-252,l),
(588,-252,l),
(580,-252,o),
(574.5,-245.5,q),
(569,-239,o),
(569,-222,q),
(569,-185,o),
(573,-150.5,q),
(577,-116,o),
(579,-83,q),
(476,-70,o),
(388.5,-23,q),
(301,24,o),
(237,98.5,q),
(173,173,o),
(137,272,q),
(101,371,o),
(101,488,q)
);
},
{
closed = 1;
nodes = (
(574,764,o),
(529.5,685.5,q),
(485,607,o),
(485,505,q),
(485,418,o),
(515,347.5,q),
(545,277,o),
(606,240,q),
(609,281,o),
(613,330.5,q),
(617,380,o),
(621.5,433.5,q),
(626,487,o),
(630.5,541.5,q),
(635,596,o),
(640,647,q),
(653,800,l)
);
}
);
width = 1087;
}
);
unicode = 162;
},
{
category = Letter;
glyphname = sterling;
layers = (
{
layerId = "343d4ea0-2832-40ed-9abc-f55d5da1b22f";
name = Fore;
shapes = (
{
closed = 1;
nodes = (
(280,-58,o),
(278,-57,q),
(255,-58,o),
(237,-58,q),
(219,-58,o),
(206,-58,q),
(146,-58,o),
(116.5,-52.5,q),
(87,-47,o),
(87,-30,q),
(87,-22,o),
(105.5,2,q),
(124,26,o),
(151.5,56.5,q),
(179,87,o),
(211,119,q),
(243,151,o),
(270,175,q),
(279,274,o),
(292,399.5,q),
(305,525,o),
(320,658,q),
(217,658,l),
(163,658,o),
(139,662.5,q),
(115,667,o),
(115,681,q),
(115,685,o),
(123,702.5,q),
(131,720,o),
(143.5,744.5,q),
(156,769,o),
(170.5,797,q),
(185,825,o),
(198,849.5,q),
(211,874,o),
(220.5,892,q),
(230,910,o),
(232,914,q),
(354,914,l),
(368,1123,l),
(379,1218,o),
(407,1301.5,q),
(435,1385,o),
(486.5,1447.5,q),
(538,1510,o),
(617.5,1546,q),
(697,1582,o),
(810,1582,q),
(879,1582,o),
(943,1567.5,q),
(1007,1553,o),
(1055.5,1534.5,q),
(1104,1516,o),
(1133.5,1497.5,q),
(1163,1479,o),
(1163,1472,q),
(1163,1467,o),
(1161,1462.5,q),
(1159,1458,o),
(1156,1451,q),
(1129,1398,o),
(1113,1359.5,q),
(1097,1321,o),
(1087.5,1296,q),
(1078,1271,o),
(1072,1259.5,q),
(1066,1248,o),
(1059,1248,q),
(1060,1248,o),
(1054,1250,q),
(1012,1271,o),
(970,1284.5,q),
(928,1298,o),
(885,1298,q),
(840,1298,o),
(807.5,1270,q),
(775,1242,o),
(756,1164,q),
(749,1107,o),
(742.5,1042,q),
(736,977,o),
(732,914,q),
(993,914,l),
(1001,914,o),
(1008.5,908.5,q),
(1016,903,o),
(1016,890,q),
(1016,885,o),
(1004,854,q),
(992,823,o),
(970,773,q),
(934,692,l),
(927,677,o),
(919.5,669,q),
(912,661,o),
(889,661,q),
(716,661,l),
(701,540,o),
(688.5,425.5,q),
(676,311,o),
(667,223,q),
(734,226,o),
(795.5,228,q),
(857,230,o),
(907,230.5,q),
(957,231,o),
(993,231.5,q),
(1029,232,o),
(1045,232,q),
(1053,232,o),
(1063,226,q),
(1073,220,o),
(1073,203,q),
(1073,195,o),
(1064,174.5,q),
(1055,154,o),
(1040,125,q),
(1025,96,o),
(1006,60.5,q),
(987,25,o),
(966,-14,q),
(959,-31,o),
(949.5,-39.5,q),
(940,-48,o),
(911,-48,q),
(908,-48,o),
(874,-48.5,q),
(840,-49,o),
(787.5,-50,q),
(735,-51,o),
(668.5,-52.5,q),
(602,-54,o),
(534,-55,q),
(466,-56,o),
(401,-57,q),
(336,-58,o),
(286,-58,q)
);
}
);
width = 1113;
}
);
unicode = 163;
},
{
category = Letter;
glyphname = currency;
layers = (
{
layerId = "343d4ea0-2832-40ed-9abc-f55d5da1b22f";
name = Fore;
shapes = (
{
closed = 1;
nodes = (
(175,910,o),
(205.5,986,q),
(236,1062,o),
(290,1125,q),
(253,1165,l),
(236,1184,o),
(225.5,1197.5,q),
(215,1211,o),
(216,1223,q),
(216,1234,o),
(228,1242,q),
(231,1244,o),
(250,1259.5,q),
(269,1275,o),
(291.5,1294.5,q),
(314,1314,o),
(334.5,1331,q),
(355,1348,o),
(362,1353,q),
(371,1362,o),
(382,1362,q),
(391,1362,o),
(396,1358,q),
(402,1354,l),
(482,1267,l),
(542,1295,o),
(607.5,1309.5,q),
(673,1324,o),
(742,1324,q),
(805,1324,o),
(859.5,1310.5,q),
(914,1297,o),
(962,1273,q),
(1037,1354,l),
(1045,1362,o),
(1057,1362,q),
(1068,1362,o),
(1077,1353,q),
(1084,1348,o),
(1104.5,1331,q),
(1125,1314,o),
(1147.5,1294.5,q),
(1170,1275,o),
(1189,1259.5,q),
(1208,1244,o),
(1211,1242,q),
(1223,1234,o),
(1223,1223,q),
(1223,1204,o),
(1199,1179,q),
(1183,1162,l),
(1166,1145,o),
(1141,1117,q),
(1181,1059,o),
(1202,993,q),
(1223,927,o),
(1223,855,q),
(1223,764,o),
(1199.5,689.5,q),
(1176,615,o),
(1133,555,q),
(1212,468,l),
(1220,459,o),
(1224,449,q),
(1228,439,o),
(1228,430,q),
(1228,416,o),
(1221,409,q),
(1202,386,o),
(1180,366,q),
(1158,346,o),
(1139,331,q),
(1120,316,o),
(1107,307,q),
(1094,298,o),
(1093,298,q),
(1076,298,o),
(1045.5,325.5,q),
(1015,353,o),
(963,408,q),
(833,338,o),
(664,338,q),
(601,338,o),
(548.5,349,q),
(496,360,o),
(448,380,q),
(435,366,l),
(373,300,o),
(346,298,q),
(339,298,o),
(334,303,q),
(328,306,o),
(308.5,322,q),
(289,338,o),
(267,358,q),
(245,378,o),
(228,398,q),
(211,418,o),
(211,430,q),
(211,439,o),
(215,449,q),
(219,459,o),
(227,468,q),
(271,518,l),
(223,581,o),
(199,658,q),
(175,735,o),
(175,819,q)
);
},
{
closed = 1;
nodes = (
(662,1069,o),
(623,1046.5,q),
(584,1024,o),
(557,988,q),
(530,952,o),
(516,906.5,q),
(502,861,o),
(502,815,q),
(502,773,o),
(514,733.5,q),
(526,694,o),
(550.5,664,q),
(575,634,o),
(613,615.5,q),
(651,597,o),
(702,597,q),
(753,597,o),
(791.5,618.5,q),
(830,640,o),
(856,675,q),
(882,710,o),
(895.5,754.5,q),
(909,799,o),
(909,844,q),
(909,887,o),
(897,927.5,q),
(885,968,o),
(860.5,999.5,q),
(836,1031,o),
(799,1050,q),
(762,1069,o),
(712,1069,q)
);
}
);
width = 1277;
}
);
unicode = 164;
},
{
category = Letter;
glyphname = yen;
layers = (
{
layerId = "343d4ea0-2832-40ed-9abc-f55d5da1b22f";
name = Fore;
shapes = (
{
closed = 1;
nodes = (
(416,770,o),
(391.5,823.5,q),
(367,877,o),
(341.5,931.5,q),
(316,986,o),
(291,1039.5,q),
(266,1093,o),
(244.5,1138.5,q),
(223,1184,o),
(206,1218.5,q),
(189,1253,o),
(180,1271,q),
(178,1278,l),
(177,1281,o),
(177,1295,q),
(177,1303,o),
(179,1312.5,q),
(181,1322,o),
(187,1332,q),
(194,1336,o),
(208.5,1342.5,q),
(223,1349,o),
(242.5,1357,q),
(262,1365,o),
(284.5,1374.5,q),
(307,1384,o),
(330,1393,q),
(445,1439,l),
(458,1445,o),
(469,1445,q),
(477,1445,o),
(486.5,1440.5,q),
(496,1436,o),
(508,1424,q),
(739,976,l),
(745,991,l),
(844,1174,l),
(863,1208,o),
(881.5,1241,q),
(900,1274,o),
(914.5,1300,q),
(929,1326,o),
(939,1342,q),
(949,1358,o),
(951,1358,q),
(1294,1444,l),
(1306,1447,o),
(1314,1447,q),
(1337,1447,o),
(1337,1426,q),
(1336,1421,o),
(1335,1412.5,q),
(1334,1404,o),
(1329,1394,q),
(1144,1049,l),
(974,737,l),
(1009,738,o),
(1035.5,738.5,q),
(1062,739,o),
(1074,739,q),
(1087,738,o),
(1098,734,q),
(1107,730,o),
(1114.5,723.5,q),
(1122,717,o),
(1122,704,q),
(1122,691,o),
(1119,665,q),
(1116,639,o),
(1112,613,q),
(1103,546,l),
(1102,540,o),
(1100.5,536,q),
(1099,532,o),
(1094,529,q),
(1089,526,o),
(1079.5,524.5,q),
(1070,523,o),
(1054,523,q),
(1022,521,o),
(978.5,521,q),
(935,521,o),
(872,521,q),
(858,436,l),
(919,438,o),
(964,439,q),
(1009,440,o),
(1026,440,q),
(1039,439,o),
(1050,435,q),
(1059,431,o),
(1066.5,424.5,q),
(1074,418,o),
(1074,405,q),
(1074,392,o),
(1071,366,q),
(1068,340,o),
(1064,314,q),
(1055,247,l),
(1054,241,o),
(1052.5,237,q),
(1051,233,o),
(1046,230,q),
(1041,227,o),
(1031.5,225.5,q),
(1022,224,o),
(1006,224,q),
(974,222,o),
(929.5,222,q),
(885,222,o),
(820,222,q),
(800,104,l),
(797,87,o),
(794.5,76.5,q),
(792,66,o),
(788.5,58.5,q),
(785,51,o),
(779.5,46,q),
(774,41,o),
(765,36,q),
(501,-33,l),
(485,-41,o),
(467.5,-46,q),
(450,-51,o),
(434,-51,q),
(417,-51,o),
(405,-43.5,q),
(393,-36,o),
(393,-19,q),
(393,-15,l),
(396,33,o),
(404,94,q),
(412,155,o),
(422,218,q),
(340,218,l),
(264,218,o),
(228.5,223,q),
(193,228,o),
(193,242,q),
(193,250,o),
(199.5,266.5,q),
(206,283,o),
(217,302.5,q),
(228,322,o),
(242,343.5,q),
(256,365,o),
(272,382.5,q),
(288,400,o),
(304.5,411.5,q),
(321,423,o),
(336,424,q),
(457,426,l),
(457,432,o),
(459,434,q),
(471,517,l),
(388,517,l),
(312,517,o),
(276.5,522,q),
(241,527,o),
(241,541,q),
(241,549,o),
(247.5,565.5,q),
(254,582,o),
(265,601.5,q),
(276,621,o),
(290,642.5,q),
(304,664,o),
(320,681.5,q),
(336,699,o),
(352.5,710.5,q),
(369,722,o),
(384,723,q),
(437,724,l)
);
}
);
width = 1263;
}
);
unicode = 165;
},
{
category = Letter;
glyphname = brokenbar;
layers = (
{
layerId = "343d4ea0-2832-40ed-9abc-f55d5da1b22f";
name = Fore;
shapes = (
{
closed = 1;
nodes = (
(186,926,o),
(190,979.5,q),
(194,1033,o),
(196,1062,q),
(198,1091,o),
(199,1102.5,q),
(200,1114,o),
(201,1122.5,q),
(202,1131,o),
(203.5,1143.5,q),
(205,1156,o),
(207.5,1187.5,q),
(210,1219,o),
(214.5,1276.5,q),
(219,1334,o),
(227,1432,q),
(229,1464,o),
(233.5,1477.5,q),
(238,1491,o),
(256,1494,q),
(340,1508,o),
(422,1521.5,q),
(504,1535,o),
(589,1556,q),
(600,1546,l),
(541,909,l),
(541,886,l),
(541,878,o),
(534,871.5,q),
(527,865,o),
(501,859,q),
(283,809,l),
(272,808,o),
(252,802.5,q),
(232,797,o),
(215,797,q),
(201,797,o),
(190.5,804,q),
(180,811,o),
(180,828,q),
(180,834,l)
);
},
{
closed = 1;
nodes = (
(109,8,o),
(113,61.5,q),
(117,115,o),
(119,144,q),
(121,173,o),
(122,184.5,q),
(123,196,o),
(124,204.5,q),
(125,213,o),
(126.5,225.5,q),
(128,238,o),
(130.5,269.5,q),
(133,301,o),
(137.5,358.5,q),
(142,416,o),
(150,514,q),
(152,547,o),
(156.5,559.5,q),
(161,572,o),
(179,576,q),
(263,592,o),
(345,607.5,q),
(427,623,o),
(512,648,q),
(523,638,l),
(464,11,l),
(464,-12,l),
(464,-22,o),
(457.5,-26.5,q),
(451,-31,o),
(424,-39,q),
(202,-105,l),
(191,-108,o),
(174.5,-114.5,q),
(158,-121,o),
(141,-121,q),
(125,-121,o),
(114,-115,q),
(103,-109,o),
(103,-90,q),
(103,-84,l)
);
}
);
width = 571;
}
);
unicode = 166;
},
{
category = Letter;
glyphname = section;
layers = (
{
layerId = "343d4ea0-2832-40ed-9abc-f55d5da1b22f";
name = Fore;
shapes = (
{
closed = 1;
nodes = (
(201,142,o),
(199.5,143.5,q),
(198,145,o),
(198,147,q),
(198,157,o),
(210,157,q),
(218,157,o),
(228,150,q),
(283,112,o),
(347,88,q),
(411,64,o),
(480,64,q),
(495,64,o),
(513.5,67,q),
(532,70,o),
(547.5,76.5,q),
(563,83,o),
(574,94,q),
(585,105,o),
(585,122,q),
(585,146,o),
(568.5,168.5,q),
(552,191,o),
(528,205,q),
(457,244,o),
(384.5,286.5,q),
(312,329,o),
(253.5,382.5,q),
(195,436,o),
(158,505.5,q),
(121,575,o),
(121,669,q),
(121,772,o),
(171.5,848,q),
(222,924,o),
(316,955,q),
(305,977,o),
(295,1003,q),
(285,1029,o),
(277,1056.5,q),
(269,1084,o),
(264,1111.5,q),
(259,1139,o),
(259,1165,q),
(259,1223,o),
(285,1272.5,q),
(311,1322,o),
(360,1359,q),
(409,1396,o),
(479.5,1417,q),
(550,1438,o),
(639,1438,q),
(644,1438,o),
(662.5,1436.5,q),
(681,1435,o),
(707,1431.5,q),
(733,1428,o),
(762,1421.5,q),
(791,1415,o),
(817,1405,q),
(843,1395,o),
(862,1381.5,q),
(881,1368,o),
(887,1350,q),
(906,1287,o),
(922,1226,q),
(938,1165,o),
(958,1098,q),
(959,1096,o),
(959,1090,q),
(959,1076,o),
(943,1076,q),
(935,1076,o),
(930,1081,q),
(902,1103,o),
(873,1124.5,q),
(844,1146,o),
(813.5,1162.5,q),
(783,1179,o),
(750.5,1189.5,q),
(718,1200,o),
(684,1200,q),
(666,1200,o),
(647.5,1197,q),
(629,1194,o),
(615,1187,q),
(601,1180,o),
(592,1168,q),
(583,1156,o),
(583,1137,q),
(583,1072,o),
(644,1035,q),
(739,976,o),
(806.5,926,q),
(874,876,o),
(919.5,833.5,q),
(965,791,o),
(991,754.5,q),
(1017,718,o),
(1030.5,687,q),
(1044,656,o),
(1047.5,628.5,q),
(1051,601,o),
(1051,576,q),
(1051,523,o),
(1035.5,477.5,q),
(1020,432,o),
(993,396,q),
(966,360,o),
(930,334,q),
(894,308,o),
(854,294,q),
(886,246,o),
(899,199,q),
(912,152,o),
(912,110,q),
(912,42,o),
(882,-12.5,q),
(852,-67,o),
(803.5,-106,q),
(755,-145,o),
(692.5,-166,q),
(630,-187,o),
(564,-187,q),
(487,-187,o),
(416,-179.5,q),
(345,-172,o),
(278,-136,q),
(201,141,l)
);
},
{
closed = 1;
nodes = (
(595,717,o),
(566,725.5,q),
(537,734,o),
(505,734,q),
(487,734,o),
(468.5,731,q),
(450,728,o),
(436,721,q),
(422,714,o),
(413,702,q),
(404,690,o),
(404,672,q),
(404,653,o),
(410.5,633,q),
(417,613,o),
(428,599,q),
(473,567,o),
(523.5,548.5,q),
(574,530,o),
(628,530,q),
(643,530,o),
(661.5,533,q),
(680,536,o),
(696,542.5,q),
(712,549,o),
(723,560.5,q),
(734,572,o),
(734,589,q),
(734,607,o),
(723.5,624.5,q),
(713,642,o),
(699,655,q),
(673,673,l),
(624,703,l)
);
}
);
width = 1061;
}
);
unicode = 167;
},
{
category = Letter;
glyphname = dieresis;
layers = (
{
layerId = "343d4ea0-2832-40ed-9abc-f55d5da1b22f";
name = Fore;
shapes = (
{
closed = 1;
nodes = (
(92,1285,o),
(93,1310.5,q),
(94,1336,o),
(94.5,1347,q),
(95,1358,o),
(95,1362,q),
(95,1366,o),
(95.5,1380,q),
(96,1394,o),
(97.5,1425,q),
(99,1456,o),
(102,1521,q),
(104,1551,o),
(109,1562.5,q),
(114,1574,o),
(129,1576,q),
(207,1576,o),
(294.5,1577,q),
(382,1578,o),
(457,1578,q),
(467,1578,o),
(471,1572.5,q),
(475,1567,o),
(475,1552,q),
(450,1274,l),
(447,1245,o),
(443,1233.5,q),
(439,1222,o),
(424,1220,q),
(348,1219,o),
(267.5,1218.5,q),
(187,1218,o),
(99,1218,q),
(94,1218,o),
(91.5,1219,q),
(89,1220,o),
(89,1225,q),
(89,1228,l)
);
},
{
closed = 1;
nodes = (
(718,1289,o),
(719.5,1319.5,q),
(721,1350,o),
(721.5,1363,q),
(722,1376,o),
(721.5,1380,q),
(721,1384,o),
(721.5,1395.5,q),
(722,1407,o),
(723.5,1434,q),
(725,1461,o),
(729,1520,q),
(731,1549,o),
(735,1560.5,q),
(739,1572,o),
(754,1574,q),
(833,1574,o),
(920,1574.5,q),
(1007,1575,o),
(1082,1576,q),
(1090,1576,o),
(1095.5,1572,q),
(1101,1568,o),
(1101,1556,q),
(1077,1273,l),
(1073,1243,o),
(1069.5,1232,q),
(1066,1221,o),
(1049,1219,q),
(972,1218,o),
(890.5,1217,q),
(809,1216,o),
(720,1216,q),
(717,1216,o),
(716,1216.5,q),
(715,1217,o),
(715,1222,q),
(715,1226,l)
);
}
);
width = 1189;
}
);
unicode = 168;
},
{
category = Letter;
glyphname = copyright;
layers = (
{
layerId = "343d4ea0-2832-40ed-9abc-f55d5da1b22f";
name = Fore;
shapes = (
{
closed = 1;
nodes = (
(913,103,o),
(995.5,123.5,q),
(1078,144,o),
(1149.5,182,q),
(1221,220,o),
(1280,275,q),
(1339,330,o),
(1381,399.5,q),
(1423,469,o),
(1446,551.5,q),
(1469,634,o),
(1469,728,q),
(1469,837,o),
(1431.5,933,q),
(1394,1029,o),
(1326.5,1100,q),
(1259,1171,o),
(1165,1212,q),
(1071,1253,o),
(959,1253,q),
(830,1253,o),
(714,1210,q),
(598,1167,o),
(511,1088,q),
(424,1009,o),
(372.5,898.5,q),
(321,788,o),
(321,652,q),
(321,542,o),
(355.5,442.5,q),
(390,343,o),
(455,267.5,q),
(520,192,o),
(613,147.5,q),
(706,103,o),
(824,103,q)
);
},
{
closed = 1;
nodes = (
(635,-63,o),
(514,-5,q),
(393,53,o),
(308,151.5,q),
(223,250,o),
(178,380,q),
(133,510,o),
(133,653,q),
(133,830,o),
(200,974,q),
(267,1118,o),
(381,1221,q),
(495,1324,o),
(646,1380,q),
(797,1436,o),
(965,1436,q),
(1112,1436,o),
(1234,1382.5,q),
(1356,1329,o),
(1444,1236.5,q),
(1532,1144,o),
(1581,1019,q),
(1630,894,o),
(1630,752,q),
(1630,630,o),
(1600,521.5,q),
(1570,413,o),
(1515,322.5,q),
(1460,232,o),
(1383.5,160.5,q),
(1307,89,o),
(1213,39.5,q),
(1119,-10,o),
(1011.5,-36.5,q),
(904,-63,o),
(788,-63,q)
);
},
{
closed = 1;
nodes = (
(441,755,o),
(479,850,q),
(517,945,o),
(584.5,1015.5,q),
(652,1086,o),
(744,1126.5,q),
(836,1167,o),
(944,1167,q),
(1001,1167,o),
(1044.5,1159.5,q),
(1088,1152,o),
(1120,1140.5,q),
(1152,1129,o),
(1173.5,1115.5,q),
(1195,1102,o),
(1209,1090,q),
(1209,1085,l),
(1209,1075,o),
(1210.5,1049.5,q),
(1212,1024,o),
(1214.5,992,q),
(1217,960,o),
(1218.5,927,q),
(1220,894,o),
(1220,870,q),
(1220,865,o),
(1217,861,q),
(1214,857,o),
(1199,857,q),
(1187,857,o),
(1166.5,870.5,q),
(1146,884,o),
(1117.5,900.5,q),
(1089,917,o),
(1052,931,q),
(1015,945,o),
(971,945,q),
(918,945,o),
(874.5,923.5,q),
(831,902,o),
(800,864,q),
(769,826,o),
(752.5,773.5,q),
(736,721,o),
(736,659,q),
(736,609,o),
(748,564.5,q),
(760,520,o),
(783.5,486,q),
(807,452,o),
(842,432,q),
(877,412,o),
(924,412,q),
(961,412,o),
(989.5,414.5,q),
(1018,417,o),
(1042.5,423,q),
(1067,429,o),
(1091,439,q),
(1115,449,o),
(1142,464,q),
(1150,464,o),
(1153.5,462,q),
(1157,460,o),
(1157,446,q),
(1157,422,o),
(1157,389,q),
(1157,356,o),
(1156.5,326,q),
(1156,296,o),
(1155.5,274.5,q),
(1155,253,o),
(1154,253,q),
(1124,234,o),
(1090,222,q),
(1056,210,o),
(1020,203.5,q),
(984,197,o),
(947.5,194.5,q),
(911,192,o),
(877,192,q),
(785,192,o),
(705.5,225,q),
(626,258,o),
(567,318,q),
(508,378,o),
(474.5,461.5,q),
(441,545,o),
(441,646,q)
);
}
);
width = 1640;
}
);
unicode = 169;
},
{
category = Letter;
glyphname = ordfeminine;
layers = (
{
layerId = "343d4ea0-2832-40ed-9abc-f55d5da1b22f";
name = Fore;
shapes = (
{
closed = 1;
nodes = (
(942,722,o),
(948,707.5,q),
(954,693,o),
(961.5,683.5,q),
(969,674,o),
(975,668.5,q),
(981,663,o),
(981,659,q),
(981,648,o),
(958,639,q),
(750,549,l),
(749,548,o),
(745,548,q),
(738,548,o),
(731.5,559,q),
(725,570,o),
(719,586.5,q),
(713,603,o),
(708,622,q),
(703,641,o),
(699,658,q),
(650,601,o),
(592.5,575,q),
(535,549,o),
(480,549,q),
(414,549,o),
(352,577.5,q),
(290,606,o),
(242,659.5,q),
(194,713,o),
(165,788.5,q),
(136,864,o),
(136,958,q),
(136,1069,o),
(168,1161,q),
(200,1253,o),
(255.5,1318.5,q),
(311,1384,o),
(384,1420.5,q),
(457,1457,o),
(540,1457,q),
(598,1457,o),
(649.5,1433.5,q),
(701,1410,o),
(749,1373,q),
(753,1397,o),
(754,1411,q),
(755,1425,o),
(758,1432.5,q),
(761,1440,o),
(769,1442.5,q),
(777,1445,o),
(795,1447,q),
(852,1455,o),
(907,1461.5,q),
(962,1468,o),
(1023,1471,q),
(942,745,l)
);
},
{
closed = 1;
nodes = (
(714,1067,o),
(717.5,1094,q),
(721,1121,o),
(722,1144,q),
(725,1194,l),
(714,1203,o),
(699,1213.5,q),
(684,1224,o),
(667,1232.5,q),
(650,1241,o),
(631,1247,q),
(612,1253,o),
(593,1253,q),
(551,1253,o),
(522.5,1225.5,q),
(494,1198,o),
(476.5,1158.5,q),
(459,1119,o),
(451.5,1074.5,q),
(444,1030,o),
(444,996,q),
(444,873,o),
(476.5,816,q),
(509,759,o),
(567,759,q),
(590,759,o),
(618.5,772,q),
(647,785,o),
(677,808,q),
(710,1039,l)
);
}
);
width = 987;
}
);
unicode = 170;
},
{
category = Letter;
glyphname = guillemotleft;
kernLeft = guillemotleft.2;
kernRight = guillemotleft;
layers = (
{
layerId = "343d4ea0-2832-40ed-9abc-f55d5da1b22f";
name = Fore;
shapes = (
{
closed = 1;
nodes = (
(1012,319,o),
(1012,313,q),
(1012,308,o),
(1009,301,q),
(965,226,o),
(934.5,146.5,q),
(904,67,o),
(872,-10,q),
(865,-29,o),
(846,-29,q),
(838,-29,o),
(830,-26,q),
(822,-23,o),
(808,-17,q),
(168,365,l),
(136,381,o),
(126,391,q),
(116,401,o),
(116,421,q),
(116,497,o),
(115.5,575,q),
(115,653,o),
(109,737,q),
(109,739,o),
(108.5,740,q),
(108,741,o),
(108,742,q),
(110,749,l),
(111,754,o),
(115,757.5,q),
(119,761,o),
(122,761,q),
(156,777,o),
(209.5,798.5,q),
(263,820,o),
(329,845,q),
(395,870,o),
(471,898,q),
(547,926,o),
(625.5,954.5,q),
(704,983,o),
(782,1012,q),
(860,1041,o),
(931,1068,q),
(962,1077,o),
(976,1077,q),
(989,1077,o),
(992,1061,q),
(994,984,o),
(997.5,899.5,q),
(1001,815,o),
(1017,740,q),
(1017,728,o),
(1013.5,723,q),
(1010,718,o),
(1004,717,q),
(558,555,l),
(569,549,o),
(601.5,532,q),
(634,515,o),
(678,492,q),
(722,469,o),
(772.5,443.5,q),
(823,418,o),
(869,394,q),
(915,370,o),
(951,351.5,q),
(987,333,o),
(1004,324,q)
);
},
{
closed = 1;
nodes = (
(2002,319,o),
(2002,313,q),
(2002,308,o),
(1999,301,q),
(1955,226,o),
(1924.5,146.5,q),
(1894,67,o),
(1862,-10,q),
(1855,-29,o),
(1836,-29,q),
(1828,-29,o),
(1820,-26,q),
(1812,-23,o),
(1798,-17,q),
(1158,365,l),
(1126,381,o),
(1116,391,q),
(1106,401,o),
(1106,421,q),
(1106,497,o),
(1105.5,575,q),
(1105,653,o),
(1099,737,q),
(1099,739,o),
(1098.5,740,q),
(1098,741,o),
(1098,742,q),
(1100,749,l),
(1101,754,o),
(1105,757.5,q),
(1109,761,o),
(1112,761,q),
(1146,777,o),
(1199.5,798.5,q),
(1253,820,o),
(1319,845,q),
(1385,870,o),
(1461,898,q),
(1537,926,o),
(1615.5,954.5,q),
(1694,983,o),
(1772,1012,q),
(1850,1041,o),
(1921,1068,q),
(1952,1077,o),
(1966,1077,q),
(1979,1077,o),
(1982,1061,q),
(1984,984,o),
(1987.5,899.5,q),
(1991,815,o),
(2007,740,q),
(2007,728,o),
(2003.5,723,q),
(2000,718,o),
(1994,717,q),
(1548,555,l),
(1559,549,o),
(1591.5,532,q),
(1624,515,o),
(1668,492,q),
(1712,469,o),
(1762.5,443.5,q),
(1813,418,o),
(1859,394,q),
(1905,370,o),
(1941,351.5,q),
(1977,333,o),
(1994,324,q)
);
}
);
width = 2032;
}
);
unicode = 171;
},
{
category = Letter;
glyphname = logicalnot;
layers = (
{
layerId = "343d4ea0-2832-40ed-9abc-f55d5da1b22f";
name = Fore;
shapes = (
{
closed = 1;
nodes = (
(178,517,o),
(143.5,521.5,q),
(109,526,o),
(109,541,q),
(109,549,o),
(115.5,565.5,q),
(122,582,o),
(133,601.5,q),
(144,621,o),
(158,642.5,q),
(172,664,o),
(188,681.5,q),
(204,699,o),
(220.5,710.5,q),
(237,722,o),
(252,723,q),
(604,733,l),
(658,734,o),
(708,735.5,q),
(758,737,o),
(799,738,q),
(840,739,o),
(870,740,q),
(900,741,o),
(914,741,q),
(956,741,o),
(973,736.5,q),
(990,732,o),
(990,706,q),
(990,699,o),
(989.5,692.5,q),
(989,686,o),
(989,681,q),
(984,569,l),
(984,557,o),
(982.5,528.5,q),
(981,500,o),
(979,464,q),
(977,428,o),
(974,388.5,q),
(971,349,o),
(969,315.5,q),
(967,282,o),
(965.5,258.5,q),
(964,235,o),
(964,231,q),
(962,218,o),
(958,207,q),
(954,198,o),
(946.5,190.5,q),
(939,183,o),
(926,183,q),
(914,183,o),
(896.5,184.5,q),
(879,186,o),
(858,188.5,q),
(837,191,o),
(814,194.5,q),
(791,198,o),
(769,202,q),
(759,204,o),
(754,209,q),
(749,214,o),
(749,234,q),
(748,260,o),
(751.5,288.5,q),
(755,317,o),
(757,345,q),
(770,523,l),
(725,523,o),
(679.5,523,q),
(634,523,o),
(601,522,q),
(256,517,l)
);
}
);
width = 1059;
}
);
unicode = 172;
},
{
category = Letter;
glyphname = registered;
layers = (
{
layerId = "343d4ea0-2832-40ed-9abc-f55d5da1b22f";
name = Fore;
shapes = (
{
closed = 1;
nodes = (
(814,352,o),
(812.5,346.5,q),
(811,341,o),
(805,339,q),
(797,335,o),
(779.5,328.5,q),
(762,322,o),
(740,314.5,q),
(718,307,o),
(694.5,299,q),
(671,291,o),
(651,284.5,q),
(631,278,o),
(618,274,q),
(605,270,o),
(604,270,q),
(596,270,o),
(589.5,274,q),
(583,278,o),
(583,289,q),
(583,307,o),
(585.5,347,q),
(588,387,o),
(591.5,440.5,q),
(595,494,o),
(600.5,558,q),
(606,622,o),
(611.5,688.5,q),
(617,755,o),
(622.5,820.5,q),
(628,886,o),
(633,944,q),
(633,945,o),
(630,945,q),
(620,945,o),
(588,939,q),
(556,933,o),
(517,926,q),
(504,926,o),
(504,933,q),
(504,935,o),
(505,936,q),
(599,1100,l),
(665,1114,o),
(748,1127.5,q),
(831,1141,o),
(937,1141,q),
(997,1141,o),
(1054.5,1129,q),
(1112,1117,o),
(1156,1090,q),
(1200,1063,o),
(1227,1018.5,q),
(1254,974,o),
(1254,909,q),
(1254,874,o),
(1241.5,845.5,q),
(1229,817,o),
(1209.5,793.5,q),
(1190,770,o),
(1166.5,752,q),
(1143,734,o),
(1122,721,q),
(1101,708,o),
(1085,700,q),
(1069,692,o),
(1064,689,q),
(1064,688,o),
(1066,684.5,q),
(1068,681,o),
(1074,671,q),
(1080,661,o),
(1091.5,642,q),
(1103,623,o),
(1122,590.5,q),
(1141,558,o),
(1169,510,q),
(1197,462,o),
(1237,394,q),
(1247,386,o),
(1259.5,384,q),
(1272,382,o),
(1283,381.5,q),
(1294,381,o),
(1302,380,q),
(1310,379,o),
(1310,373,q),
(1310,368,o),
(1300.5,362,q),
(1291,356,o),
(1278,349.5,q),
(1265,343,o),
(1252,337,q),
(1239,331,o),
(1232,328,q),
(1218,322,o),
(1203.5,315.5,q),
(1189,309,o),
(1171.5,301,q),
(1154,293,o),
(1132.5,282.5,q),
(1111,272,o),
(1084,258,q),
(1077,253,o),
(1071,252,q),
(1065,251,o),
(1060,251,q),
(1049,251,o),
(1041.5,256,q),
(1034,261,o),
(1029,267.5,q),
(1024,274,o),
(1021,281,q),
(1018,288,o),
(1016,293,q),
(843,658,l),
(815,357,l)
);
},
{
closed = 1;
nodes = (
(880,729,o),
(912,744.5,q),
(944,760,o),
(970,782.5,q),
(996,805,o),
(1012.5,831,q),
(1029,857,o),
(1029,879,q),
(1029,979,o),
(928,979,q),
(917,979,o),
(907.5,978,q),
(898,977,o),
(890,976,q),
(873,973,l),
(850,729,l)
);
},
{
closed = 1;
nodes = (
(913,103,o),
(995.5,123.5,q),
(1078,144,o),
(1149.5,182,q),
(1221,220,o),
(1280,275,q),
(1339,330,o),
(1381,399.5,q),
(1423,469,o),
(1446,551.5,q),
(1469,634,o),
(1469,728,q),
(1469,837,o),
(1431.5,933,q),
(1394,1029,o),
(1326.5,1100,q),
(1259,1171,o),
(1165,1212,q),
(1071,1253,o),
(959,1253,q),
(830,1253,o),
(714,1210,q),
(598,1167,o),
(511,1088,q),
(424,1009,o),
(372.5,898.5,q),
(321,788,o),
(321,652,q),
(321,542,o),
(355.5,442.5,q),
(390,343,o),
(455,267.5,q),
(520,192,o),
(613,147.5,q),
(706,103,o),
(824,103,q)
);
},
{
closed = 1;
nodes = (
(635,-63,o),
(514,-5,q),
(393,53,o),
(308,151.5,q),
(223,250,o),
(178,380,q),
(133,510,o),
(133,653,q),
(133,830,o),
(200,974,q),
(267,1118,o),
(381,1221,q),
(495,1324,o),
(646,1380,q),
(797,1436,o),
(965,1436,q),
(1112,1436,o),
(1234,1382.5,q),
(1356,1329,o),
(1444,1236.5,q),
(1532,1144,o),
(1581,1019,q),
(1630,894,o),
(1630,752,q),
(1630,630,o),
(1600,521.5,q),
(1570,413,o),
(1515,322.5,q),
(1460,232,o),
(1383.5,160.5,q),
(1307,89,o),
(1213,39.5,q),
(1119,-10,o),
(1011.5,-36.5,q),
(904,-63,o),
(788,-63,q)
);
}
);
width = 1640;
}
);
unicode = 174;
},
{
category = Letter;
glyphname = degree;
layers = (
{
layerId = "343d4ea0-2832-40ed-9abc-f55d5da1b22f";
name = Fore;
shapes = (
{
closed = 1;
nodes = (
(491,558,o),
(407.5,587,q),
(324,616,o),
(262.5,671.5,q),
(201,727,o),
(166,807.5,q),
(131,888,o),
(131,990,q),
(131,1083,o),
(168,1166.5,q),
(205,1250,o),
(270,1312.5,q),
(335,1375,o),
(423.5,1411.5,q),
(512,1448,o),
(616,1448,q),
(707,1448,o),
(786.5,1418.5,q),
(866,1389,o),
(924.5,1335,q),
(983,1281,o),
(1016.5,1204.5,q),
(1050,1128,o),
(1050,1035,q),
(1050,946,o),
(1018,860.5,q),
(986,775,o),
(926,707.5,q),
(866,640,o),
(780,599,q),
(694,558,o),
(587,558,q)
);
},
{
closed = 1;
nodes = (
(757,999,o),
(757.5,1008,q),
(758,1017,o),
(758,1026,q),
(758,1056,o),
(751,1089.5,q),
(744,1123,o),
(728,1150.5,q),
(712,1178,o),
(685.5,1196,q),
(659,1214,o),
(619,1214,q),
(566,1214,o),
(527,1194.5,q),
(488,1175,o),
(462.5,1143.5,q),
(437,1112,o),
(424,1073,q),
(411,1034,o),
(411,994,q),
(411,963,o),
(417.5,928.5,q),
(424,894,o),
(440.5,865,q),
(457,836,o),
(485,816.5,q),
(513,797,o),
(557,796,q),
(605,796,o),
(640.5,813.5,q),
(676,831,o),
(700,859,q),
(724,887,o),
(737.5,921.5,q),
(751,956,o),
(756,991,q)
);
}
);
width = 1007;
}
);
unicode = 176;
},
{
category = Letter;
glyphname = plusminus;
layers = (
{
layerId = "343d4ea0-2832-40ed-9abc-f55d5da1b22f";
name = Fore;
shapes = (
{
closed = 1;
nodes = (
(372,659,o),
(333.5,659,q),
(295,659,o),
(272,659,q),
(212,659,o),
(182.5,664.5,q),
(153,670,o),
(153,687,q),
(153,696,o),
(158.5,724.5,q),
(164,753,o),
(171.5,788.5,q),
(179,824,o),
(186.5,860.5,q),
(194,897,o),
(199,922,q),
(201,934,o),
(214.5,944,q),
(228,954,o),
(250,955,q),
(451,958,l),
(453,979,l),
(458,1047,o),
(460,1096,q),
(462,1145,o),
(466.5,1176,q),
(471,1207,o),
(481,1221.5,q),
(491,1236,o),
(512,1236,q),
(514,1236,o),
(516.5,1235.5,q),
(519,1235,o),
(522,1235,q),
(528,1235,o),
(540.5,1235.5,q),
(553,1236,o),
(569,1236.5,q),
(585,1237,o),
(604,1237.5,q),
(623,1238,o),
(641,1238,q),
(736,1241,l),
(750,1237,o),
(757,1230.5,q),
(764,1224,o),
(764,1206,q),
(764,1204,o),
(764,1203,q),
(764,1202,o),
(763.5,1196,q),
(763,1190,o),
(762,1177,q),
(761,1164,o),
(759,1138,q),
(757,1112,o),
(753.5,1069.5,q),
(750,1027,o),
(745,963,q),
(762,964,l),
(799,965,o),
(834.5,966,q),
(870,967,o),
(899.5,967.5,q),
(929,968,o),
(950.5,968.5,q),
(972,969,o),
(981,969,q),
(989,969,o),
(999,963,q),
(1009,957,o),
(1009,940,q),
(1008,938,o),
(1004,901,q),
(1000,864,o),
(993,800,q),
(982,703,l),
(976,689,o),
(970.5,682.5,q),
(965,676,o),
(954,673,q),
(943,670,o),
(922.5,669.5,q),
(902,669,o),
(867,668,q),
(721,665,l),
(708,519,l),
(705,481,o),
(700.5,456.5,q),
(696,432,o),
(690,418,q),
(684,404,o),
(675.5,398.5,q),
(667,393,o),
(656,393,q),
(639,393,o),
(610,393.5,q),
(581,394,o),
(548.5,395,q),
(516,396,o),
(484,396.5,q),
(452,397,o),
(430,397,q),
(418,399,o),
(410.5,409,q),
(403,419,o),
(403,439,q),
(403,445,l),
(423,660,l)
);
},
{
closed = 1;
nodes = (
(161,7,o),
(126.5,11.5,q),
(92,16,o),
(92,31,q),
(92,39,o),
(98.5,55.5,q),
(105,72,o),
(116,91.5,q),
(127,111,o),
(141,132.5,q),
(155,154,o),
(171,171.5,q),
(187,189,o),
(203.5,200.5,q),
(220,212,o),
(235,213,q),
(587,223,l),
(599,223,o),
(627.5,223.5,q),
(656,224,o),
(692,224.5,q),
(728,225,o),
(767.5,226,q),
(807,227,o),
(840.5,227.5,q),
(874,228,o),
(897.5,228.5,q),
(921,229,o),
(925,229,q),
(938,228,o),
(949,224,q),
(958,220,o),
(965.5,213.5,q),
(973,207,o),
(973,194,q),
(973,181,o),
(970,155,q),
(967,129,o),
(963,103,q),
(954,36,l),
(953,30,o),
(951.5,26,q),
(950,22,o),
(945,19,q),
(940,16,o),
(930.5,14.5,q),
(921,13,o),
(905,13,q),
(783,13,l),
(758,13,o),
(731,13,q),
(704,13,o),
(678,12.5,q),
(652,12,o),
(627.5,12,q),
(603,12,o),
(584,12,q),
(239,7,l)
);
}
);
width = 1045;
}
);
unicode = 177;
},
{
category = Letter;
glyphname = twosuperior;
layers = (
{
layerId = "343d4ea0-2832-40ed-9abc-f55d5da1b22f";
name = Fore;
shapes = (
{
closed = 1;
nodes = (
(691,1115,o),
(679.5,1094.5,q),
(668,1074,o),
(652,1047.5,q),
(636,1021,o),
(617,990.5,q),
(598,960,o),
(579,930,q),
(481,775,l),
(481,774,o),
(482,774,q),
(484,774,l),
(494,774,o),
(525.5,777,q),
(557,780,o),
(595.5,784,q),
(634,788,o),
(672.5,791,q),
(711,794,o),
(734,794,q),
(766,794,o),
(766,780,q),
(766,772,o),
(761.5,763,q),
(757,754,o),
(757,753,q),
(667,585,l),
(666,585,o),
(665.5,582.5,q),
(665,580,o),
(664,580,q),
(652,568,o),
(641.5,566.5,q),
(631,565,o),
(623,564,q),
(544,563,o),
(491,562,q),
(438,561,o),
(397,560.5,q),
(356,560,o),
(320,560,q),
(284,560,o),
(239,560,q),
(179,560,o),
(155.5,569.5,q),
(132,579,o),
(132,597,q),
(132,609,o),
(140.5,624.5,q),
(149,640,o),
(162,660,q),
(280,827,l),
(370,950,o),
(421.5,1030,q),
(473,1110,o),
(473,1155,q),
(473,1180,o),
(462.5,1199,q),
(452,1218,o),
(434,1231.5,q),
(416,1245,o),
(391.5,1252,q),
(367,1259,o),
(339,1259,q),
(304,1259,o),
(266.5,1248,q),
(229,1237,o),
(194,1214,q),
(180,1206,o),
(174,1206,q),
(167,1206,o),
(165,1212,q),
(163,1218,o),
(163,1223,q),
(163,1247,o),
(169.5,1279.5,q),
(176,1312,o),
(183.5,1341.5,q),
(191,1371,o),
(197.5,1393,q),
(204,1415,o),
(204,1418,q),
(205,1418,o),
(220,1429.5,q),
(235,1441,o),
(268,1455.5,q),
(301,1470,o),
(353.5,1481.5,q),
(406,1493,o),
(483,1493,q),
(528,1493,o),
(573,1474.5,q),
(618,1456,o),
(654,1423.5,q),
(690,1391,o),
(712.5,1347.5,q),
(735,1304,o),
(735,1253,q),
(735,1223,o),
(725.5,1191,q),
(716,1159,o),
(696,1126,q)
);
}
);
width = 734;
}
);
unicode = 178;
},
{
category = Letter;
glyphname = threesuperior;
layers = (
{
layerId = "343d4ea0-2832-40ed-9abc-f55d5da1b22f";
name = Fore;
shapes = (
{
closed = 1;
nodes = (
(458,539,o),
(435,539,q),
(401,539,o),
(371.5,543.5,q),
(342,548,o),
(312.5,556,q),
(283,564,o),
(253,576,q),
(223,588,o),
(189,602,q),
(178,605,o),
(173,624.5,q),
(168,644,o),
(164.5,671.5,q),
(161,699,o),
(158,730.5,q),
(155,762,o),
(149,788,q),
(149,811,o),
(168,811,q),
(172,811,o),
(173,810,q),
(194,797,o),
(216.5,782.5,q),
(239,768,o),
(264.5,756,q),
(290,744,o),
(319.5,736.5,q),
(349,729,o),
(384,729,q),
(429,729,o),
(452,748,q),
(475,767,o),
(475,813,q),
(475,825,o),
(472,839,q),
(469,853,o),
(459.5,864.5,q),
(450,876,o),
(432.5,884,q),
(415,892,o),
(385,892,q),
(276,892,l),
(276,895,o),
(278,909,q),
(280,923,o),
(282.5,942.5,q),
(285,962,o),
(288.5,984,q),
(292,1006,o),
(294.5,1025,q),
(297,1044,o),
(299,1057,q),
(301,1070,o),
(301,1072,q),
(305,1092,o),
(308.5,1099,q),
(312,1106,o),
(316,1106,q),
(330,1106,o),
(343,1103,q),
(356,1100,o),
(370,1100,q),
(408,1100,o),
(429,1124.5,q),
(450,1149,o),
(450,1187,q),
(450,1216,o),
(432.5,1240,q),
(415,1264,o),
(375,1264,q),
(330,1264,o),
(285,1254,q),
(240,1244,o),
(205,1233,q),
(206,1238,o),
(206.5,1246,q),
(207,1254,o),
(207,1263,q),
(207,1272,o),
(206.5,1282.5,q),
(206,1293,o),
(206,1304,q),
(206,1322,o),
(207.5,1341,q),
(209,1360,o),
(213,1376,q),
(217,1392,o),
(225,1404,q),
(233,1416,o),
(247,1420,q),
(281,1430,o),
(305.5,1436,q),
(330,1442,o),
(351.5,1445.5,q),
(373,1449,o),
(394,1450,q),
(415,1451,o),
(442,1451,q),
(492,1451,o),
(543,1437.5,q),
(594,1424,o),
(635.5,1396.5,q),
(677,1369,o),
(703,1326,q),
(729,1283,o),
(729,1225,q),
(729,1186,o),
(718.5,1154.5,q),
(708,1123,o),
(692,1098.5,q),
(676,1074,o),
(657,1055.5,q),
(638,1037,o),
(622,1024,q),
(642,1015,o),
(663,999.5,q),
(684,984,o),
(701.5,961,q),
(719,938,o),
(730.5,905.5,q),
(742,873,o),
(742,830,q),
(742,779,o),
(722.5,729,q),
(703,679,o),
(668.5,639,q),
(634,599,o),
(586.5,572.5,q),
(539,546,o),
(484,542,q)
);
}
);
width = 747;
}
);
unicode = 179;
},
{
category = Letter;
glyphname = acute;
layers = (
{
layerId = "343d4ea0-2832-40ed-9abc-f55d5da1b22f";
name = Fore;
shapes = (
{
closed = 1;
nodes = (
(332,1331,o),
(302.5,1291.5,q),
(273,1252,o),
(254,1229,q),
(235,1206,o),
(224,1197,q),
(213,1188,o),
(206,1188,q),
(200,1188,o),
(196,1192,q),
(175,1206,o),
(158,1216.5,q),
(141,1227,o),
(126,1235.5,q),
(111,1244,o),
(95.5,1252,q),
(80,1260,o),
(61,1269,q),
(47,1277,o),
(47,1290,q),
(48,1298,o),
(50.5,1309,q),
(53,1320,o),
(59,1337,q),
(244,1874,l),
(249,1888,o),
(254,1893,q),
(259,1898,o),
(265,1898,q),
(270,1898,o),
(275,1895.5,q),
(280,1893,o),
(285,1890,q),
(363,1837,o),
(440.5,1799.5,q),
(518,1762,o),
(594,1722,q),
(612,1711,o),
(612,1695,q),
(612,1679,o),
(595,1654,q),
(556,1609,o),
(530.5,1579.5,q),
(505,1550,o),
(482.5,1523,q),
(460,1496,o),
(436,1466,q),
(412,1436,o),
(376,1392,q)
);
}
);
width = 635;
}
);
unicode = 180;
},
{
category = Letter;
glyphname = mu;
layers = (
{
layerId = "343d4ea0-2832-40ed-9abc-f55d5da1b22f";
name = Fore;
shapes = (
{
closed = 1;
nodes = (
(189,646,o),
(203.5,802.5,q),
(218,959,o),
(219,970,q),
(222,1002,o),
(226.5,1015,q),
(231,1028,o),
(249,1032,q),
(296,1041,o),
(338.5,1048.5,q),
(381,1056,o),
(422.5,1064.5,q),
(464,1073,o),
(507,1083,q),
(550,1093,o),
(598,1107,q),
(600,1107,o),
(602,1107.5,q),
(604,1108,o),
(606,1108,q),
(618,1108,o),
(618,1098,q),
(614,1064,o),
(610.5,1034,q),
(607,1004,o),
(603.5,973,q),
(600,942,o),
(596.5,905.5,q),
(593,869,o),
(588,821.5,q),
(583,774,o),
(576.5,712,q),
(570,650,o),
(561,568,q),
(555,517,o),
(550,464,q),
(545,411,o),
(543,366,q),
(543,290,o),
(572,257.5,q),
(601,225,o),
(647,225,q),
(680,225,o),
(716,240.5,q),
(752,256,o),
(782.5,282,q),
(813,308,o),
(833.5,342,q),
(854,376,o),
(857,414,q),
(864,513,o),
(869.5,579.5,q),
(875,646,o),
(879,691.5,q),
(883,737,o),
(886,768,q),
(889,799,o),
(891.5,827.5,q),
(894,856,o),
(896,888.5,q),
(898,921,o),
(900,970,q),
(903,1003,o),
(907.5,1015.5,q),
(912,1028,o),
(930,1032,q),
(1021,1050,o),
(1116,1068.5,q),
(1211,1087,o),
(1302,1116,q),
(1310,1116,o),
(1311.5,1113.5,q),
(1313,1111,o),
(1313,1106,q),
(1219,108,l),
(1217,91,o),
(1215.5,80,q),
(1214,69,o),
(1211,62.5,q),
(1208,56,o),
(1203,52.5,q),
(1198,49,o),
(1189,46,q),
(1147,34,o),
(1102,22,q),
(1057,10,o),
(1011,-3,q),
(965,-16,o),
(920,-31.5,q),
(875,-47,o),
(832,-67,q),
(830,-68,o),
(823,-68,q),
(815,-68,o),
(813.5,-65,q),
(812,-62,o),
(812,-57,q),
(812,-56,o),
(812,-51,q),
(812,-46,o),
(813.5,-31,q),
(815,-16,o),
(819,12,q),
(823,40,o),
(830,88,q),
(810,67,o),
(780.5,49,q),
(751,31,o),
(718,18,q),
(685,5,o),
(650.5,-2,q),
(616,-9,o),
(585,-9,q),
(546,-9,o),
(517.5,3.5,q),
(489,16,o),
(481,44,q),
(445,-248,l),
(444,-251,o),
(444,-261,q),
(444,-270,l),
(444,-279,o),
(438,-284,q),
(432,-289,o),
(405,-296,q),
(174,-327,l),
(163,-329,o),
(145.5,-330.5,q),
(128,-332,o),
(113,-332,q),
(101,-332,o),
(91,-326,q),
(81,-320,o),
(81,-304,q),
(81,-298,o),
(82,-297,q),
(101,-140,o),
(121.5,18,q),
(142,176,o),
(159,346,q)
);
}
);
width = 1310;
}
);
unicode = (181,956);
},
{
category = Letter;
glyphname = paragraph;
layers = (
{
layerId = "343d4ea0-2832-40ed-9abc-f55d5da1b22f";
name = Fore;
shapes = (
{
closed = 1;
nodes = (
(647,2,o),
(634,-6,q),
(621,-14,o),
(589,-22,q),
(585,-23,o),
(569.5,-24.5,q),
(554,-26,o),
(532,-28.5,q),
(510,-31,o),
(484.5,-33.5,q),
(459,-36,o),
(436.5,-38,q),
(414,-40,o),
(397.5,-41.5,q),
(381,-43,o),
(376,-43,q),
(363,-43,o),
(350,-37,q),
(337,-31,o),
(337,-12,q),
(337,-6,o),
(338,-4,q),
(451,707,l),
(382,730,o),
(326,763.5,q),
(270,797,o),
(231,840,q),
(192,883,o),
(171,936,q),
(150,989,o),
(150,1052,q),
(150,1126,o),
(175,1184.5,q),
(200,1243,o),
(243,1286.5,q),
(286,1330,o),
(344,1360.5,q),
(402,1391,o),
(468,1410,q),
(534,1429,o),
(605,1437.5,q),
(676,1446,o),
(745,1446,q),
(814,1446,o),
(894,1440.5,q),
(974,1435,o),
(1048,1427.5,q),
(1122,1420,o),
(1181,1412,q),
(1240,1404,o),
(1267,1398,q),
(1289,1391,o),
(1304.5,1386.5,q),
(1320,1382,o),
(1329.5,1376,q),
(1339,1370,o),
(1343,1360.5,q),
(1347,1351,o),
(1348,1333,q),
(1349,1314,o),
(1350,1288,q),
(1351,1262,o),
(1351.5,1234,q),
(1352,1206,o),
(1353,1179,q),
(1354,1152,o),
(1354.5,1130.5,q),
(1355,1109,o),
(1355.5,1096,q),
(1356,1083,o),
(1356,1083,q),
(1351,1065,o),
(1331,1065,q),
(1299,1065,o),
(1200,1068,q),
(1185,978,o),
(1166,862,q),
(1147,746,o),
(1123,595,q),
(1106,476,o),
(1091,368,q),
(1085,321,o),
(1078,272.5,q),
(1071,224,o),
(1064.5,178,q),
(1058,132,o),
(1052.5,91,q),
(1047,50,o),
(1043,20,q),
(1041,3,o),
(1027,-6,q),
(1013,-15,o),
(982,-22,q),
(977,-23,o),
(947,-26.5,q),
(917,-30,o),
(882,-33.5,q),
(847,-37,o),
(816.5,-40,q),
(786,-43,o),
(779,-43,q),
(765,-43,o),
(753,-36,q),
(741,-29,o),
(741,-9,q),
(851,662,l),
(831,660,o),
(811,659,q),
(791,658,o),
(771,658,q),
(750,658,l),
(736,582,o),
(725,509.5,q),
(714,437,o),
(704,368,q),
(697,321,o),
(689.5,272.5,q),
(682,224,o),
(674.5,177.5,q),
(667,131,o),
(660.5,90.5,q),
(654,50,o),
(650,20,q)
);
}
);
width = 1321;
}
);
unicode = 182;
},
{
category = Letter;
glyphname = periodcentered;
layers = (
{
layerId = "343d4ea0-2832-40ed-9abc-f55d5da1b22f";
name = Fore;
shapes = (
{
closed = 1;
nodes = (
(158,862,o),
(159,889.5,q),
(160,917,o),
(160.5,932,q),
(161,947,o),
(161,953,q),
(161,959,o),
(161,964.5,q),
(161,970,o),
(161.5,978,q),
(162,986,o),
(163,1004.5,q),
(164,1023,o),
(166,1055.5,q),
(168,1088,o),
(171,1142,q),
(173,1175,o),
(177.5,1187.5,q),
(182,1200,o),
(200,1203,q),
(288,1203,o),
(384,1203.5,q),
(480,1204,o),
(565,1205,q),
(574,1205,o),
(580,1200,q),
(586,1195,o),
(586,1181,q),
(558,867,l),
(554,834,o),
(550.5,821.5,q),
(547,809,o),
(528,807,q),
(443,806,o),
(353.5,805,q),
(264,804,o),
(167,804,q),
(161,804,o),
(158.5,805,q),
(156,806,o),
(156,811,q),
(156,815,l)
);
}
);
width = 561;
}
);
unicode = 183;
},
{
category = Letter;
glyphname = cedilla;
layers = (
{
layerId = "343d4ea0-2832-40ed-9abc-f55d5da1b22f";
name = Fore;
shapes = (
{
closed = 1;
nodes = (
(487,-433,o),
(462,-471.5,q),
(437,-510,o),
(402,-537.5,q),
(367,-565,o),
(323.5,-580.5,q),
(280,-596,o),
(234,-596,q),
(192,-596,o),
(145.5,-590,q),
(99,-584,o),
(64,-564,q),
(66,-565,l),
(65,-564,o),
(65,-557,q),
(65,-546,o),
(66.5,-527,q),
(68,-508,o),
(70.5,-486.5,q),
(73,-465,o),
(76.5,-445,q),
(80,-425,o),
(84,-412,q),
(89,-412,l),
(95,-412,o),
(95,-414,q),
(94,-414,l),
(110,-421,o),
(124,-425.5,q),
(138,-430,o),
(153.5,-433,q),
(169,-436,o),
(187.5,-437,q),
(206,-438,o),
(231,-438,q),
(273,-438,o),
(296,-413,q),
(319,-388,o),
(319,-356,q),
(319,-326,o),
(300.5,-306.5,q),
(282,-287,o),
(250,-287,q),
(195,-287,o),
(156,-283,q),
(117,-279,o),
(102,-279,q),
(94,-279,o),
(92.5,-275,q),
(91,-271,o),
(91,-266,q),
(96,-256,o),
(102.5,-234.5,q),
(109,-213,o),
(116,-186.5,q),
(123,-160,o),
(129.5,-131,q),
(136,-102,o),
(141.5,-77.5,q),
(147,-53,o),
(150.5,-36.5,q),
(154,-20,o),
(154,-17,q),
(173,-17,l),
(190,-17,o),
(217,-17.5,q),
(244,-18,o),
(270,-18,q),
(333,-18,l),
(285,-159,l),
(302,-157,o),
(316.5,-155.5,q),
(331,-154,o),
(344,-154,q),
(395,-154,o),
(425.5,-170.5,q),
(456,-187,o),
(472.5,-213,q),
(489,-239,o),
(494.5,-272,q),
(500,-305,o),
(500,-339,q),
(500,-351,o),
(499,-362.5,q),
(498,-374,o),
(496,-386,q)
);
}
);
width = 545;
}
);
unicode = 184;
},
{
category = Letter;
glyphname = onesuperior;
layers = (
{
layerId = "343d4ea0-2832-40ed-9abc-f55d5da1b22f";
name = Fore;
shapes = (
{
closed = 1;
nodes = (
(230,1372,o),
(232.5,1380.5,q),
(235,1389,o),
(247,1392,q),
(467,1445,l),
(472,1446,o),
(476,1446.5,q),
(480,1447,o),
(483,1447,q),
(492,1447,o),
(495.5,1441.5,q),
(499,1436,o),
(499,1420,q),
(462,637,l),
(460,608,o),
(453.5,597.5,q),
(447,587,o),
(431,582,q),
(233,523,l),
(228,522,o),
(224,521.5,q),
(220,521,o),
(218,521,q),
(207,521,o),
(199,527,q),
(191,533,o),
(191,550,q),
(191,551,o),
(191,557,q),
(191,563,o),
(192,587.5,q),
(193,612,o),
(195.5,662,q),
(198,712,o),
(202,800.5,q),
(206,889,o),
(212.5,1023,q),
(219,1157,o),
(229,1349,q)
);
}
);
width = 514;
}
);
unicode = 185;
},
{
category = Letter;
glyphname = ordmasculine;
layers = (
{
layerId = "343d4ea0-2832-40ed-9abc-f55d5da1b22f";
name = Fore;
shapes = (
{
closed = 1;
nodes = (
(465,546,o),
(381.5,582,q),
(298,618,o),
(242,677.5,q),
(186,737,o),
(158,814.5,q),
(130,892,o),
(130,976,q),
(130,1060,o),
(157.5,1135.5,q),
(185,1211,o),
(234,1270.5,q),
(283,1330,o),
(351.5,1370,q),
(420,1410,o),
(503,1424,q),
(515,1425,o),
(515,1430,q),
(515,1438,o),
(513,1446,q),
(511,1454,o),
(511,1459,q),
(511,1467,o),
(514.5,1470,q),
(518,1473,o),
(522,1473,q),
(670,1473,o),
(774.5,1439,q),
(879,1405,o),
(944.5,1346.5,q),
(1010,1288,o),
(1040,1208.5,q),
(1070,1129,o),
(1070,1038,q),
(1070,921,o),
(1031,829.5,q),
(992,738,o),
(924.5,675,q),
(857,612,o),
(767,579,q),
(677,546,o),
(575,546,q)
);
},
{
closed = 1;
nodes = (
(430,943,o),
(439,901.5,q),
(448,860,o),
(468.5,826.5,q),
(489,793,o),
(523,772.5,q),
(557,752,o),
(607,752,q),
(660,755,o),
(694,785,q),
(728,815,o),
(747.5,857,q),
(767,899,o),
(774.5,946,q),
(782,993,o),
(782,1031,q),
(782,1071,o),
(770,1110,q),
(758,1149,o),
(734.5,1179,q),
(711,1209,o),
(676.5,1227.5,q),
(642,1246,o),
(596,1246,q),
(549,1246,o),
(517.5,1218,q),
(486,1190,o),
(466.5,1149.5,q),
(447,1109,o),
(438.5,1064,q),
(430,1019,o),
(430,985,q)
);
}
);
width = 1029;
}
);
unicode = 186;
},
